<?xml version="1.0" encoding="UTF-8"?>
<svg width="224px" height="153px" viewBox="0 0 224 153" version="1.1" xmlns="http://www.w3.org/2000/svg" xmlns:xlink="http://www.w3.org/1999/xlink">
    <title>菜单 cloud</title>
    <defs>
        <radialGradient cx="63.8128398%" cy="40.8220878%" fx="63.8128398%" fy="40.8220878%" r="56.9744267%" gradientTransform="translate(0.638128,0.408221),scale(0.888502,1.000000),rotate(28.492583),scale(1.000000,1.932928),translate(-0.638128,-0.408221)" id="radialGradient-1">
            <stop stop-color="#34B6BC" offset="0%"></stop>
            <stop stop-color="#34B6BC" stop-opacity="0" offset="100%"></stop>
            <stop stop-color="#34B6BC" stop-opacity="0" offset="100%"></stop>
        </radialGradient>
        <filter x="-144.6%" y="-162.7%" width="389.2%" height="425.5%" filterUnits="objectBoundingBox" id="filter-2">
            <feGaussianBlur stdDeviation="50" in="SourceGraphic"></feGaussianBlur>
        </filter>
        <radialGradient cx="50%" cy="0%" fx="50%" fy="0%" r="100%" id="radialGradient-3">
            <stop stop-color="#B0A2FF" offset="0%"></stop>
            <stop stop-color="#8AFFF4" stop-opacity="0" offset="100%"></stop>
        </radialGradient>
        <filter x="-162.6%" y="-162.6%" width="425.2%" height="425.2%" filterUnits="objectBoundingBox" id="filter-4">
            <feGaussianBlur stdDeviation="33" in="SourceGraphic"></feGaussianBlur>
        </filter>
        <radialGradient cx="50%" cy="0%" fx="50%" fy="0%" r="100%" id="radialGradient-5">
            <stop stop-color="#74C7C2" offset="0%"></stop>
            <stop stop-color="#8A96FF" stop-opacity="0" offset="100%"></stop>
        </radialGradient>
        <filter x="-49.8%" y="-49.8%" width="199.6%" height="199.6%" filterUnits="objectBoundingBox" id="filter-6">
            <feGaussianBlur stdDeviation="18" in="SourceGraphic"></feGaussianBlur>
        </filter>
        <radialGradient cx="50%" cy="0%" fx="50%" fy="0%" r="100%" id="radialGradient-7">
            <stop stop-color="#3FD583" offset="0%"></stop>
            <stop stop-color="#8AFFAC" stop-opacity="0" offset="100%"></stop>
        </radialGradient>
        <filter x="-130.9%" y="-130.9%" width="361.9%" height="361.9%" filterUnits="objectBoundingBox" id="filter-8">
            <feGaussianBlur stdDeviation="33" in="SourceGraphic"></feGaussianBlur>
        </filter>
        <radialGradient cx="92.2057643%" cy="88.7492669%" fx="92.2057643%" fy="88.7492669%" r="71.9117852%" id="radialGradient-9">
            <stop stop-color="#B0A2FF" offset="0%"></stop>
            <stop stop-color="#8AC0FF" stop-opacity="0" offset="100%"></stop>
        </radialGradient>
        <filter x="-162.6%" y="-162.6%" width="425.2%" height="425.2%" filterUnits="objectBoundingBox" id="filter-10">
            <feGaussianBlur stdDeviation="33" in="SourceGraphic"></feGaussianBlur>
        </filter>
        <radialGradient cx="92.2057643%" cy="88.7492669%" fx="92.2057643%" fy="88.7492669%" r="70.7488761%" id="radialGradient-11">
            <stop stop-color="#BEF4D4" offset="0%"></stop>
            <stop stop-color="#B3F2CD" offset="100%"></stop>
        </radialGradient>
        <filter x="-162.6%" y="-162.6%" width="425.2%" height="425.2%" filterUnits="objectBoundingBox" id="filter-12">
            <feGaussianBlur stdDeviation="33" in="SourceGraphic"></feGaussianBlur>
        </filter>
        <path d="M19.5146474,6.0344106 C18.8090879,2.61474036 15.7928889,-8.65227261e-14 12.0708288,-8.65227261e-14 C9.15417439,-8.65227261e-14 6.63841288,1.60774866 5.43211429,4.02283987 C2.31365596,4.42696352 0,6.94157773 0,10.0569489 C0,13.3770961 2.71485054,16.0910579 6.03541441,16.0910579 L19.1134528,16.0910579 C21.9305627,16.0910579 24.1416576,13.8804412 24.1416576,11.0639406 C24.1389428,8.44950181 22.0273924,6.23617084 19.5146474,6.0344106" id="path-13"></path>
        <filter x="-18.6%" y="-15.5%" width="137.3%" height="155.9%" filterUnits="objectBoundingBox" id="filter-14">
            <feMorphology radius="0.5" operator="dilate" in="SourceAlpha" result="shadowSpreadOuter1"></feMorphology>
            <feOffset dx="0" dy="2" in="shadowSpreadOuter1" result="shadowOffsetOuter1"></feOffset>
            <feGaussianBlur stdDeviation="1" in="shadowOffsetOuter1" result="shadowBlurOuter1"></feGaussianBlur>
            <feComposite in="shadowBlurOuter1" in2="SourceAlpha" operator="out" result="shadowBlurOuter1"></feComposite>
            <feColorMatrix values="0 0 0 0 0.168627451   0 0 0 0 0.219607843   0 0 0 0 0.37254902  0 0 0 0.0864291958 0" type="matrix" in="shadowBlurOuter1"></feColorMatrix>
        </filter>
        <path d="M54.9128775,6.0344106 C54.207318,2.61474036 51.191119,0 47.4690589,0 C44.5524045,0 42.036643,1.60774866 40.8303444,4.02283987 C37.7118861,4.42696352 35.3982301,6.94157773 35.3982301,10.0569489 C35.3982301,13.3770961 38.1130806,16.0910579 41.4336445,16.0910579 L54.5116829,16.0910579 C57.3287928,16.0910579 59.5398877,13.8804412 59.5398877,11.0639406 C59.5371729,8.44950181 57.4256225,6.23617084 54.9128775,6.0344106" id="path-15"></path>
        <filter x="-18.6%" y="-15.5%" width="137.3%" height="155.9%" filterUnits="objectBoundingBox" id="filter-16">
            <feMorphology radius="0.5" operator="dilate" in="SourceAlpha" result="shadowSpreadOuter1"></feMorphology>
            <feOffset dx="0" dy="2" in="shadowSpreadOuter1" result="shadowOffsetOuter1"></feOffset>
            <feGaussianBlur stdDeviation="1" in="shadowOffsetOuter1" result="shadowBlurOuter1"></feGaussianBlur>
            <feComposite in="shadowBlurOuter1" in2="SourceAlpha" operator="out" result="shadowBlurOuter1"></feComposite>
            <feColorMatrix values="0 0 0 0 0.168627451   0 0 0 0 0.219607843   0 0 0 0 0.37254902  0 0 0 0.0864291958 0" type="matrix" in="shadowBlurOuter1"></feColorMatrix>
        </filter>
        <linearGradient x1="50%" y1="0%" x2="50%" y2="99.6339598%" id="linearGradient-17">
            <stop stop-color="#21C4C1" offset="0%"></stop>
            <stop stop-color="#00B173" stop-opacity="0" offset="100%"></stop>
        </linearGradient>
        <linearGradient x1="50%" y1="0%" x2="50%" y2="98.9862084%" id="linearGradient-18">
            <stop stop-color="#21C4C1" offset="0%"></stop>
            <stop stop-color="#00B173" stop-opacity="0" offset="100%"></stop>
        </linearGradient>
        <linearGradient x1="34.2010146%" y1="1.95214929%" x2="63.9796446%" y2="98.5429952%" id="linearGradient-19">
            <stop stop-color="#065F71" offset="0%"></stop>
            <stop stop-color="#0A3A43" offset="100%"></stop>
        </linearGradient>
        <rect id="path-20" x="0" y="0" width="71.9383386" height="125.606623"></rect>
        <linearGradient x1="50%" y1="0%" x2="50%" y2="99.6339598%" id="linearGradient-22">
            <stop stop-color="#21C4C1" offset="0%"></stop>
            <stop stop-color="#00B173" stop-opacity="0" offset="100%"></stop>
        </linearGradient>
        <rect id="path-23" x="-4.88498131e-13" y="2.64677169e-13" width="28.4444444" height="28.3385154" rx="4"></rect>
        <filter x="-14.1%" y="-7.1%" width="128.1%" height="128.2%" filterUnits="objectBoundingBox" id="filter-24">
            <feOffset dx="0" dy="2" in="SourceAlpha" result="shadowOffsetOuter1"></feOffset>
            <feGaussianBlur stdDeviation="1" in="shadowOffsetOuter1" result="shadowBlurOuter1"></feGaussianBlur>
            <feColorMatrix values="0 0 0 0 0.168627451   0 0 0 0 0.219607843   0 0 0 0 0.37254902  0 0 0 0.0864291958 0" type="matrix" in="shadowBlurOuter1"></feColorMatrix>
        </filter>
        <rect id="path-25" x="-4.88498131e-13" y="42.5077731" width="28.4444444" height="28.3385154" rx="4"></rect>
        <filter x="-14.1%" y="-7.1%" width="128.1%" height="128.2%" filterUnits="objectBoundingBox" id="filter-26">
            <feOffset dx="0" dy="2" in="SourceAlpha" result="shadowOffsetOuter1"></feOffset>
            <feGaussianBlur stdDeviation="1" in="shadowOffsetOuter1" result="shadowBlurOuter1"></feGaussianBlur>
            <feColorMatrix values="0 0 0 0 0.168627451   0 0 0 0 0.219607843   0 0 0 0 0.37254902  0 0 0 0.0864291958 0" type="matrix" in="shadowBlurOuter1"></feColorMatrix>
        </filter>
        <rect id="path-27" x="-4.88498131e-13" y="84.6935177" width="28.4444444" height="28.3385154" rx="4"></rect>
        <filter x="-14.1%" y="-7.1%" width="128.1%" height="128.2%" filterUnits="objectBoundingBox" id="filter-28">
            <feOffset dx="0" dy="2" in="SourceAlpha" result="shadowOffsetOuter1"></feOffset>
            <feGaussianBlur stdDeviation="1" in="shadowOffsetOuter1" result="shadowBlurOuter1"></feGaussianBlur>
            <feColorMatrix values="0 0 0 0 0.168627451   0 0 0 0 0.219607843   0 0 0 0 0.37254902  0 0 0 0.0864291958 0" type="matrix" in="shadowBlurOuter1"></feColorMatrix>
        </filter>
        <path d="M21.1795373,12.0108889 C21.1795373,17.0307382 17.0948007,21.1006633 12.0560443,21.1006633 C7.01728796,21.1006633 2.93255132,17.0307382 2.93255132,12.0108889 C2.93255132,6.99103966 7.01728796,2.9216303 12.0560443,2.9216303 C17.0948007,2.9216303 21.1795373,6.99103966 21.1795373,12.0108889" id="path-29"></path>
        <filter x="-24.7%" y="-13.8%" width="149.3%" height="149.5%" filterUnits="objectBoundingBox" id="filter-30">
            <feMorphology radius="0.5" operator="dilate" in="SourceAlpha" result="shadowSpreadOuter1"></feMorphology>
            <feOffset dx="0" dy="2" in="shadowSpreadOuter1" result="shadowOffsetOuter1"></feOffset>
            <feGaussianBlur stdDeviation="1" in="shadowOffsetOuter1" result="shadowBlurOuter1"></feGaussianBlur>
            <feComposite in="shadowBlurOuter1" in2="SourceAlpha" operator="out" result="shadowBlurOuter1"></feComposite>
            <feColorMatrix values="0 0 0 0 0.168627451   0 0 0 0 0.219607843   0 0 0 0 0.37254902  0 0 0 0.0864291958 0" type="matrix" in="shadowBlurOuter1"></feColorMatrix>
        </filter>
        <path d="M19.5146474,6.0344106 C18.8090879,2.61474036 15.7928889,-8.65227261e-14 12.0708288,-8.65227261e-14 C9.15417439,-8.65227261e-14 6.63841288,1.60774866 5.43211429,4.02283987 C2.31365596,4.42696352 0,6.94157773 0,10.0569489 C0,13.3770961 2.71485054,16.0910579 6.03541441,16.0910579 L19.1134528,16.0910579 C21.9305627,16.0910579 24.1416576,13.8804412 24.1416576,11.0639406 C24.1389428,8.44950181 22.0273924,6.23617084 19.5146474,6.0344106" id="path-31"></path>
        <filter x="-18.6%" y="-15.5%" width="137.3%" height="155.9%" filterUnits="objectBoundingBox" id="filter-32">
            <feMorphology radius="0.5" operator="dilate" in="SourceAlpha" result="shadowSpreadOuter1"></feMorphology>
            <feOffset dx="0" dy="2" in="shadowSpreadOuter1" result="shadowOffsetOuter1"></feOffset>
            <feGaussianBlur stdDeviation="1" in="shadowOffsetOuter1" result="shadowBlurOuter1"></feGaussianBlur>
            <feComposite in="shadowBlurOuter1" in2="SourceAlpha" operator="out" result="shadowBlurOuter1"></feComposite>
            <feColorMatrix values="0 0 0 0 0.168627451   0 0 0 0 0.219607843   0 0 0 0 0.37254902  0 0 0 0.0864291958 0" type="matrix" in="shadowBlurOuter1"></feColorMatrix>
        </filter>
        <path d="M19.5146474,6.0344106 C18.8090879,2.61474036 15.7928889,-8.04862568e-14 12.0708288,-8.04862568e-14 C9.15417439,-8.04862568e-14 6.63841288,1.60774866 5.43211429,4.02283987 C2.31365596,4.42696352 0,6.94157773 0,10.0569489 C0,13.3770961 2.71485054,16.0910579 6.03541441,16.0910579 L19.1134528,16.0910579 C21.9305627,16.0910579 24.1416576,13.8804412 24.1416576,11.0639406 C24.1389428,8.44950181 22.0273924,6.23617084 19.5146474,6.0344106" id="path-33"></path>
        <filter x="-18.6%" y="-15.5%" width="137.3%" height="155.9%" filterUnits="objectBoundingBox" id="filter-34">
            <feMorphology radius="0.5" operator="dilate" in="SourceAlpha" result="shadowSpreadOuter1"></feMorphology>
            <feOffset dx="0" dy="2" in="shadowSpreadOuter1" result="shadowOffsetOuter1"></feOffset>
            <feGaussianBlur stdDeviation="1" in="shadowOffsetOuter1" result="shadowBlurOuter1"></feGaussianBlur>
            <feComposite in="shadowBlurOuter1" in2="SourceAlpha" operator="out" result="shadowBlurOuter1"></feComposite>
            <feColorMatrix values="0 0 0 0 0.168627451   0 0 0 0 0.219607843   0 0 0 0 0.37254902  0 0 0 0.0864291958 0" type="matrix" in="shadowBlurOuter1"></feColorMatrix>
        </filter>
        <path d="M19.5146474,6.0344106 C18.8090879,2.61474036 15.7928889,-7.6461944e-14 12.0708288,-7.6461944e-14 C9.15417439,-7.6461944e-14 6.63841288,1.60774866 5.43211429,4.02283987 C2.31365596,4.42696352 0,6.94157773 0,10.0569489 C0,13.3770961 2.71485054,16.0910579 6.03541441,16.0910579 L19.1134528,16.0910579 C21.9305627,16.0910579 24.1416576,13.8804412 24.1416576,11.0639406 C24.1389428,8.44950181 22.0273924,6.23617084 19.5146474,6.0344106" id="path-35"></path>
        <filter x="-18.6%" y="-15.5%" width="137.3%" height="155.9%" filterUnits="objectBoundingBox" id="filter-36">
            <feMorphology radius="0.5" operator="dilate" in="SourceAlpha" result="shadowSpreadOuter1"></feMorphology>
            <feOffset dx="0" dy="2" in="shadowSpreadOuter1" result="shadowOffsetOuter1"></feOffset>
            <feGaussianBlur stdDeviation="1" in="shadowOffsetOuter1" result="shadowBlurOuter1"></feGaussianBlur>
            <feComposite in="shadowBlurOuter1" in2="SourceAlpha" operator="out" result="shadowBlurOuter1"></feComposite>
            <feColorMatrix values="0 0 0 0 0.168627451   0 0 0 0 0.219607843   0 0 0 0 0.37254902  0 0 0 0.0864291958 0" type="matrix" in="shadowBlurOuter1"></feColorMatrix>
        </filter>
        <linearGradient x1="50%" y1="0.972465035%" x2="50%" y2="100%" id="linearGradient-37">
            <stop stop-color="#61D189" offset="0%"></stop>
            <stop stop-color="#4BBE74" offset="100%"></stop>
        </linearGradient>
        <linearGradient x1="21.8341844%" y1="1.95214929%" x2="74.9223656%" y2="98.5429952%" id="linearGradient-38">
            <stop stop-color="#6E6BF1" offset="0%"></stop>
            <stop stop-color="#4152DB" offset="100%"></stop>
        </linearGradient>
        <linearGradient x1="1.83478864%" y1="49.7766371%" x2="92.6187199%" y2="50.2256648%" id="linearGradient-39">
            <stop stop-color="#6E6BF1" offset="0%"></stop>
            <stop stop-color="#4152DB" offset="100%"></stop>
        </linearGradient>
        <linearGradient x1="50%" y1="0.972465035%" x2="50%" y2="100%" id="linearGradient-40">
            <stop stop-color="#61D189" offset="0%"></stop>
            <stop stop-color="#4BBE74" offset="100%"></stop>
        </linearGradient>
        <linearGradient x1="50%" y1="0.972465035%" x2="50%" y2="100%" id="linearGradient-41">
            <stop stop-color="#61D189" offset="0%"></stop>
            <stop stop-color="#4BBE74" offset="100%"></stop>
        </linearGradient>
    </defs>
    <g id="页面-1" stroke="none" stroke-width="1" fill="none" fill-rule="evenodd">
        <g id="导航-定" transform="translate(-1032.000000, -114.000000)">
            <g id="编组-69" transform="translate(1032.000000, 114.000000)">
                <g id="编组-15" opacity="0.487554506" transform="translate(15.575221, 5.097345)">
                    <path d="M134.938053,23.4575395 C152.637168,23.4575395 159.342515,53.0908647 140.743363,83.3548913 C122.144211,113.618918 34.8318584,131.681416 49.840708,95.7168142 C64.8495575,59.7522124 97.3461192,102.166612 104.177484,76.5700317 C111.00885,50.9734513 117.238938,23.4575395 134.938053,23.4575395 Z" id="路径-5" fill="url(#radialGradient-1)" filter="url(#filter-2)"></path>
                    <circle id="椭圆形" fill="url(#radialGradient-3)" opacity="0.489575763" filter="url(#filter-4)" cx="139.752212" cy="75.1858407" r="30.4424779"></circle>
                    <circle id="椭圆形备份-4" fill="url(#radialGradient-5)" opacity="0.201353561" filter="url(#filter-6)" cx="154.19469" cy="84.5309735" r="54.2300885"></circle>
                    <circle id="椭圆形备份-5" fill="url(#radialGradient-7)" opacity="0.200000003" filter="url(#filter-8)" cx="37.8053097" cy="55.3628319" r="37.8053097"></circle>
                    <circle id="椭圆形备份-3" fill="url(#radialGradient-9)" opacity="0.652502725" filter="url(#filter-10)" cx="87.6460177" cy="30.4424779" r="30.4424779"></circle>
                    <circle id="椭圆形备份-6" fill="url(#radialGradient-11)" opacity="0.2265625" filter="url(#filter-12)" cx="53.6637168" cy="72.0707965" r="30.4424779"></circle>
                </g>
                <g id="编组-67" transform="translate(147.907294, 82.167285)">
                    <line x1="0" y1="9.45741207" x2="35.1150442" y2="9.45741207" id="路径-40备份-2" stroke="#00B173" stroke-width="0.5"></line>
                    <g id="编组-13" transform="translate(35.160719, -0.000000)">
                        <g id="Fill-41备份-6">
                            <use fill="black" fill-opacity="1" filter="url(#filter-14)" xlink:href="#path-13"></use>
                            <use stroke-opacity="0.312663899" stroke="#E7E5EE" stroke-width="1" fill="#FFFFFF" fill-rule="evenodd" xlink:href="#path-13"></use>
                        </g>
                        <g id="腾讯云" transform="translate(7.516057, 4.814159)" fill-rule="nonzero">
                            <path d="M7.87418782,5.39937408 C7.74862098,5.52494091 7.45563169,5.77607459 6.91150872,5.77607459 L3.81419336,5.77607459 C4.77687246,4.85525111 5.53027349,4.05999446 5.61398472,4.01813885 C5.69769594,3.93442762 5.86511839,3.76700517 6.03254085,3.64143833 C6.36738575,3.26473781 6.66037504,3.2228822 6.95336433,3.2228822 C7.33006485,3.2228822 7.62305414,3.34844904 7.87418782,3.59958272 C8.37645517,4.05999446 8.37645517,4.93896233 7.87418782,5.39937408 Z M8.50202201,3.01360413 C8.1253215,2.63690362 7.58119853,2.34391433 7.03707556,2.34391433 C6.49295259,2.34391433 6.07439646,2.55319239 5.69769594,2.80432607 C5.5721291,2.92989291 5.32099543,3.09731536 5.15357297,3.34844904 C4.94429491,3.47401588 1.84697955,6.61318685 1.84697955,6.61318685 L6.40924136,6.61318685 C6.70223065,6.61318685 6.95336433,6.61318685 7.12078678,6.57133124 C7.58119853,6.52947563 8.08346588,6.32019756 8.4601664,5.98535266 C9.25542305,5.1482404 9.25542305,3.80886078 8.50202201,3.01360413 Z" id="形状" fill="#00A3FF"></path>
                            <path d="M3.35378162,2.80432607 C2.93522549,2.51133678 2.55852497,2.38576994 2.05625761,2.38576994 C1.47027903,2.38576994 0.926156063,2.63690362 0.591311159,3.05545975 C-0.203945488,3.89257201 -0.203945488,5.23195162 0.633166772,6.06906388 C0.968011676,6.40390879 1.34471219,6.57133124 1.76326832,6.57133124 L2.60038058,5.77607459 L2.13996884,5.77607459 C1.6795571,5.73421898 1.38656781,5.56679653 1.17728974,5.39937408 C0.675022385,4.89710672 0.675022385,4.10185007 1.17728974,3.5577271 C1.42842342,3.30659343 1.6795571,3.18102659 2.09811323,3.18102659 C2.3492469,3.18102659 2.60038058,3.2228822 2.93522549,3.5577271 C3.06079232,3.72514956 3.43749284,3.97628323 3.56305968,4.14370569 L3.60491529,4.14370569 L4.10718265,3.5577271 C3.9397602,3.34844904 3.52120407,3.01360413 3.35378162,2.80432607" id="路径" fill="#00C8DC"></path>
                            <path d="M7.1626424,1.84164697 C6.78594188,0.753401034 5.69769594,-7.13764842e-16 4.52573878,-7.13764842e-16 C3.10264794,-7.13764842e-16 1.97254639,1.04639032 1.72141271,2.38576994 C1.80512394,2.38576994 1.93069077,2.34391433 2.05625761,2.34391433 C2.18182445,2.34391433 2.39110252,2.38576994 2.51666936,2.38576994 C2.72594742,1.46494645 3.52120407,0.83711226 4.44202755,0.83711226 C5.2372842,0.83711226 5.94882962,1.297524 6.28367452,2.00906942 C6.28367452,2.00906942 6.32553014,2.05092504 6.32553014,2.00906942 C6.61851943,1.96721381 6.91150872,1.84164697 7.1626424,1.84164697 C7.1626424,1.9253582 7.1626424,1.9253582 7.1626424,1.84164697" id="路径" fill="#006EFF"></path>
                        </g>
                    </g>
                </g>
                <g id="编组-46" transform="translate(147.907294, 40.415644)">
                    <g id="Fill-41备份">
                        <use fill="black" fill-opacity="1" filter="url(#filter-16)" xlink:href="#path-15"></use>
                        <use stroke-opacity="0.312663899" stroke="#E7E5EE" stroke-width="1" fill="#FFFFFF" fill-rule="evenodd" xlink:href="#path-15"></use>
                    </g>
                    <line x1="6.43890054e-14" y1="10.5657954" x2="35.1150442" y2="10.5657954" id="路径-40备份-2" stroke="#00B173" stroke-width="0.5"></line>
                    <g id="azure" transform="translate(42.761062, 5.097345)" fill="#1E88E5" fill-rule="nonzero">
                        <path d="M5.00692606,0.000431452139 L2.06628854,6.23141457 L0,6.20897923 L2.3063229,2.25647706 L5.00692606,0 M5.32408337,0.491851596 L9.0619469,7.00241352 L2.14817751,7.00241352 L6.36221029,6.25384991 L4.15554065,3.64142761 L5.32408337,0.491851596 Z" id="形状"></path>
                    </g>
                </g>
                <path d="M117.245262,23.6734228 C116.971546,22.842655 116.822246,21.9452206 116.822246,21.0118889 C116.822246,16.8067679 119.828148,13.3965173 123.530782,13.3965173 C123.77293,13.3965173 124.012098,13.411103 124.24764,13.4395428 C124.363399,9.45281675 127.321163,6.25977733 130.952991,6.25977733 C133.46693,6.25977733 135.6579,7.78967658 136.806786,10.0538592 L136.805118,9.9708821 C136.805118,5.87170897 139.808632,2.54867257 143.513654,2.54867257 C147.218675,2.54867257 150.222189,5.87170897 150.222189,9.9708821 C150.222189,10.0391459 150.221356,10.1071944 150.219701,10.175016 C151.985547,10.6439242 153.480701,11.8868686 154.395739,13.5618894 C154.844727,13.4533201 155.310984,13.3965173 155.788846,13.3965173 C159.49148,13.3965173 162.497382,16.8067679 162.497382,21.0118889 C162.497382,21.9452206 162.348082,22.842655 162.079343,23.6734228 L162.079343,23.6734228 Z" id="形状结合备份-2" fill="url(#linearGradient-17)" opacity="0.300000012"></path>
                <path d="M43.6169436,131.000856 C43.3432274,130.170089 43.1939277,129.272654 43.1939277,128.339322 C43.1939277,124.134201 46.1998293,120.723951 49.9024632,120.723951 C50.1446113,120.723951 50.3837795,120.738537 50.6193219,120.766976 C50.7350804,116.78025 53.692844,113.587211 57.3246727,113.587211 C59.8386112,113.587211 62.0295809,115.11711 63.1784676,117.381293 L63.1767995,117.298316 C63.1767995,113.199143 66.1803132,109.876106 69.885335,109.876106 C73.5903569,109.876106 76.5938706,113.199143 76.5938706,117.298316 C76.5938706,117.36658 76.5930376,117.434628 76.5913824,117.50245 C78.3572281,117.971358 79.8523823,119.214302 80.7674204,120.889323 C81.2164084,120.780754 81.6826655,120.723951 82.1605277,120.723951 C85.8631616,120.723951 88.8690633,124.134201 88.8690633,128.339322 C88.8690633,129.272654 88.7197635,130.170089 88.451024,131.000856 L88.451024,131.000856 Z" id="形状结合备份-4" fill="url(#linearGradient-18)" fill-rule="nonzero" opacity="0.391692406"></path>
                <g id="编组-18" transform="translate(76.176991, 9.628319)">
                    <mask id="mask-21" fill="white">
                        <use xlink:href="#path-20"></use>
                    </mask>
                    <use id="蒙版" fill="url(#linearGradient-19)" xlink:href="#path-20"></use>
                    <g opacity="0.12" mask="url(#mask-21)" fill="#FFFFFF" fill-rule="nonzero">
                        <g transform="translate(-22.266629, 2.128677)">
                            <path id="路径-16" d="M62.7633642,20.6139276 L62.9098108,20.7603742 L69.328,27.179 L86.1691578,27.1790209 C86.4182015,24.9293863 88.3255811,23.1797284 90.6416151,23.1797284 C93.1268965,23.1797284 95.1416151,25.194447 95.1416151,27.6797284 C95.1416151,30.1650098 93.1268965,32.1797284 90.6416151,32.1797284 C88.3254495,32.1797284 86.4179848,30.4298717 86.1691154,28.1800525 L68.9149514,28.1797284 L62.348,21.613 L40.94,21.613 L38.0583194,24.4961728 C39.4730144,26.2630071 39.3615085,28.8489734 37.7238018,30.4866801 C35.9664425,32.2440394 33.1172001,32.2440394 31.3598408,30.4866801 C29.6024815,28.7293208 29.6024815,25.8800784 31.3598408,24.1227191 C32.997602,22.4849578 35.5836861,22.3734991 37.3505246,23.7883428 L40.3790399,20.7603742 L40.5254865,20.6139276 L62.7633642,20.6139276 Z M90.6416151,24.1797284 C88.7086185,24.1797284 87.1416151,25.7467318 87.1416151,27.6797284 C87.1416151,29.612725 88.7086185,31.1797284 90.6416151,31.1797284 C92.5746117,31.1797284 94.1416151,29.612725 94.1416151,27.6797284 C94.1416151,25.7467318 92.5746117,24.1797284 90.6416151,24.1797284 Z M32.0669476,24.8298259 C30.7001125,26.1966609 30.7001125,28.4127383 32.0669476,29.7795733 C33.4337826,31.1464084 35.64986,31.1464084 37.016695,29.7795733 C38.3835301,28.4127383 38.3835301,26.1966609 37.016695,24.8298259 C35.64986,23.4629908 33.4337826,23.4629908 32.0669476,24.8298259 Z"></path>
                            <path id="路径-17" d="M91.5281447,63.3260287 C93.285504,65.083388 93.285504,67.9326304 91.5281447,69.6899897 C89.8903835,71.3277509 87.3042994,71.4392097 85.5374609,70.024366 L80.8305519,74.7307282 L80.6841053,74.8771748 L57.237,74.877 L52.1481235,79.9678765 C53.5628184,81.7347108 53.4513126,84.3206771 51.8136059,85.9583838 C50.0562465,87.7157431 47.2070041,87.7157431 45.4496448,85.9583838 C43.6922855,84.2010245 43.6922855,81.3517821 45.4496448,79.5944228 C47.0873515,77.9567161 49.6733179,77.8452102 51.4401521,79.2599052 L56.823747,73.8771748 L80.269,73.877 L84.8298074,69.3167125 C83.4149637,67.549874 83.5264225,64.9637899 85.1641837,63.3260287 C86.921543,61.5686694 89.7707854,61.5686694 91.5281447,63.3260287 Z M46.1567516,80.3015295 C44.7899166,81.6683646 44.7899166,83.884442 46.1567516,85.251277 C47.5235866,86.618112 49.7396641,86.618112 51.1064991,85.251277 C52.4733341,83.884442 52.4733341,81.6683646 51.1064991,80.3015295 C49.7396641,78.9346945 47.5235866,78.9346945 46.1567516,80.3015295 Z M85.8712905,64.0331354 C84.5044555,65.3999705 84.5044555,67.6160479 85.8712905,68.9828829 C87.2381255,70.3497179 89.4542029,70.3497179 90.821038,68.9828829 C92.187873,67.6160479 92.187873,65.3999705 90.821038,64.0331354 C89.4542029,62.6663004 87.2381255,62.6663004 85.8712905,64.0331354 Z" opacity="0.5"></path>
                            <path id="路径-18" d="M105.067054,60.6736006 C106.824413,62.4309599 106.824413,65.2802023 105.067054,67.0375616 C103.429292,68.6753229 100.843208,68.7867816 99.0763699,67.3719379 L74.3033874,92.1443737 L74.1569408,92.2908203 L11.911,92.29 L3.51635677,100.68637 C4.93120052,102.453209 4.81974176,105.039293 3.18198052,106.677054 C1.4246212,108.434414 -1.4246212,108.434414 -3.18198052,106.677054 C-4.93933983,104.919695 -4.93933983,102.070453 -3.18198052,100.313093 C-1.54421927,98.675332 1.04186477,98.5638733 2.80870329,99.978717 L11.4971467,91.2908203 L73.743,91.29 L98.3685751,66.6641079 C96.9538801,64.8972736 97.065386,62.3113073 98.7030927,60.6736006 C100.460452,58.9162413 103.309694,58.9162413 105.067054,60.6736006 Z M-2.47487373,101.0202 C-3.84170876,102.387035 -3.84170876,104.603112 -2.47487373,105.969948 C-1.10803871,107.336783 1.10803871,107.336783 2.47487373,105.969948 C3.84170876,104.603112 3.84170876,102.387035 2.47487373,101.0202 C1.10803871,99.653365 -1.10803871,99.653365 -2.47487373,101.0202 Z M99.4101995,61.3807074 C98.0433645,62.7475424 98.0433645,64.9636198 99.4101995,66.3304548 C100.777035,67.6972899 102.993112,67.6972899 104.359947,66.3304548 C105.726782,64.9636198 105.726782,62.7475424 104.359947,61.3807074 C102.993112,60.0138723 100.777035,60.0138723 99.4101995,61.3807074 Z"></path>
                            <path id="路径-19" d="M57.0939195,9.86983348 C59.5792009,9.86983348 61.5939195,11.8845521 61.5939195,14.3698335 C61.5939195,16.8551149 59.5792009,18.8698335 57.0939195,18.8698335 C54.7777539,18.8698335 52.8702892,17.1199768 52.6214197,14.8701576 L21.393463,14.8701576 C21.1445935,17.1199768 19.2371288,18.8698335 16.9209632,18.8698335 C14.4356818,18.8698335 12.4209632,16.8551149 12.4209632,14.3698335 C12.4209632,11.8845521 14.4356818,9.86983348 16.9209632,9.86983348 C19.2369973,9.86983348 21.1443768,11.6194914 21.3934206,13.869126 L52.6214621,13.869126 C52.8705059,11.6194914 54.7778854,9.86983348 57.0939195,9.86983348 Z M16.9209632,10.8698335 C14.9879666,10.8698335 13.4209632,12.4368369 13.4209632,14.3698335 C13.4209632,16.3028301 14.9879666,17.8698335 16.9209632,17.8698335 C18.8539598,17.8698335 20.4209632,16.3028301 20.4209632,14.3698335 C20.4209632,12.4368369 18.8539598,10.8698335 16.9209632,10.8698335 Z M57.0939195,10.8698335 C55.1609229,10.8698335 53.5939195,12.4368369 53.5939195,14.3698335 C53.5939195,16.3028301 55.1609229,17.8698335 57.0939195,17.8698335 C59.0269161,17.8698335 60.5939195,16.3028301 60.5939195,14.3698335 C60.5939195,12.4368369 59.0269161,10.8698335 57.0939195,10.8698335 Z"></path>
                            <path id="路径-29" d="M21.9870324,17.3614463 C23.6247391,18.999153 23.736245,21.5851194 22.32155,23.3519536 L31.767,32.798 L60.7398697,32.7985006 L60.8863164,32.9449472 L65.6801915,37.7382756 C67.44703,36.3234319 70.033114,36.4348906 71.6708753,38.0726519 C73.4282346,39.8300112 73.4282346,42.6792536 71.6708753,44.4366129 C69.913516,46.1939722 67.0642736,46.1939722 65.3069143,44.4366129 C63.6692076,42.7989062 63.5577017,40.2129399 64.9723967,38.4461056 L60.325,33.798 L31.3530188,33.7985006 L31.2065722,33.652054 L21.6137552,24.0597836 C19.8469166,25.4746274 17.2608326,25.3631686 15.6230714,23.7254074 C13.865712,21.9680481 13.865712,19.1188057 15.6230714,17.3614463 C17.3804307,15.604087 20.2296731,15.604087 21.9870324,17.3614463 Z M66.014021,38.7797586 C64.647186,40.1465937 64.647186,42.3626711 66.014021,43.7295061 C67.3808561,45.0963411 69.5969335,45.0963411 70.9637685,43.7295061 C72.3306035,42.3626711 72.3306035,40.1465937 70.9637685,38.7797586 C69.5969335,37.4129236 67.3808561,37.4129236 66.014021,38.7797586 Z M16.3301781,18.0685531 C14.9633431,19.4353881 14.9633431,21.6514656 16.3301781,23.0183006 C17.6970132,24.3851356 19.9130906,24.3851356 21.2799256,23.0183006 C22.6467606,21.6514656 22.6467606,19.4353881 21.2799256,18.0685531 C19.9130906,16.7017181 17.6970132,16.7017181 16.3301781,18.0685531 Z" opacity="0.5"></path>
                            <path id="路径-30" d="M73.2416041,31.4138007 C74.8793108,33.0515074 74.9908167,35.6374737 73.5761217,37.404308 L79.009,42.838 L93.5047104,42.8382674 C93.7537541,40.5886328 95.6611337,38.8389748 97.9771677,38.8389748 C100.462449,38.8389748 102.477168,40.8536935 102.477168,43.3389748 C102.477168,45.8242562 100.462449,47.8389748 97.9771677,47.8389748 C95.660789,47.8389748 93.7531864,46.088796 93.5045993,43.8386778 L78.5957104,43.8389748 L72.8681503,38.1122793 C71.1013161,39.5269743 68.5153498,39.4154684 66.877643,37.7777617 C65.1202837,36.0204024 65.1202837,33.17116 66.877643,31.4138007 C68.6350024,29.6564414 71.4842448,29.6564414 73.2416041,31.4138007 Z M97.9771677,39.8389748 C96.0441711,39.8389748 94.4771677,41.4059782 94.4771677,43.3389748 C94.4771677,45.2719715 96.0441711,46.8389748 97.9771677,46.8389748 C99.9101643,46.8389748 101.477168,45.2719715 101.477168,43.3389748 C101.477168,41.4059782 99.9101643,39.8389748 97.9771677,39.8389748 Z M67.5847498,32.1209075 C66.2179148,33.4877425 66.2179148,35.7038199 67.5847498,37.0706549 C68.9515848,38.43749 71.1676623,38.43749 72.5344973,37.0706549 C73.9013323,35.7038199 73.9013323,33.4877425 72.5344973,32.1209075 C71.1676623,30.7540724 68.9515848,30.7540724 67.5847498,32.1209075 Z"></path>
                            <path id="路径-30备份" d="M42.125418,99.3555649 C43.7631247,100.993272 43.8746305,103.579238 42.4599356,105.346072 L53.994,116.881 L81.8701047,116.881257 C82.1191484,114.631622 84.026528,112.881964 86.3425621,112.881964 C88.8278434,112.881964 90.8425621,114.896683 90.8425621,117.381964 C90.8425621,119.867246 88.8278434,121.881964 86.3425621,121.881964 C84.0261833,121.881964 82.1185807,120.131786 81.8699936,117.881667 L53.5807497,117.881964 L41.7519642,106.054044 C39.98513,107.468738 37.3991636,107.357233 35.7614569,105.719526 C34.0040976,103.962167 34.0040976,101.112924 35.7614569,99.3555649 C37.5188162,97.5982056 40.3680586,97.5982056 42.125418,99.3555649 Z M86.3425621,113.881964 C84.4095654,113.881964 82.8425621,115.448968 82.8425621,117.381964 C82.8425621,119.314961 84.4095654,120.881964 86.3425621,120.881964 C88.2755587,120.881964 89.8425621,119.314961 89.8425621,117.381964 C89.8425621,115.448968 88.2755587,113.881964 86.3425621,113.881964 Z M36.4685637,100.062672 C35.1017287,101.429507 35.1017287,103.645584 36.4685637,105.012419 C37.8353987,106.379254 40.0514761,106.379254 41.4183112,105.012419 C42.7851462,103.645584 42.7851462,101.429507 41.4183112,100.062672 C40.0514761,98.6958366 37.8353987,98.6958366 36.4685637,100.062672 Z"></path>
                            <path id="路径-31" d="M55.8091274,12.47798 C53.323846,12.47798 51.3091274,10.4632613 51.3091274,7.97797995 C51.3091274,5.49269858 53.323846,3.47797995 55.8091274,3.47797995 C58.1251615,3.47797995 60.032541,5.2276379 60.2815848,7.47727251 L76.155228,7.47797995 L76.3016746,7.62442656 L107.145,38.467 L125.130697,38.4670539 C125.379567,36.2172347 127.287032,34.467378 129.603197,34.467378 C132.088479,34.467378 134.103197,36.4820966 134.103197,38.967378 C134.103197,41.4526594 132.088479,43.467378 129.603197,43.467378 C127.287032,43.467378 125.379567,41.7175213 125.130697,39.4677021 L106.730413,39.467378 L75.74,8.477 L60.2816959,8.47768291 C60.0331088,10.7278012 58.1255062,12.47798 55.8091274,12.47798 Z M129.603197,35.467378 C127.670201,35.467378 126.103197,37.0343814 126.103197,38.967378 C126.103197,40.9003746 127.670201,42.467378 129.603197,42.467378 C131.536194,42.467378 133.103197,40.9003746 133.103197,38.967378 C133.103197,37.0343814 131.536194,35.467378 129.603197,35.467378 Z M55.8091274,4.47797995 C53.8761308,4.47797995 52.3091274,6.04498333 52.3091274,7.97797995 C52.3091274,9.91097658 53.8761308,11.47798 55.8091274,11.47798 C57.742124,11.47798 59.3091274,9.91097658 59.3091274,7.97797995 C59.3091274,6.04498333 57.742124,4.47797995 55.8091274,4.47797995 Z"></path>
                            <path id="路径-32" d="M43.6469733,4.5 C41.1616919,4.5 39.1469733,2.48528137 39.1469733,-1.59872116e-14 C39.1469733,-2.48528137 41.1616919,-4.5 43.6469733,-4.5 C45.9630074,-4.5 47.8703869,-2.75034205 48.1194307,-0.500707444 L77.8548373,-0.5 L78.0012839,-0.353553391 L109.876,31.521 L135.154717,31.5214314 C135.403304,29.2713131 137.310907,27.5211343 139.627286,27.5211343 C142.112567,27.5211343 144.127286,29.5358529 144.127286,32.0211343 C144.127286,34.5064157 142.112567,36.5211343 139.627286,36.5211343 C137.311252,36.5211343 135.403872,34.7714764 135.154828,32.5218418 L109.461758,32.5211343 L109.315311,32.3746877 L77.44,0.499 L48.1195418,0.49970296 C47.8709547,2.7498212 45.9633521,4.5 43.6469733,4.5 Z M139.627286,28.5211343 C137.694289,28.5211343 136.127286,30.0881377 136.127286,32.0211343 C136.127286,33.9541309 137.694289,35.5211343 139.627286,35.5211343 C141.560282,35.5211343 143.127286,33.9541309 143.127286,32.0211343 C143.127286,30.0881377 141.560282,28.5211343 139.627286,28.5211343 Z M43.6469733,-3.5 C41.7139767,-3.5 40.1469733,-1.93299662 40.1469733,-1.59872116e-14 C40.1469733,1.93299662 41.7139767,3.5 43.6469733,3.5 C45.5799699,3.5 47.1469733,1.93299662 47.1469733,-1.59872116e-14 C47.1469733,-1.93299662 45.5799699,-3.5 43.6469733,-3.5 Z"></path>
                            <path id="路径-33" d="M125.987267,70.2594429 C128.472548,70.2594429 130.487267,72.2741616 130.487267,74.7594429 C130.487267,77.2447243 128.472548,79.2594429 125.987267,79.2594429 C123.671101,79.2594429 121.763637,77.5095862 121.514767,75.259767 L102.091,75.259 L78.0012839,99.350339 L77.8548373,99.4967857 L68.6303211,99.4971098 C68.3814516,101.746929 66.4739869,103.496786 64.1578213,103.496786 C61.67254,103.496786 59.6578213,101.482067 59.6578213,98.9967857 C59.6578213,96.5115043 61.67254,94.4967857 64.1578213,94.4967857 C66.4738554,94.4967857 68.3812349,96.2464436 68.6302787,98.4960782 L77.441,98.496 L101.53152,74.4058896 L101.677966,74.2594429 L121.514767,74.2591188 C121.763637,72.0092997 123.671101,70.2594429 125.987267,70.2594429 Z M64.1578213,95.4967857 C62.2248247,95.4967857 60.6578213,97.063789 60.6578213,98.9967857 C60.6578213,100.929782 62.2248247,102.496786 64.1578213,102.496786 C66.090818,102.496786 67.6578213,100.929782 67.6578213,98.9967857 C67.6578213,97.063789 66.090818,95.4967857 64.1578213,95.4967857 Z M125.987267,71.2594429 C124.05427,71.2594429 122.487267,72.8264463 122.487267,74.7594429 C122.487267,76.6924396 124.05427,78.2594429 125.987267,78.2594429 C127.920263,78.2594429 129.487267,76.6924396 129.487267,74.7594429 C129.487267,72.8264463 127.920263,71.2594429 125.987267,71.2594429 Z"></path>
                            <path id="路径-34" d="M125.778653,42.4156506 C128.263935,42.4156506 130.278653,44.4303692 130.278653,46.9156506 C130.278653,49.400932 128.263935,51.4156506 125.778653,51.4156506 C123.462488,51.4156506 121.555023,49.6657939 121.306153,47.4159747 L105.804,47.415 L99.921805,53.2984173 C101.336649,55.0652558 101.22519,57.6513399 99.5874287,59.2891011 C97.8300694,61.0464604 94.980827,61.0464604 93.2234677,59.2891011 C91.4661084,57.5317418 91.4661084,54.6824994 93.2234677,52.9251401 C94.8611744,51.2874334 97.4471407,51.1759275 99.213975,52.5906225 L105.243365,46.5620972 L105.389811,46.4156506 L121.306153,46.4153265 C121.555023,44.1655073 123.462488,42.4156506 125.778653,42.4156506 Z M93.9305745,53.6322469 C92.5637395,54.9990819 92.5637395,57.2151593 93.9305745,58.5819943 C95.2974095,59.9488294 97.5134869,59.9488294 98.880322,58.5819943 C100.247157,57.2151593 100.247157,54.9990819 98.880322,53.6322469 C97.5134869,52.2654118 95.2974095,52.2654118 93.9305745,53.6322469 Z M125.778653,43.4156506 C123.845657,43.4156506 122.278653,44.982654 122.278653,46.9156506 C122.278653,48.8486472 123.845657,50.4156506 125.778653,50.4156506 C127.71165,50.4156506 129.278653,48.8486472 129.278653,46.9156506 C129.278653,44.982654 127.71165,43.4156506 125.778653,43.4156506 Z" opacity="0.5"></path>
                            <path id="路径-34备份" d="M55.8386018,66.1096272 C58.3238832,66.1096272 60.3386018,68.1243458 60.3386018,70.6096272 C60.3386018,73.0949085 58.3238832,75.1096272 55.8386018,75.1096272 C53.5224362,75.1096272 51.6149716,73.3597705 51.3661021,71.1099513 L35.864,71.109 L29.9817536,76.9923939 C31.3965974,78.7592324 31.2851386,81.3453165 29.6473774,82.9830777 C27.890018,84.740437 25.0407756,84.740437 23.2834163,82.9830777 C21.526057,81.2257184 21.526057,78.376476 23.2834163,76.6191167 C24.921123,74.98141 27.5070894,74.8699041 29.2739236,76.2845991 L35.3033135,70.2560738 L35.4497601,70.1096272 L51.3661021,70.1093031 C51.6149716,67.8594839 53.5224362,66.1096272 55.8386018,66.1096272 Z M23.9905231,77.3262235 C22.6236881,78.6930585 22.6236881,80.9091359 23.9905231,82.2759709 C25.3573581,83.6428059 27.5734355,83.6428059 28.9402706,82.2759709 C30.3071056,80.9091359 30.3071056,78.6930585 28.9402706,77.3262235 C27.5734355,75.9593884 25.3573581,75.9593884 23.9905231,77.3262235 Z M55.8386018,67.1096272 C53.9056052,67.1096272 52.3386018,68.6766305 52.3386018,70.6096272 C52.3386018,72.5426238 53.9056052,74.1096272 55.8386018,74.1096272 C57.7715985,74.1096272 59.3386018,72.5426238 59.3386018,70.6096272 C59.3386018,68.6766305 57.7715985,67.1096272 55.8386018,67.1096272 Z" opacity="0.5"></path>
                        </g>
                    </g>
                    <g id="编组-42" opacity="0.5" mask="url(#mask-21)" stroke="#FFFFFF" stroke-dasharray="12,6">
                        <g transform="translate(6.125870, 13.332953)">
                            <line x1="26.263203" y1="80.5865448" x2="39.9657436" y2="80.5865448" id="路径-6备份-2"></line>
                            <line x1="51.1003243" y1="0.0864961813" x2="61.1034865" y2="10.5061365" id="路径-6备份-9" transform="translate(56.101905, 5.296316) rotate(-1.000000) translate(-56.101905, -5.296316) "></line>
                            <line x1="51.9554667" y1="32.0567132" x2="65.6580074" y2="32.0567132" id="路径-6备份-5"></line>
                            <line x1="0" y1="3.22428388" x2="13.7025407" y2="3.22428388" id="路径-6备份-6"></line>
                        </g>
                    </g>
                </g>
                <g id="编组备份-2" transform="translate(90.053097, 54.938053)" fill="#00B173">
                    <path d="M3.13164684,19.8725732 L3.13164684,19.2085957 L0.831683259,19.2085957 L0.831683259,17.6307933 L2.78254523,17.6307933 L2.78254523,16.9633931 L0.831683259,16.9633931 L0.831683259,15.556719 L3.10768889,15.556719 L3.10768889,14.8893188 L0,14.8893188 L0,19.8725732 L3.13164684,19.8725732 Z M4.7128718,19.8725732 L4.7128718,16.2275417 L4.73340719,16.2206965 L6.12981365,19.8725732 L6.70138198,19.8725732 L8.07383049,16.2891478 L8.09436588,16.2925704 L8.09436588,19.8725732 L8.92604914,19.8725732 L8.92604914,14.8893188 L7.86505403,14.8893188 L6.42415423,18.7225914 L6.40361884,18.7225914 L4.97298673,14.8893188 L3.88118854,14.8893188 L3.88118854,19.8725732 L4.7128718,19.8725732 Z M13.6560338,20.3893805 L14.2104893,19.8931086 L13.4746378,19.1606797 C13.6092587,18.9804247 13.7125061,18.7773525 13.7843799,18.5514632 C13.8562538,18.3255739 13.8921907,18.0848535 13.8921907,17.829302 L13.8921907,17.829302 L13.8921907,16.93259 C13.8921907,16.3256552 13.7005271,15.8213973 13.3171998,15.4198164 C12.9338726,15.0182354 12.4376007,14.8174449 11.8283841,14.8174449 C11.2305761,14.8174449 10.7451424,15.0182354 10.3720828,15.4198164 C9.99902322,15.8213973 9.81249343,16.3256552 9.81249343,16.93259 L9.81249343,16.93259 L9.81249343,17.829302 C9.81249343,18.4385186 9.99959365,18.9433469 10.3737941,19.343787 C10.7479945,19.7442271 11.2328578,19.9444471 11.8283841,19.9444471 C12.0314563,19.9444471 12.2242608,19.9204891 12.4067976,19.8725732 C12.5893344,19.8246573 12.7593218,19.7539243 12.9167598,19.6603742 L12.9167598,19.6603742 L13.6560338,20.3893805 Z M11.8283841,19.2633567 C11.4633105,19.2633567 11.1746742,19.1293062 10.9624752,18.8612053 C10.7502762,18.5931044 10.6441767,18.2491366 10.6441767,17.829302 L10.6441767,17.829302 L10.6441767,16.9257449 C10.6441767,16.5104737 10.7497058,16.1693581 10.9607639,15.902398 C11.1718221,15.6354379 11.4610288,15.5019579 11.8283841,15.5019579 C12.207148,15.5019579 12.5071928,15.6354379 12.7285187,15.902398 C12.9498445,16.1693581 13.0605075,16.5104737 13.0605075,16.9257449 L13.0605075,16.9257449 L13.0605075,17.829302 C13.0605075,18.2514184 12.950415,18.5959565 12.73023,18.8629166 C12.510045,19.1298767 12.2094297,19.2633567 11.8283841,19.2633567 Z M17.2634171,19.8725732 L18.3449476,18.0004303 L19.4264781,19.8725732 L20.425867,19.8725732 L18.8343744,17.3604106 L20.3676834,14.8893188 L19.3819848,14.8893188 L18.3312574,16.7306587 L17.2907976,14.8893188 L16.3119441,14.8893188 L17.8452531,17.3604106 L16.2777184,19.8725732 L17.2634171,19.8725732 Z M24.6253541,19.9444471 C25.1957816,19.9444471 25.648701,19.7898613 25.9841124,19.4806896 C26.3195237,19.1715179 26.482666,18.7659439 26.4735391,18.2639678 L26.4735391,18.2639678 L26.466694,18.2434324 L25.6658138,18.2434324 C25.6658138,18.5788437 25.5773976,18.8355361 25.4005651,19.0135095 C25.2237325,19.1914828 24.9653289,19.2804695 24.6253541,19.2804695 C24.2785342,19.2804695 24.004729,19.1464191 23.8039386,18.8783181 C23.6031481,18.6102172 23.5027528,18.269672 23.5027528,17.8566825 L23.5027528,17.8566825 L23.5027528,16.9017869 C23.5027528,16.4933609 23.6014368,16.1550974 23.7988047,15.8869965 C23.9961726,15.6188956 24.2637031,15.4848451 24.6013962,15.4848451 C24.9504978,15.4848451 25.2151761,15.5732614 25.3954312,15.7500939 C25.5756863,15.9269264 25.6658138,16.1819075 25.6658138,16.5150371 L25.6658138,16.5150371 L26.4701166,16.5150371 L26.4769617,16.4945017 C26.4860885,15.9742719 26.3223759,15.5647049 25.9858236,15.2658009 C25.6492714,14.9668969 25.1877956,14.8174449 24.6013962,14.8174449 C24.028687,14.8174449 23.564359,15.0142424 23.2084123,15.4078374 C22.8524655,15.8014323 22.6744922,16.3016972 22.6744922,16.9086321 L22.6744922,16.9086321 L22.6744922,17.8566825 C22.6744922,18.4658991 22.8547472,18.966164 23.2152574,19.3574772 C23.5757676,19.7487905 24.0457998,19.9444471 24.6253541,19.9444471 Z M30.4402918,19.8725732 L30.4402918,19.2085957 L28.1061026,19.2085957 L28.1061026,14.8893188 L27.2744193,14.8893188 L27.2744193,19.8725732 L30.4402918,19.8725732 Z M32.8272707,19.9444471 C33.4387689,19.9444471 33.9356113,19.7442271 34.3177977,19.343787 C34.6999841,18.9433469 34.8910773,18.4385186 34.8910773,17.829302 L34.8910773,17.829302 L34.8910773,16.93259 C34.8910773,16.3256552 34.6994137,15.8213973 34.3160864,15.4198164 C33.9327591,15.0182354 33.4364872,14.8174449 32.8272707,14.8174449 C32.2294627,14.8174449 31.7440289,15.0182354 31.3709693,15.4198164 C30.9979098,15.8213973 30.81138,16.3256552 30.81138,16.93259 L30.81138,16.93259 L30.81138,17.829302 C30.81138,18.4385186 30.9984802,18.9433469 31.3726806,19.343787 C31.746881,19.7442271 32.2317444,19.9444471 32.8272707,19.9444471 Z M32.8272707,19.2633567 C32.4621971,19.2633567 32.1735608,19.1293062 31.9613618,18.8612053 C31.7491627,18.5931044 31.6430632,18.2491366 31.6430632,17.829302 L31.6430632,17.829302 L31.6430632,16.9257449 C31.6430632,16.5104737 31.7485923,16.1693581 31.9596505,15.902398 C32.1707087,15.6354379 32.4599154,15.5019579 32.8272707,15.5019579 C33.2060345,15.5019579 33.5060794,15.6354379 33.7274052,15.902398 C33.9487311,16.1693581 34.059394,16.5104737 34.059394,16.9257449 L34.059394,16.9257449 L34.059394,17.829302 C34.059394,18.2514184 33.9493015,18.5959565 33.7291165,18.8629166 C33.5089315,19.1298767 33.2083162,19.2633567 32.8272707,19.2633567 Z M37.6257066,19.9444471 C38.2006975,19.9444471 38.6701593,19.7875795 39.034092,19.4738444 C39.3980248,19.1601093 39.5799911,18.726014 39.5799911,18.1715585 L39.5799911,18.1715585 L39.5799911,14.8893188 L38.7483079,14.8893188 L38.7483079,18.1715585 C38.7483079,18.5252235 38.6456309,18.7984583 38.440277,18.9912628 C38.2349231,19.1840673 37.9633997,19.2804695 37.6257066,19.2804695 C37.2994221,19.2804695 37.0370254,19.1840673 36.8385167,18.9912628 C36.6400079,18.7984583 36.5407535,18.5252235 36.5407535,18.1715585 L36.5407535,18.1715585 L36.5407535,14.8893188 L35.7090703,14.8893188 L35.7090703,18.1715585 C35.7090703,18.726014 35.8870437,19.1601093 36.2429904,19.4738444 C36.5989371,19.7875795 37.0598425,19.9444471 37.6257066,19.9444471 Z M42.1982532,19.8725732 C42.8302869,19.8725732 43.344242,19.6763462 43.7401187,19.2838921 C44.1359954,18.891438 44.3339337,18.3837575 44.3339337,17.7608507 L44.3339337,17.7608507 L44.3339337,17.0044639 C44.3339337,16.3838388 44.1359954,15.8761583 43.7401187,15.4814225 C43.344242,15.0866867 42.8302869,14.8893188 42.1982532,14.8893188 L42.1982532,14.8893188 L40.5519995,14.8893188 L40.5519995,19.8725732 L42.1982532,19.8725732 Z M42.1982532,19.2085957 L41.3836828,19.2085957 L41.3836828,15.556719 L42.1982532,15.556719 C42.5975525,15.556719 42.9147102,15.6919103 43.1497263,15.9622929 C43.3847424,16.2326755 43.5022505,16.5777841 43.5022505,16.9976188 L43.5022505,16.9976188 L43.5022505,17.7608507 C43.5022505,18.1852488 43.3847424,18.5326391 43.1497263,18.8030217 C42.9147102,19.0734043 42.5975525,19.2085957 42.1982532,19.2085957 L42.1982532,19.2085957 Z" id="EMQXCLOUD" fill-rule="nonzero"></path>
                    <g id="编组-58" transform="translate(14.817445, 0.000000)">
                        <path d="M11.202168,8.8342094 C10.9319921,8.8342094 10.712844,8.61506125 10.712844,8.34513187 C10.712844,8.07470947 10.9319921,7.85556132 11.202168,7.85556132 C12.7386701,7.85556132 13.9887267,6.60550479 13.9887267,5.06924916 C13.9887267,3.53250051 12.7386701,2.28244398 11.202168,2.28244398 C10.9319921,2.28244398 10.712844,2.06329583 10.712844,1.79336645 C10.712844,1.52294404 10.9319921,1.3037959 11.202168,1.3037959 C13.2782824,1.3037959 14.9673747,2.99288825 14.9673747,5.06924916 C14.9673747,7.14511704 13.2782824,8.8342094 11.202168,8.8342094" id="Fill-2"></path>
                        <path d="M3.76520675,8.8342094 C1.68909236,8.8342094 1.75156495e-15,7.14511704 1.75156495e-15,5.06924916 C1.75156495e-15,2.99288825 1.68909236,1.3037959 3.76520675,1.3037959 C4.03562916,1.3037959 4.25453079,1.52294404 4.25453079,1.79336645 C4.25453079,2.06329583 4.03562916,2.28244398 3.76520675,2.28244398 C2.22870461,2.28244398 0.978648082,3.53250051 0.978648082,5.06924916 C0.978648082,6.60550479 2.22870461,7.85556132 3.76520675,7.85556132 C4.03562916,7.85556132 4.25453079,8.07470947 4.25453079,8.34513187 C4.25453079,8.61506125 4.03562916,8.8342094 3.76520675,8.8342094" id="Fill-3"></path>
                        <path d="M6.10318963,10.1382518 C5.83276722,10.1382518 5.61386558,9.91910366 5.61386558,9.64892777 C5.61386558,9.37850536 5.83276722,9.15935721 6.10318963,9.15935721 C8.35851741,9.15935721 10.1935442,7.32457694 10.1935442,5.06924916 C10.1935442,2.81342835 8.35851741,0.978648082 6.10318963,0.978648082 C5.83276722,0.978648082 5.61386558,0.759499935 5.61386558,0.48907753 C5.61386558,0.219148147 5.83276722,4.99196011e-14 6.10318963,4.99196011e-14 C8.89812966,4.99196011e-14 11.1721923,2.27406261 11.1721923,5.06924916 C11.1721923,7.86394269 8.89812966,10.1382518 6.10318963,10.1382518" id="Fill-4"></path>
                    </g>
                </g>
                <path d="M133.097345,136.778761 C134.661337,136.778761 135.929204,137.856447 135.929204,139.185841 L135.928589,139.156446 C136.600779,139.339313 137.164846,139.733641 137.517409,140.249697 C137.733427,140.202196 137.960732,140.176991 138.19469,140.176991 C139.759395,140.176991 141.026549,141.304391 141.026549,142.696277 C141.026549,143.006178 140.962421,143.302722 140.849558,143.575221 L140.849558,143.575221 L121.946903,143.575221 C121.834039,143.302722 121.769912,143.006178 121.769912,142.696277 C121.769912,141.304391 123.037066,140.176991 124.60177,140.176991 C124.699222,140.176991 124.79552,140.181364 124.890429,140.189902 L124.890527,140.187626 L124.884956,140.035398 C124.884956,138.706005 126.152822,137.628319 127.716814,137.628319 C128.845633,137.628319 129.820191,138.189718 130.27513,139.001961 C130.383945,137.758628 131.606022,136.778761 133.097345,136.778761 Z" id="形状结合" fill="url(#linearGradient-22)" opacity="0.300000012"></path>
                <line x1="100.531067" y1="135.158436" x2="128.221618" y2="135.158436" id="路径-6备份-4" stroke="#00B173" stroke-dasharray="12,6"></line>
                <path d="M129.94295,140.176991 C129.669234,139.346223 129.519934,138.448789 129.519934,137.515457 C129.519934,133.310336 132.525836,129.900086 136.228469,129.900086 C136.470618,129.900086 136.709786,129.914671 136.945328,129.943111 C137.061087,125.956385 140.01885,122.763346 143.650679,122.763346 C146.164617,122.763346 148.355587,124.293245 149.504474,126.557428 L149.502806,126.47445 C149.502806,122.375277 152.506319,119.052241 156.211341,119.052241 C159.916363,119.052241 162.919877,122.375277 162.919877,126.47445 C162.919877,126.542714 162.919044,126.610763 162.917389,126.678584 C164.683234,127.147493 166.178389,128.390437 167.093427,130.065458 C167.542415,129.956888 168.008672,129.900086 168.486534,129.900086 C172.189168,129.900086 175.19507,133.310336 175.19507,137.515457 C175.19507,138.448789 175.04577,139.346223 174.77703,140.176991 L174.77703,140.176991 Z" id="形状结合备份" fill="url(#linearGradient-18)" fill-rule="nonzero"></path>
                <line x1="0.696332134" y1="135.30117" x2="222.725664" y2="135.221239" id="路径-6备份-7" stroke="#00B173" stroke-dasharray="12,6"></line>
                <g id="编组-2" transform="translate(4.000000, 14.000000)">
                    <g id="矩形">
                        <use fill="black" fill-opacity="1" filter="url(#filter-24)" xlink:href="#path-23"></use>
                        <use fill="#FFFFFF" fill-rule="evenodd" xlink:href="#path-23"></use>
                    </g>
                    <g id="编组-12备份" transform="translate(7.438461, 9.660858)">
                        <rect id="矩形" stroke="#074753" stroke-width="0.5" x="2.23803224" y="0" width="9.09145756" height="8.81280035"></rect>
                        <g id="编组-3备份-2" transform="translate(1.101600, 4.222800) rotate(-90.000000) translate(-1.101600, -4.222800) translate(-1.739480, 3.121200)" stroke="#074753" stroke-width="0.5">
                            <line x1="0.189405366" y1="0" x2="0.189405366" y2="2.20320009" id="路径-4"></line>
                            <line x1="2.84108049" y1="0" x2="2.84108049" y2="2.20320009" id="路径-4备份"></line>
                            <line x1="5.49275561" y1="0" x2="5.49275561" y2="2.20320009" id="路径-4备份-2"></line>
                        </g>
                        <g id="编组-3备份-3" transform="translate(12.465922, 4.222800) rotate(-90.000000) translate(-12.465922, -4.222800) translate(9.624842, 3.121200)" stroke="#074753" stroke-width="0.5">
                            <line x1="0.189405366" y1="0" x2="0.189405366" y2="2.20320009" id="路径-4"></line>
                            <line x1="2.84108049" y1="0" x2="2.84108049" y2="2.20320009" id="路径-4备份"></line>
                            <line x1="5.49275561" y1="0" x2="5.49275561" y2="2.20320009" id="路径-4备份-2"></line>
                        </g>
                        <g id="编组-7" transform="translate(2.139883, 1.101600)">
                            <polyline id="路径-5" stroke="#074753" stroke-width="0.5" points="-2.22058001e-13 2.61197728 3.97221214 2.61197728 5.73491065 0.890094056"></polyline>
                            <ellipse id="椭圆形" fill="#074753" cx="5.96971514" cy="0.550800022" rx="1" ry="1"></ellipse>
                        </g>
                        <g id="编组-7" transform="translate(8.060524, 6.446789) rotate(-180.000000) translate(-8.060524, -6.446789) translate(4.791559, 5.140800)">
                            <polyline id="路径-5" stroke="#074753" stroke-width="0.5" points="-2.22058001e-13 2.61197728 3.97221214 2.61197728 5.73491065 0.890094056"></polyline>
                            <ellipse id="椭圆形" fill="#074753" cx="5.96971514" cy="0.550800022" rx="1" ry="1"></ellipse>
                        </g>
                    </g>
                    <g id="矩形备份-4">
                        <use fill="black" fill-opacity="1" filter="url(#filter-26)" xlink:href="#path-25"></use>
                        <use fill="#FFFFFF" fill-rule="evenodd" xlink:href="#path-25"></use>
                    </g>
                    <g id="编组-12" transform="translate(10.343434, 51.202545)" stroke="#074753">
                        <rect id="矩形" stroke-width="0.5" x="0" y="0" width="8.08080808" height="10.7342861"></rect>
                        <rect id="矩形" stroke-width="0.5" x="0" y="-5.5358485e-15" width="8.08080808" height="9.00294967"></rect>
                        <ellipse id="椭圆形" cx="4.12904806" cy="9.76215645" rx="1" ry="1"></ellipse>
                        <line x1="3.03030303" y1="1.21193553" x2="5.05050505" y2="1.21193553" id="路径-7" stroke-width="0.5"></line>
                    </g>
                    <g id="矩形备份-6">
                        <use fill="black" fill-opacity="1" filter="url(#filter-28)" xlink:href="#path-27"></use>
                        <use fill="#FFFFFF" fill-rule="evenodd" xlink:href="#path-27"></use>
                    </g>
                    <g id="汽车" transform="translate(7.111111, 95.320461)" stroke="#074753" stroke-width="0.5">
                        <path d="M2.8360168,4.15985909 C2.05354889,4.15985909 1.4168837,4.79397527 1.4168837,5.57336022 C1.4168837,6.35301771 2.05354891,6.98714904 2.8360168,6.98714904 C3.61848469,6.98714904 4.2551499,6.35301771 4.2551499,5.57336022 C4.2551499,4.79397527 3.6184847,4.15985909 2.8360168,4.15985909 Z" id="路径"></path>
                        <path d="M14.2054964,5.07541269 L14.1356273,4.7263225 C14.0974325,4.52100204 14.0018165,4.46452377 13.8758787,4.40413897 L12.6724023,4.40413897 C12.9203413,4.72935083 13.0690166,5.13367768 13.0690166,5.57334509 C13.0690166,5.67450631 13.058879,5.7732297 13.0438625,5.87016639 L13.5856564,5.87016639 C14.1321467,5.87018153 14.2762776,5.58421677 14.2054964,5.07541269 Z" id="路径"></path>
                        <path d="M11.1216926,4.15985909 C10.3393919,4.15985909 9.70255948,4.79397527 9.70255948,5.57336022 C9.70255948,6.35301771 10.3393767,6.98714904 11.1216926,6.98714904 C11.9044797,6.98714904 12.5408561,6.35301771 12.5408561,5.57336022 C12.5408561,4.79397527 11.9044645,4.15985909 11.1216926,4.15985909 Z" id="路径"></path>
                        <path d="M1.74999719,3.96600085 C2.00121921,3.797202 2.29364535,3.68582019 2.60956893,3.64917745 L3.08439663,3.64917745 L3.08439663,3.65135784 C3.39159607,3.69062008 3.67620999,3.80142651 3.92141326,3.96600085 L5.81415816,3.96600085 L10.0321772,3.96600085 C10.3430244,3.75644073 10.71795,3.63382385 11.1216774,3.63382385 C11.52542,3.63382385 11.9005128,3.75642559 12.2114967,3.96600085 L13.6835219,3.96600085 L13.5210612,3.06402929 C13.3879952,2.51597811 13.1108135,2.36076129 12.3665403,2.26261328 C11.3687045,2.130654 9.66510947,1.87641095 9.66510947,1.87641095 C8.85627153,1.27731735 8.17293062,0.642868053 6.94337293,0.533575794 L6.86335092,0.373543945 C6.8556147,0.357826934 6.72013203,0 6.27866584,0 L3.50639308,0 C3.06910658,0 2.95739492,0.246096863 2.91071921,0.346198153 C2.87231169,0.428629169 2.82843257,0.523612596 2.82843257,0.523612596 C1.53280543,0.645305851 0.20521507,1.94132309 0.205503807,2.52984785 L0.208832398,3.96600085 L1.74999719,3.96600085 L1.74999719,3.96600085 Z M12.3771643,2.87198803 C12.4235361,2.87198803 12.8918434,2.87198803 13.1274866,2.87198803 C13.1693291,2.93933799 13.19538,3.01993687 13.2196373,3.11869056 L13.3154206,3.6501465 L12.9386559,3.6501465 C12.6532973,3.6501465 12.5232558,3.57465035 12.4017105,3.3587459 L12.2686596,3.09241982 C12.1875737,2.92754267 12.3147122,2.87198803 12.3771643,2.87198803 Z M9.02361103,2.03070412 L5.81417335,2.03070412 L5.49030076,2.03070412 L5.49030076,2.02729726 L3.69900827,2.02729726 L4.39125572,0.94121866 L6.36113485,0.942127152 C7.60552663,0.942127152 8.15399284,1.35612951 9.02361103,2.03070412 Z M3.19004392,0.475431945 C3.22738753,0.395272174 3.26862205,0.306799651 3.50639307,0.306799651 L6.27868102,0.306799651 C6.4701715,0.306799651 6.5490536,0.422466536 6.57905616,0.491436649 L6.58686837,0.508667814 L6.59012093,0.515163566 C5.86805331,0.515163566 4.25818966,0.51545126 3.1727628,0.512725769 L3.19004392,0.475431945 Z M2.9978695,0.94121866 L3.77744962,0.942127152 L3.08505018,2.02729726 L1.95955912,2.02729726 L1.95955912,2.03070412 L1.05785613,2.03070412 C1.31549206,1.65537348 2.1817665,0.94121866 2.9978695,0.94121866 Z M0.513311229,2.87198803 L1.04951195,2.87198803 C1.19621138,2.87198803 1.31549206,3.02900669 1.17636167,3.20625459 C1.11407672,3.28535445 0.813549582,3.64772386 0.813549582,3.64772386 L0.511502572,3.64772386 L0.513311229,2.87198803 Z" id="形状"></path>
                        <path d="M0.14473878,4.40415409 C0.0674525645,4.51405201 0.0057603645,4.63362544 0.00182386517,4.85710072 L5.27651889e-16,5.17837575 C5.27651889e-16,5.61802802 0.342977561,5.68416664 0.9096216,5.84088248 C0.897492901,5.75331845 0.889011948,5.66424026 0.889011948,5.57334508 C0.889011948,5.1339805 1.03571138,4.72904797 1.2828905,4.40413895 L0.14473878,4.40413895 L0.14473878,4.40415409 Z" id="路径"></path>
                        <path d="M4.38762319,4.40415409 C4.63525829,4.72906311 4.78302163,5.1336928 4.78302163,5.57336022 C4.78302163,5.67452143 4.7728688,5.772942 4.75801951,5.86957586 L9.20002423,5.86987869 C9.18500776,5.772942 9.17487011,5.67452141 9.17487011,5.57336022 C9.17487011,5.1336928 9.32354539,4.72936595 9.57118048,4.40415409 L4.38762319,4.40415409 Z" id="路径"></path>
                    </g>
                    <polyline id="路径-14" stroke="#00B173" stroke-width="0.5" points="28.3832938 14.5093473 49.7431216 14.5093473 49.7431216 52.647778 73.3125867 52.647778"></polyline>
                    <polygon id="三角形备份" fill="#00B173" transform="translate(29.605142, 57.820232) rotate(-90.000000) translate(-29.605142, -57.820232) " points="29.6051423 56.1188549 31.3001837 59.5216097 27.910101 59.5216097"></polygon>
                    <polygon id="三角形备份-2" fill="#00B173" transform="translate(29.605142, 14.596677) rotate(-90.000000) translate(-29.605142, -14.596677) " points="29.6051423 12.8953001 31.3001837 16.2980549 27.910101 16.2980549"></polygon>
                    <polygon id="三角形备份-3" fill="#00B173" transform="translate(29.605142, 100.196266) rotate(-90.000000) translate(-29.605142, -100.196266) " points="29.6051423 98.4948891 31.3001837 101.897644 27.910101 101.897644"></polygon>
                    <polygon id="三角形备份-4" fill="#00B173" transform="translate(72.990266, 62.057836) rotate(-270.000000) translate(-72.990266, -62.057836) " points="72.9902663 60.3564583 74.6853077 63.7592131 71.2952249 63.7592131"></polygon>
                    <polygon id="三角形备份-5" fill="#00B173" transform="translate(72.990266, 57.820232) rotate(-270.000000) translate(-72.990266, -57.820232) " points="72.9902663 56.1188549 74.6853077 59.5216097 71.2952249 59.5216097"></polygon>
                    <polygon id="三角形备份-6" fill="#00B173" transform="translate(72.990266, 52.735108) rotate(-270.000000) translate(-72.990266, -52.735108) " points="72.9902663 51.0337308 74.6853077 54.4364856 71.2952249 54.4364856"></polygon>
                    <polyline id="路径-14" stroke="#00B173" stroke-width="0.5" transform="translate(50.926544, 80.973899) scale(1, -1) translate(-50.926544, -80.973899) " points="28.3832938 61.9046833 49.81786 61.9046833 49.81786 100.043114 73.4697952 100.043114"></polyline>
                    <line x1="73.3125867" y1="57.6794747" x2="29.2525253" y2="57.8041309" id="路径-15" stroke="#00B173" stroke-width="0.5"></line>
                    <g id="编组-23" transform="translate(37.824806, 45.343702)">
                        <g id="Fill-87">
                            <use fill="black" fill-opacity="1" filter="url(#filter-30)" xlink:href="#path-29"></use>
                            <use stroke-opacity="0.312663899" stroke="#E7E5EE" stroke-width="1" fill="#FFFFFF" fill-rule="evenodd" xlink:href="#path-29"></use>
                        </g>
                        <path d="M24.1120886,12.0108061 C24.1120886,18.6441783 18.7144009,24.0222936 12.0560443,24.0222936 C5.3976877,24.0222936 0,18.6441783 0,12.0108061 C0,5.37743379 5.3976877,0 12.0560443,0 C18.7144009,0 24.1120886,5.37743379 24.1120886,12.0108061" id="Fill-87" stroke="#00B173" stroke-width="0.5" opacity="0.300000012"></path>
                        <g id="编组-19" transform="translate(7.820137, 6.817137)" stroke="#00B173" stroke-width="0.5">
                            <path d="M7.84484294,1.46330716 C6.25741073,1.2825535 5.06342959,0.849719386 4.29587028,0.177209465 L4.09364962,-1.42279029e-13 L3.8760426,0.156830377 C2.67239004,1.02294164 1.48236539,1.46109204 0.339379028,1.46109204 L-3.42903833e-13,1.46109204 L-3.42903833e-13,6.25017784 C-3.42903833e-13,7.71791523 1.28410122,9.04964436 3.92659777,10.3211223 L4.06551457,10.3880188 L4.20706904,10.3268816 C6.82099093,9.19495612 8.14597589,7.82379789 8.14597589,6.25017784 L8.14597589,1.497863 L7.84484294,1.46330716 Z" id="Stroke-117" stroke-linejoin="round"></path>
                            <polyline id="Stroke-119" stroke-linejoin="bevel" points="2.14622066 4.2256926 3.56264453 2.79827036 3.56264453 7.58957128"></polyline>
                            <polyline id="Stroke-121" stroke-linejoin="bevel" points="5.9996673 6.16219334 4.58324343 7.58961558 4.58324343 2.79831466"></polyline>
                        </g>
                    </g>
                </g>
                <g id="编组-66" transform="translate(156.318584, 19.539823)">
                    <g id="Fill-41">
                        <use fill="black" fill-opacity="1" filter="url(#filter-32)" xlink:href="#path-31"></use>
                        <use stroke-opacity="0.312663899" stroke="#E7E5EE" stroke-width="1" fill="#FFFFFF" fill-rule="evenodd" xlink:href="#path-31"></use>
                    </g>
                    <g id="aws" transform="translate(7.101436, 6.759920)" fill-rule="nonzero">
                        <path d="M2.55446437,1.97135175 C2.54426985,2.29205443 2.70455039,2.43406978 2.70851493,2.52426299 C2.70468519,2.56151119 2.68305018,2.59459692 2.65046279,2.61304028 L2.46922684,2.73990545 C2.44577279,2.75634753 2.4181244,2.76577647 2.38951134,2.76709084 C2.38342295,2.76680766 2.27354865,2.79300192 2.09953382,2.40447735 C1.88438327,2.67303981 1.5571065,2.82698168 1.21303517,2.82146162 C0.982525701,2.83406319 0.357828041,2.69063192 0.389969104,2.02558095 C0.367456201,1.48357219 0.872226635,1.14686978 1.39427112,1.17532949 C1.49480044,1.17561267 1.70010678,1.18056834 2.05960528,1.26410678 L2.05960528,1.04294229 C2.09769315,0.668293604 1.85146712,0.377608133 1.42513787,0.421218033 C1.39115613,0.421359624 1.15045213,0.414138504 0.776086628,0.564366114 C0.671875958,0.612223732 0.658566443,0.604294659 0.62387675,0.604294659 C0.518958127,0.604294659 0.562143255,0.300158083 0.582249118,0.261645444 C0.656017813,0.17102747 1.08999295,0.00182672167 1.51589743,0.00423376161 C1.80067122,-0.0209513406 2.0839181,0.0669370766 2.3044154,0.248902292 C2.48553855,0.451499036 2.57593165,0.719353165 2.55460596,0.990270593 L2.55446437,1.97135175 L2.55446437,1.97135175 Z M1.33083854,2.42996366 C1.7900168,2.4233089 1.98442068,2.14720726 2.02873853,1.99853715 C2.06356981,1.85623861 2.0577646,1.766187 2.0577646,1.61057894 C1.92084651,1.57772993 1.72375241,1.54190751 1.49763225,1.54162433 C1.28312251,1.525483 0.891341364,1.62133983 0.906633147,1.99839556 C0.889075915,2.23612615 1.06408188,2.44298999 1.33083854,2.42996366 L1.33083854,2.42996366 Z M3.75090481,2.75632996 C3.63961461,2.76652448 3.58779246,2.68751693 3.57136795,2.60950052 L2.86624684,0.278211543 C2.85251255,0.23884936 2.84345075,0.198212863 2.83906145,0.156726821 C2.83364541,0.121112103 2.85810608,0.0878430693 2.89371541,0.0823917643 C2.89711359,0.081825402 2.86355662,0.0823917643 3.20875446,0.0823917643 C3.333071,0.0699317929 3.3735659,0.167770887 3.38645065,0.229221201 L3.89221221,2.2232414 L4.36172659,0.229221201 C4.36923089,0.183629032 4.40335423,0.0724804234 4.54296254,0.0842324419 L4.78593199,0.0842324419 C4.81665714,0.0816838114 4.94323912,0.0771529127 4.96546885,0.231061878 L5.43866458,2.25056839 L5.96070907,0.231061878 C5.96750541,0.200195131 5.9992217,0.0700733835 6.14024593,0.0842324419 L6.41946256,0.0842324419 C6.43149776,0.0823917643 6.50654077,0.0727636046 6.49379762,0.205717164 C6.48770922,0.231911422 6.54208001,0.0547816003 5.74690728,2.6113412 C5.73062437,2.68935761 5.67866062,2.76836515 5.56737042,2.75817063 L5.30273762,2.75817063 C5.14783752,2.77445355 5.1256078,2.62139413 5.12320076,2.60596075 L4.65368638,0.664329067 L4.18955244,2.60397849 C4.18728699,2.61941186 4.16505727,2.77247128 4.01001558,2.75618836 L3.75090481,2.75618836 L3.75090481,2.75632996 Z M7.62312412,2.83604545 C7.53986886,2.83618704 7.14284886,2.83179774 6.81096053,2.66203063 C6.74334808,2.63340335 6.69968342,2.56681614 6.70037011,2.49339624 L6.70037011,2.34118636 C6.70037011,2.22154232 6.78816444,2.24348886 6.82540277,2.25778951 C6.96755971,2.31527528 7.05874405,2.35888518 7.23332524,2.39371647 C7.75225473,2.50033418 7.98049876,2.36115063 8.03642704,2.33028389 C8.22261866,2.21970164 8.23734408,1.96667926 8.11076209,1.83542479 C7.96237516,1.71096667 7.89157987,1.70629418 7.35849132,1.53808456 C7.29279329,1.51981938 6.73974046,1.34537978 6.73846615,0.796716264 C6.72982912,0.396864453 7.09315056,0.00126035933 7.72280389,0.00449697404 C7.90219916,0.00437535219 8.38020898,0.0629938542 8.50962277,0.225681436 C8.5287375,0.255273868 8.53822407,0.290105152 8.53680816,0.325361208 L8.53680816,0.468509289 C8.53680816,0.531375508 8.51387049,0.562808618 8.46785355,0.562808618 C8.35868721,0.550631828 8.16499129,0.404651935 7.77179423,0.410598739 C7.67423832,0.405501478 7.20698939,0.423483483 7.2279448,0.764150429 C7.2218564,1.03260618 7.60471734,1.13327708 7.64846883,1.14488751 C8.16470811,1.30021238 8.33730703,1.32598187 8.5421886,1.56371246 C8.78487487,1.87875151 8.65404517,2.24759498 8.60378051,2.34869066 C8.33362567,2.87951376 7.63501773,2.83632864 7.62312412,2.83604545 L7.62312412,2.83604545 Z" id="形状" fill="#000000"></path>
                        <path d="M8.19231827,4.32076432 C7.20075941,5.05307083 5.76134952,5.44286971 4.53234325,5.44286971 C2.87404174,5.45380558 1.27162652,4.84404232 0.0400987695,3.73344658 C-0.0523598823,3.65004973 0.0291962944,3.53578612 0.141619219,3.5993603 C1.50774931,4.38082122 3.05449555,4.79142553 4.62834166,4.79042029 C5.8036476,4.78411747 6.96613047,4.54569276 8.0490286,4.08883895 C8.21582231,4.01804365 8.3572713,4.1992796 8.19231827,4.32076432 L8.19231827,4.32076432 Z" id="路径" fill="#FF9900"></path>
                        <path d="M8.60562119,3.84940927 C8.47875602,3.68629691 7.7662722,3.77323353 7.44726861,3.8113214 C7.35112861,3.82222388 7.33484569,3.73882702 7.4219239,3.67723512 C7.98927737,3.27837444 8.92108501,3.39263804 9.02812749,3.52672433 C9.13502838,3.66081061 8.99910142,4.59445892 8.46799514,5.04046927 C8.38643896,5.10942388 8.30842255,5.0730351 8.34466974,4.98241713 C8.46417219,4.68153713 8.73248635,4.01266321 8.60562119,3.84940927 L8.60562119,3.84940927 Z" id="路径" fill="#FF9900"></path>
                    </g>
                </g>
                <g id="编组-68" transform="translate(147.907294, 103.043106)">
                    <line x1="-4.7788715e-14" y1="9.46959211" x2="8.718549" y2="9.46959211" id="路径-40备份-3" stroke="#00B173" stroke-width="0.5"></line>
                    <g id="编组-64" transform="translate(8.716265, -0.000000)">
                        <g id="Fill-41备份-2">
                            <use fill="black" fill-opacity="1" filter="url(#filter-34)" xlink:href="#path-33"></use>
                            <use stroke-opacity="0.312663899" stroke="#E7E5EE" stroke-width="1" fill="#FFFFFF" fill-rule="evenodd" xlink:href="#path-33"></use>
                        </g>
                        <g id="华为" transform="translate(8.473786, 5.983443)" fill="#EA020A" fill-rule="nonzero">
                            <path d="M2.90078473,0.104926877 C3.05817505,0.0484277895 3.21960101,0.0121069474 3.38506263,0 C3.55455989,0.250210246 3.61105898,0.55288393 3.69984326,0.839415018 C3.760378,1.15419565 3.80880578,1.46897628 3.81687708,1.78779256 C3.85723357,2.00975326 3.83301968,2.23171397 3.84109098,2.45771032 C3.85319792,2.65949277 3.82494838,2.86127523 3.83301968,3.06709333 C3.84109098,3.34958877 3.80073449,3.63208421 3.80477014,3.9186153 C3.76441364,4.10021951 3.79669884,4.28989502 3.74019975,4.46746358 C3.67159371,4.43114274 3.63930852,4.35850105 3.59491638,4.29796632 C3.2761001,3.82579537 2.98149771,3.34151747 2.70707357,2.84513263 C2.44475638,2.32049825 2.16629659,1.77568561 2.1420827,1.17840954 C2.12190445,0.706238597 2.45686333,0.254245895 2.90078473,0.104926877 Z M4.55943652,0.0242138947 C4.59979301,-1.89084859e-16 4.64418515,0.0282495439 4.68857729,0.032285193 C4.90650235,0.0807129825 5.14057,0.112998175 5.32620986,0.254245895 C5.49974277,0.399529263 5.66116873,0.573062176 5.72573912,0.795022877 C5.81855905,1.06137572 5.78223821,1.35194246 5.72573912,1.62233095 C5.64502614,1.96536112 5.49167147,2.28821305 5.3383168,2.60702933 C5.28988901,2.70388491 5.22128298,2.79266919 5.17689084,2.89356042 C5.08810656,3.09130723 4.97107273,3.27694709 4.85807456,3.4585513 C4.680506,3.76526063 4.48275919,4.05582737 4.28904803,4.35042976 C4.26079849,4.38271495 4.22447764,4.46342793 4.17604985,4.41096449 C4.14376466,4.08407691 4.11955077,3.76122498 4.10744382,3.4343374 C4.06305168,3.01866554 4.08726557,2.59895804 4.08322993,2.17925053 C4.11147947,1.90079074 4.11551512,1.62233095 4.14780031,1.34790681 C4.2123707,1.02101923 4.25676284,0.690096 4.35765407,0.371279719 C4.43029575,0.262317193 4.4424027,0.100891228 4.55943652,0.0242138947 L4.55943652,0.0242138947 Z M1.1896695,1.07348267 C1.23406164,1.05330442 1.25423989,1.10980351 1.28248943,1.1340174 C2.06136971,2.13485839 2.73532312,3.21641235 3.2922427,4.3544654 C3.33663484,4.44728533 3.39313392,4.54010526 3.40120522,4.64503214 C3.300314,4.62081825 3.21556536,4.56835481 3.12274543,4.52396267 C2.60618235,4.26164547 2.10172621,3.97511439 1.61341266,3.66033376 C1.43180845,3.53119298 1.24616859,3.40608786 1.08474263,3.25273319 C0.761890696,3.02673684 0.539929994,2.64335018 0.568179538,2.24382091 C0.600464731,1.78375691 0.886995819,1.3963346 1.1896695,1.07348267 Z M6.69429491,1.06944702 L6.75886529,1.06944702 C6.90414866,1.25912253 7.07364593,1.43669109 7.1785728,1.65461614 C7.29157098,1.85236295 7.34807007,2.0783593 7.36421266,2.30435565 C7.35210572,2.5545659 7.27139273,2.81284744 7.10593112,3.0065586 C6.99696859,3.10341418 6.91221996,3.220448 6.79922179,3.30519663 C6.19791007,3.78140323 5.51992101,4.15268295 4.83789631,4.50782007 C4.73700508,4.56028351 4.6401495,4.63292519 4.52715133,4.64503214 C4.54732957,4.50378442 4.63207821,4.39078625 4.68857729,4.26164547 C5.14864129,3.33344618 5.68538263,2.44560337 6.29880129,1.610224 C6.42390642,1.42861979 6.56918979,1.25508688 6.69429491,1.06944702 L6.69429491,1.06944702 Z M0.0274025558,3.19219846 C0.0435451523,3.15991326 0.0395095031,3.10341418 0.0839016435,3.09534288 C0.164614626,3.11148547 0.233220661,3.16394891 0.305862345,3.2043054 C1.27038249,3.72893979 2.23086698,4.26568112 3.15503063,4.85892154 C3.18731582,4.87506414 3.20345842,4.90734933 3.21556536,4.94367018 C2.60618235,4.95174147 1.99679933,4.95174147 1.39145196,4.94770583 C1.02420789,4.95174147 0.673106416,4.78224421 0.414824872,4.52799832 C0.19286417,4.28585937 0.0233669067,3.97915004 0.00318866104,3.64419116 C0.00318866104,3.49487214 -0.0129539355,3.34151747 0.0274025558,3.19219846 L0.0274025558,3.19219846 Z M7.69110024,3.16394891 C7.75163498,3.12762807 7.81216972,3.09130723 7.8848114,3.09937853 C7.89691835,3.24062625 7.92516789,3.38187397 7.92920354,3.52312168 C7.90498965,3.6966546 7.90902529,3.87825881 7.83234796,4.03968477 C7.76777757,4.18093249 7.70320719,4.32621586 7.59020901,4.43517839 C7.46913954,4.54817656 7.36824831,4.68538863 7.21489364,4.75803032 C7.04539638,4.88717109 6.82747133,4.92752758 6.61761757,4.93963453 C5.97998501,4.94367018 5.3383168,4.94367018 4.70068424,4.93963453 C4.71682684,4.90734933 4.73296943,4.87909979 4.76525463,4.86295719 C5.71363217,4.25357418 6.70236621,3.7047259 7.69110024,3.16394891 L7.69110024,3.16394891 Z M1.39145196,5.20598737 C1.73448214,5.16966653 2.08154796,5.20195172 2.42457814,5.16159523 C2.67075273,5.15352393 2.91692733,5.14141698 3.15906628,5.16159523 C3.09449589,5.26652211 2.97746207,5.3149499 2.88464214,5.38355593 C2.62636059,5.56919579 2.35193645,5.73062176 2.06540536,5.87186947 C1.78290992,6.01311719 1.4277728,5.96065376 1.18563385,5.76290695 C0.987887047,5.62569488 0.850674977,5.42794807 0.721534205,5.23020126 C0.943494907,5.20195172 1.16949126,5.22212997 1.39145196,5.20598737 Z M4.76121898,5.16159523 C5.00335793,5.14545263 5.24953252,5.15352393 5.49570712,5.16563088 C5.82663035,5.20195172 6.16562487,5.16966653 6.4965481,5.20598737 C6.73061575,5.22616562 6.9646834,5.20598737 7.19875105,5.23423691 C7.11803807,5.40373418 6.99293294,5.54901754 6.85572087,5.67815832 C6.64586712,5.89608337 6.32301519,6.0050459 6.0284128,5.94047551 C5.77013126,5.85976253 5.54413491,5.69833656 5.31410291,5.56516014 C5.18899778,5.48848281 5.07196396,5.40373418 4.94685884,5.32302119 C4.8782528,5.2745934 4.80561112,5.23020126 4.76121898,5.16159523 L4.76121898,5.16159523 Z" id="形状"></path>
                        </g>
                    </g>
                </g>
                <g id="编组-6" transform="translate(147.907294, 61.291464)">
                    <g id="编组-59" transform="translate(8.411290, -0.000000)">
                        <g id="Fill-41备份">
                            <use fill="black" fill-opacity="1" filter="url(#filter-36)" xlink:href="#path-35"></use>
                            <use stroke-opacity="0.312663899" stroke="#E7E5EE" stroke-width="1" fill="#FFFFFF" fill-rule="evenodd" xlink:href="#path-35"></use>
                        </g>
                        <g id="编组" transform="translate(8.495570, 6.835742)" fill="#FF6A00">
                            <path d="M1.46649257,3.69824926 C1.30354895,3.66691801 1.1731836,3.51021147 1.1731836,3.35355522 L1.1731836,1.47302641 C1.1731836,1.28498862 1.30354895,1.15961333 1.46649257,1.12823179 L3.29145065,0.720875242 L3.48702482,5.02909314e-06 L1.36870548,5.02909314e-06 C0.619196211,5.02909314e-06 0,0.564168699 0,1.31631987 L0,3.57292426 C0,4.26241293 0.586617945,4.8892391 1.36870548,4.8892391 L3.48702482,4.8892391 L3.29145065,4.13708793 L1.46649257,3.69824926 Z" id="Fill-1"></path>
                            <path d="M6.5703266,0 L4.45105984,0 L4.64375793,0.752151172 L6.44187838,1.15965859 C6.60242577,1.15965859 6.73087399,1.31631484 6.73087399,1.50440293 L6.73087399,3.38488144 C6.73087399,3.57291923 6.60242577,3.69824423 6.44187838,3.72962577 L4.64375793,4.1370829 L4.45105984,4.88923407 L6.5703266,4.88923407 C7.2767145,4.88923407 7.91890406,4.3250704 7.91890406,3.57291923 L7.91890406,1.28498359 C7.88680489,0.56416367 7.30881367,0 6.5703266,0" id="Fill-3"></path>
                            <polygon id="Fill-5" points="3.13480663 2.54231891 4.61000729 2.54231891 4.61000729 2.35791882 3.13480663 2.35791882"></polygon>
                        </g>
                    </g>
                    <line x1="8.09892959e-14" y1="10.5779754" x2="8.718549" y2="10.5779754" id="路径-40备份" stroke="#00B173" stroke-width="0.5"></line>
                </g>
                <line x1="147.907294" y1="32.0331091" x2="156.625843" y2="32.0331091" id="路径-40" stroke="#00B173" stroke-width="0.5"></line>
                <g id="Men-2" transform="translate(75.469027, 126.159292) scale(-1, 1) translate(-75.469027, -126.159292) translate(60.884956, 102.230088)">
                    <polygon id="Shape" fill="#FE9F9F" fill-rule="nonzero" points="6.79646018 43.3269305 6.23202181 45.5929204 3.96460177 45.0270519 4.52904013 42.7610619"></polygon>
                    <path d="M6.51327434,45.6732157 L6.09614458,47.4303727 C6.02433915,47.7328527 5.73266261,47.9169238 5.44466678,47.8415071 L0.812715371,46.6285498 C0.629092664,46.5804651 0.525600966,46.3503893 0.581560192,46.1146614 C0.799398303,45.1970195 1.49167873,45.2513116 2.34947035,45.164785 L4.04382995,45.0265487 L6.51327434,45.6732157 Z" id="Shape" fill="#211D41" fill-rule="nonzero"></path>
                    <polygon id="Shape" fill="#FE9F9F" fill-rule="nonzero" points="13.996957 43.3274336 14.4424779 45.5929204 12.0561404 45.5929204 11.6106195 43.3274336"></polygon>
                    <path d="M14.4424779,45.5929204 L14.4424779,47.3200712 C14.4424779,47.6173859 14.2014433,47.8584071 13.9041122,47.8584071 L9.12201662,47.8584071 C8.93244181,47.8584071 8.77876106,47.670575 8.77876106,47.4388725 C8.77876106,46.5369008 9.46417917,46.4193813 10.2779802,46.1314402 L11.8929867,45.5929204 L14.4424779,45.5929204 Z" id="Shape" fill="#211D41" fill-rule="nonzero"></path>
                    <path d="M11.0410893,23.6638236 C10.7961496,23.541854 9.89644328,23.3403134 9.24629255,23.5020686 C8.59614181,23.6638236 8.43797901,23.5179417 8.21238938,23.3512033 C8.70999177,22.9394752 9.50526585,22.7287988 10.5982116,22.7191741 C11.3894525,22.7191741 12.7874788,23.0323801 14.5926697,23.0323801 C16.3978605,23.0323801 17.6918801,22.7191741 21.9396451,21.8705906 L22.3265593,18.1238938 L26.0530973,18.4121017 L24.8698065,24.9168605 C22.0800085,25.1901742 19.8959085,25.2680594 18.3175068,25.1505165 C15.9499041,24.974202 14.9504849,24.5785861 13.3942012,24.5785861 C11.8379174,24.5785861 11.9671171,24.637323 11.3130806,24.9168605 C10.6590442,25.1963981 9.02658439,24.7040199 10.1708799,24.5030112 C10.72364,24.4059126 10.7301056,24.4405698 11.0410893,24.2263565 C11.352073,24.0121432 11.2860291,23.7857932 11.0410893,23.6638236 Z" id="Shape" fill="#211D41" fill-rule="nonzero"></path>
                    <path d="M7.26470694,44.7433628 L3.68141593,44.0567215 L5.57476218,29.3372192 C5.75283791,27.9527994 6.93585995,26.9157498 8.33712312,26.9157044 C22.1782481,26.9152567 29.1219209,26.9109067 29.1681416,26.9026549 L28.5933018,29.5008247 C27.9891312,32.2315651 25.4391462,34.087691 22.6436086,33.8315873 L10.5494609,32.723623 L7.26470694,44.7433628 Z" id="Shape" fill="#221E41" fill-rule="nonzero"></path>
                    <path d="M14.6327312,44.460177 L10.7731031,44.460177 L5.55800958,30.4065051 C5.02337698,28.9657732 5.73734786,27.3566548 7.15270818,26.8124385 C7.46203351,26.6935006 7.78995697,26.6325493 8.12061469,26.6325332 C21.9194675,26.6318592 28.8409145,26.6275044 28.8849558,26.619469 L28.8849558,28.3418966 C28.8849558,31.422078 26.4319476,33.9190585 23.4060086,33.9190585 L12.3097209,33.9190585 L14.6327312,44.460177 Z" id="Shape" fill="#2A377E" fill-rule="nonzero"></path>
                    <path d="M25.3060994,9.5401581 C23.9987846,8.99578256 22.4727061,9.59104623 20.7278638,11.3259491 C18.9830216,13.060852 18.7901876,18.3474826 20.1493618,27.1858407 C21.6185638,27.1858407 24.6248237,27.1858407 29.1681416,27.1858407 C29.1681416,24.8872412 29.1681416,22.1752554 29.1681416,19.0498832 C29.1681416,14.361825 28.883755,12.2724236 27.7209902,10.7352346 C26.9458136,9.71044191 26.1408499,9.31208308 25.3060994,9.5401581 Z" id="Shape" fill="url(#linearGradient-37)" fill-rule="nonzero"></path>
                    <path d="M8.73356946,23.506321 C8.66357792,23.506321 7.83077942,23.4913193 7.51639412,23.5457068 C7.2020088,23.6000942 7.35388542,23.8224899 8.12498179,23.7829237 C8.89607816,23.7433575 8.80356101,23.506321 8.73356946,23.506321 Z" id="Shape" fill="#FF7272" fill-rule="nonzero"></path>
                    <path d="M3.10187855,18.8259112 L7.36283186,26.619469 L5.14732307,26.6162238 L5.04175458,26.5892321 C4.96275254,26.5690329 4.89597599,26.5161418 4.85799643,26.4436845 L0.016582093,17.2072504 C0.00687112088,17.1887239 0.00128095074,17.1683003 0.000197971629,17.1473913 C-0.00393306014,17.0676339 0.0570859451,16.9996166 0.136487735,16.9954706 L0.21922478,16.9911504 L3.10187855,18.8259112 Z" id="Shape" fill="url(#linearGradient-38)"></path>
                    <polygon id="Shape" fill="#21313C" points="3.34430403 18.8196828 7.6460177 26.619469 5.35545246 26.3382436 0.283185841 16.9911504"></polygon>
                    <path d="M17.1186414,26.3362832 C17.1952931,26.3596548 17.2527022,26.4581285 17.2595144,26.577922 L17.2736675,26.8268077 C17.2751138,26.8522423 17.2742117,26.8778639 17.2709878,26.9029088 C17.2521347,27.0493722 17.1596964,27.1445794 17.0645212,27.1155599 L4.96985421,27.1858407 C4.89320259,27.1624692 4.83579338,27.0639954 4.82898122,26.9442019 L4.81482814,26.6953164 C4.81338178,26.6698818 4.81428395,26.6442602 4.8175078,26.6192153 C4.83636093,26.4727518 4.92879916,26.3775447 5.02397436,26.4065642 L17.1186414,26.3362832 Z" id="Shape" fill="url(#linearGradient-39)"></path>
                    <path d="M22.5170629,16.1415929 L20.6725664,23.4406783 C22.7197055,23.743943 23.7432751,23.8483876 23.7432751,23.7540122 C23.7432751,23.6596368 24.0412395,22.6246655 24.6371681,20.6490983 L22.5170629,16.1415929 Z" id="Shape" fill="#221E41" fill-rule="nonzero"></path>
                    <path d="M9.3181746,25.2479053 C9.3181746,25.1533828 8.75538282,25.4801891 8.39174227,25.6255433 C8.02810171,25.7708976 7.63810721,25.7664181 7.92001276,25.5518465 C8.20191831,25.3372751 8.55375309,25.1090959 8.93596385,24.8188967 C9.19077102,24.6254306 8.94593494,24.7138914 8.20145562,25.0842789 C7.89324887,25.2917888 7.0108926,25.8392402 7.37057368,25.342428 C7.61036107,25.0112199 8.10958519,24.587565 8.86035042,24.1863239 C8.21052517,24.293408 7.67626587,24.9733542 7.3077887,25.0220212 C7.06213726,25.0544659 7.01486375,24.9714634 7.16596816,24.7730137 C7.74224304,24.1510744 8.3322416,23.7496471 8.93596385,23.5687315 C9.73716475,23.5687315 11.0517224,23.5687315 12.8796369,23.5687315 C14.7075513,23.5687315 17.99348,23.2858703 22.7374229,22.7201481 L23.1292074,18.9734513 L26.9026549,19.2616592 L25.7044688,25.7664181 C22.8795531,26.0397317 20.6679598,26.117617 19.0696893,26.000074 C16.6722834,25.8237595 13.4615796,25.3970115 11.8328712,25.342428 C10.2041629,25.2878445 10.0997676,25.4868805 9.43749823,25.7664181 C8.77522883,26.0459556 8.09951699,26.0072669 8.80777624,25.6255433 C9.14556601,25.4434881 9.3181746,25.342428 9.3181746,25.2479053 Z" id="Shape" fill="#FE9F9F" fill-rule="nonzero"></path>
                    <path d="M25.4821233,8.43937801 C24.9268186,7.41245974 24.5315884,6.6354034 24.2964329,6.108209 C24.0612773,5.58101459 23.8281767,4.99029171 23.5971308,4.33604037 C23.7379291,3.19046748 23.3396208,2.45688625 22.4022062,2.13529667 C20.9960844,1.65291229 18.6897858,2.40996604 18.0889665,3.03720723 C17.4881471,3.66444842 17.2801895,5.2739097 18.0889665,6.23523805 L17.8968947,7.37830639 C18.1513823,7.56248303 18.3980081,7.59898705 18.6367722,7.48781844 C19.0169606,8.05036225 19.2936313,8.40353743 19.4667842,8.547344 C19.7265136,8.76305385 20.3334473,9.41666089 21.6845821,8.77745999 C21.9930213,9.35152939 22.225494,9.77385988 22.382,10.0444514 C22.5659017,10.3624091 21.3537949,10.8063156 22.382,11.6982212 C23.06747,12.292825 24.2911692,11.531668 26.0530973,9.41475034 L25.4821233,8.43937801 Z" id="Shape" fill="#FE9F9F" fill-rule="nonzero"></path>
                    <path d="M24.51345,7.98062944 C23.6078994,8.47010235 23.0104935,8.61063018 22.7212325,8.40221293 C22.287341,8.08958706 21.8290755,7.3490577 21.7349102,7.08602712 C21.6407448,6.82299656 21.9673824,6.76622805 22.1801148,6.64264279 C22.3928472,6.51905753 22.4460882,5.8444151 22.0174331,5.60946736 C21.5887779,5.37451963 21.3165177,5.60849472 21.2047996,5.75933198 C21.0930814,5.91016922 20.6319232,5.93738187 20.4154034,5.28162308 C20.1988835,4.6258643 20.1513254,3.92149353 19.7640723,4.14646527 C19.3768193,4.37143701 17.0629546,5.38113743 16.0963362,3.96247045 C15.1297179,2.54380348 15.5017737,1.20563396 17.2631778,1.0858106 C19.024582,0.965987229 19.4304,0.64622727 20.601081,0.283328715 C21.771762,-0.0795698396 22.9688518,-0.385635003 24.2360738,1.31659667 C25.5032957,3.01882834 25.3127524,4.37038302 24.8597502,5.51856276 C24.4067479,6.6667425 24.7144756,6.75916405 24.807724,7.19008139 C24.8698896,7.47735961 24.7717982,7.74087562 24.51345,7.98062944 Z" id="Shape" fill="#221E41" fill-rule="nonzero"></path>
                    <path d="M22.9176379,15.2920354 L22.6548673,19.6210447 C25.5474387,20.1332685 26.9937244,20.3893805 26.9937244,20.3893805 L27.1858407,15.8817529" id="Shape" fill="url(#linearGradient-40)" fill-rule="nonzero"></path>
                    <path d="M11.8694796,42.7331203 L11.7590364,42.7610619 L11.5625574,41.9914503 L11.6730006,41.9635086 L11.8694796,42.7331203 Z M11.3923165,40.8640634 L11.2818732,40.8920051 L11.0853943,40.1223935 L11.1958375,40.0944518 L11.3923165,40.8640634 Z M10.9151534,38.9950066 L10.8047101,39.0229482 L10.6082312,38.2533365 L10.7186745,38.2253949 L10.9151534,38.9950066 Z M10.4379903,37.1259497 L10.3275471,37.1538914 L10.1310681,36.3842797 L10.2415114,36.3563381 L10.4379903,37.1259497 Z M9.96082721,35.2568928 L9.85038397,35.2848344 L9.65390505,34.5152229 L9.76434829,34.4872811 L9.96082721,35.2568928 Z M9.48366412,33.387836 L9.37322088,33.4157776 L9.17674197,32.646166 L9.28718521,32.6182243 L9.48366412,33.387836 Z M9.17092508,31.5307347 L9.0619469,31.4975789 C9.14461474,31.2283101 9.32088074,30.9952894 9.55921791,30.8427132 L9.62085413,30.9381267 C9.40528746,31.076126 9.24573983,31.2870453 9.17092508,31.5307347 Z M10.6948887,30.7708635 L10.6957892,30.6574274 L11.4934432,30.6637028 L11.4925427,30.7771389 L10.6948887,30.7708635 Z M12.6320484,30.7861035 L12.632949,30.6726676 L13.4306029,30.6789428 L13.4297024,30.7923789 L12.6320484,30.7861035 Z M14.5692081,30.8013437 L14.5701087,30.6879076 L15.3677627,30.694183 L15.3668622,30.807619 L14.5692081,30.8013437 Z M16.5063678,30.8165837 L16.5072684,30.7031478 L17.3049224,30.709423 L17.3040219,30.8228591 L16.5063678,30.8165837 Z M18.4435276,30.8318239 L18.4444281,30.7183878 L19.2420822,30.7246632 L19.2411816,30.8380992 L18.4435276,30.8318239 Z M20.3806874,30.8470639 L20.3815879,30.733628 L21.1792419,30.7399032 L21.1783414,30.8533393 L20.3806874,30.8470639 Z M22.3256599,30.8352728 L22.3092048,30.7230222 C22.5681028,30.6854116 22.8178458,30.6025697 23.0471734,30.478804 L23.1014844,30.5785308 C22.8604028,30.70864 22.5978486,30.7957315 22.3256599,30.8352728 Z M23.9507117,29.7954521 L23.8549729,29.7339281 C23.8597131,29.7266183 23.8644115,29.7192786 23.869065,29.7119137 L24.2795047,29.0622107 L24.3759689,29.1226014 L23.9655266,29.7723085 C23.9606325,29.7800542 23.9556941,29.7877688 23.9507117,29.7954521 Z M24.9826149,28.1623148 L24.8861507,28.1019241 L25.1070756,27.7522124 L25.2035398,27.812603 L24.9826149,28.1623148 Z" id="Shape" fill="#A587FF" fill-rule="nonzero"></path>
                </g>
                <g id="Men" transform="translate(185.769912, 91.752212)" fill-rule="nonzero">
                    <polygon id="Shape" fill="#FE9F9F" points="20.9557522 47.8584071 20.9557522 49.5575221 19.2566372 49.5575221 19.2566372 47.8584071"></polygon>
                    <path d="M21.5221239,49.5575221 L21.5221239,50.8530259 C21.5221239,51.0759343 21.3291745,51.2566372 21.0911594,51.2566372 L17.2657549,51.2566372 C17.114095,51.2566372 16.9911504,51.1157631 16.9911504,50.9419862 C16.9911504,50.2655074 17.5394849,50.1773678 18.1905258,49.961412 L19.482531,49.5575221 L21.5221239,49.5575221 Z" id="Shape" fill="#211D41"></path>
                    <polygon id="Shape" fill="#FE9F9F" points="9.91150442 40.7787611 9.91150442 42.4778761 8.21238938 42.4778761 8.21238938 40.7787611"></polygon>
                    <path d="M9.91150442,42.1946903 L9.91150442,43.490194 C9.91150442,43.7131024 9.71855507,43.8938053 9.48053995,43.8938053 L5.65513543,43.8938053 C5.50347558,43.8938053 5.38053097,43.7529313 5.38053097,43.5791543 C5.38053097,42.9026755 5.92886547,42.8145359 6.5799063,42.5985801 L7.87191154,42.1946903 L9.91150442,42.1946903 Z" id="Shape" fill="#211D41"></path>
                    <polygon id="Shape" fill="#212D6F" points="19.0631902 49.2743363 15.0088496 23.9420687 22.6548673 23.7876106 21.5468401 49.2743363"></polygon>
                    <path d="M7.51142807,41.6283186 L7.08102943,31.1204919 C7.06083651,30.6274985 7.26253528,30.1511089 7.6314941,29.8203568 L14.2070241,23.9257405 L22.6548673,23.7876106 C22.4958275,27.0838835 20.2906831,29.9355687 17.1232276,30.9411085 L11.5219168,32.7192993 L10.1327007,41.6283186 L7.51142807,41.6283186 Z" id="Shape" fill="#2A377E"></path>
                    <path d="M17.7427429,8.77876106 C17.7500211,7.45584859 17.5382084,6.74105298 17.107305,6.63437422 C16.4609498,6.4743561 16.2363405,6.02173629 16.2765459,5.44628974 C16.2848822,5.32697488 16.3048153,5.07941159 16.336345,4.70359986 L15.8584071,4.49383377 L16.6418809,2.09517985 C19.2812722,1.70367296 20.7000792,2.3305864 20.898302,3.97592018 C21.0965248,5.62125395 20.7817955,6.87466333 19.9541142,7.73614828 L19.9188219,8.73966257 L17.7427429,8.77876106 Z" id="Shape" fill="#FE9F9F"></path>
                    <path d="M14.159292,7.4735546 L13.4126228,11.0442478 L8.26018866,9.1270574 L2.79661619,2.84048333 C1.80907803,2.86553692 1.09035201,2.71024935 0.640438106,2.37462062 C0.190524206,2.03899189 -0.0223380778,1.39212132 0.00185125439,0.434008901 L1.74751665,0.811176455 L1.91714212,0 L2.42283123,1.03834585 L8.94870357,6.34775758 L14.159292,7.4735546 Z" id="Shape" fill="#FE9F9F"></path>
                    <path d="M20.0373609,7.92920354 C19.3198124,7.93226031 18.9058435,7.82207741 18.7954544,7.59859039 C18.6298707,7.26335983 18.5886477,6.65676825 18.6162896,6.46389681 C18.6439316,6.27102537 18.8637368,6.34361815 19.0351044,6.33759354 C19.2064719,6.33156893 19.4590397,5.93391248 19.2713809,5.64820983 C19.0837219,5.36250717 18.8397084,5.41687054 18.7217212,5.47292015 C18.6037341,5.52896976 18.3106483,5.39390392 18.3908056,4.91906365 C18.4709628,4.44422339 18.6710895,3.9950887 18.359136,4.00605576 C18.0471826,4.01702283 16.2922038,3.8766829 16.1585647,2.68540768 C16.0249256,1.49413246 16.6901193,0.793086675 17.8147413,1.29919854 C18.9393632,1.8053104 19.2936344,1.74212109 20.1333589,1.9041759 C20.9730833,2.06623071 21.8105715,2.27195532 22.0371124,3.73669821 C22.2636532,5.20144111 21.7059695,5.97047803 21.0527729,6.52795421 C20.3995762,7.08543039 20.5591306,7.24361145 20.4762369,7.53950064 C20.4209745,7.73676009 20.2746826,7.86663956 20.0373609,7.92920354 Z" id="Shape" fill="#221E41"></path>
                    <path d="M17.7808071,8.51175392 C17.9836644,8.51175392 18.3871793,8.50454398 18.9913518,8.49012411 C20.967995,8.44294735 22.6077706,10.0437207 22.6538931,12.0655516 C22.6545425,12.0940205 22.6548673,12.1224961 22.6548673,12.1509728 L22.6548673,24.0707965 L14.3348033,24.0707965 L14.8973952,12.4380271 L11.6106195,10.8417063 L12.2927642,7.07964602 C15.7431757,8.03438463 17.5725234,8.51175392 17.7808071,8.51175392 Z" id="Shape" fill="url(#linearGradient-41)"></path>
                    <path d="M18.4070796,25.5604906 L17.8830656,25.8801572 L17.8367215,25.8063924 L18.3607355,25.4867257 L18.4070796,25.5604906 Z M17.134474,26.3368239 L16.61046,26.6564906 L16.5641159,26.5827256 L17.0881299,26.263059 L17.134474,26.3368239 Z M15.8618684,27.1131573 L15.3378543,27.4328239 L15.2915102,27.359059 L15.8155243,27.0393923 L15.8618684,27.1131573 Z M14.5892628,27.8894905 L14.0652487,28.2091572 L14.0189046,28.1353922 L14.5429187,27.8157256 L14.5892628,27.8894905 Z M13.3166572,28.6658239 L12.7926431,28.9854905 L12.746299,28.9117256 L13.2703131,28.5920589 L13.3166572,28.6658239 Z M12.0440516,29.4421571 L11.5200375,29.7618238 L11.4736934,29.6880589 L11.9977075,29.3683922 L12.0440516,29.4421571 Z M10.771446,30.2184905 L10.4327181,30.4251261 C10.3718448,30.4622609 10.3126626,30.5017831 10.2552889,30.5435914 L10.2029391,30.4738366 C10.2622564,30.4306118 10.3234422,30.3897518 10.386374,30.3513612 L10.7251019,30.1447255 L10.771446,30.2184905 Z M9.65604074,31.1563634 C9.54165033,31.3211905 9.44715961,31.4987142 9.3745906,31.6852391 L9.29238134,31.6541832 C9.3674095,31.4613373 9.46510069,31.2778008 9.58336589,31.1073905 L9.65604074,31.1563634 Z M9.20372686,32.5208783 L9.17808567,33.1276487 L9.09011836,33.1240392 L9.11575955,32.5172688 L9.20372686,32.5208783 Z M9.14145541,33.9944635 L9.11581423,34.601234 L9.02784692,34.5976245 L9.05348811,33.9908541 L9.14145541,33.9944635 Z M9.07918397,35.4680489 L9.05354278,36.0748193 L8.96557548,36.0712098 L8.99121667,35.4644394 L9.07918397,35.4680489 Z M9.01691253,36.9416342 L8.99127134,37.5484046 L8.90330404,37.5447952 L8.92894522,36.9380247 L9.01691253,36.9416342 Z M8.95464109,38.4152195 L8.9289999,39.0219899 L8.84103259,39.0183804 L8.86667378,38.41161 L8.95464109,38.4152195 Z M8.89236964,39.8888048 L8.86672846,40.4955752 L8.77876106,40.4919658 L8.80440225,39.8851954 L8.89236964,39.8888048 Z" id="Shape" fill="#A587FF"></path>
                </g>
            </g>
        </g>
    </g>
</svg>