<?xml version="1.0" encoding="UTF-8"?>
<svg width="220px" height="150px" viewBox="0 0 220 150" version="1.1" xmlns="http://www.w3.org/2000/svg" xmlns:xlink="http://www.w3.org/1999/xlink">
    <title>首页</title>
    <defs>
        <radialGradient cx="92.2057643%" cy="88.7492669%" fx="92.2057643%" fy="88.7492669%" r="71.9117852%" id="radialGradient-1">
            <stop stop-color="#B0A2FF" offset="0%"></stop>
            <stop stop-color="#8AC0FF" stop-opacity="0" offset="100%"></stop>
        </radialGradient>
        <filter x="-167.8%" y="-167.8%" width="435.6%" height="435.6%" filterUnits="objectBoundingBox" id="filter-2">
            <feGaussianBlur stdDeviation="33" in="SourceGraphic"></feGaussianBlur>
        </filter>
        <linearGradient x1="0%" y1="49.996735%" x2="100%" y2="50.003265%" id="linearGradient-3">
            <stop stop-color="#00B173" offset="0%"></stop>
            <stop stop-color="#47D8C4" offset="99.9098558%"></stop>
        </linearGradient>
        <linearGradient x1="50%" y1="0%" x2="50%" y2="100%" id="linearGradient-4">
            <stop stop-color="#FFFFFF" offset="0%"></stop>
            <stop stop-color="#FFFFFF" offset="100%"></stop>
        </linearGradient>
        <path d="M18.5918008,6.00026239 C17.9196072,2.59994377 15.0460441,-8.60331015e-14 11.5,-8.60331015e-14 C8.72127399,-8.60331015e-14 6.32448271,1.59865055 5.17522991,4.00007497 C2.2042433,4.40191172 0,6.90229594 0,10.0000375 C0,13.3013963 2.58646541,16 5.75,16 L18.2095787,16 C20.8934676,16 23,13.801893 23,11.0013307 C22.9974135,8.40168681 20.9857182,6.20088089 18.5918008,6.00026239" id="path-5"></path>
        <filter x="-15.2%" y="-15.6%" width="130.4%" height="143.8%" filterUnits="objectBoundingBox" id="filter-6">
            <feOffset dx="0" dy="1" in="SourceAlpha" result="shadowOffsetOuter1"></feOffset>
            <feGaussianBlur stdDeviation="1" in="shadowOffsetOuter1" result="shadowBlurOuter1"></feGaussianBlur>
            <feColorMatrix values="0 0 0 0 0.168627451   0 0 0 0 0.219607843   0 0 0 0 0.37254902  0 0 0 0.172913024 0" type="matrix" in="shadowBlurOuter1"></feColorMatrix>
        </filter>
        <path d="M53.3644354,5.39666191 C52.6922418,1.99634329 49.8186787,-0.603600484 46.2726346,-0.603600484 C43.4939086,-0.603600484 41.0971173,0.995050064 39.9478645,3.39647449 C36.9768779,3.79831124 34.7726346,6.29869546 34.7726346,9.396437 C34.7726346,12.6977958 37.3591,15.3963995 40.5226346,15.3963995 L52.9822133,15.3963995 C55.6661022,15.3963995 57.7726346,13.1982925 57.7726346,10.3977302 C57.7700482,7.79808633 55.7583528,5.59728041 53.3644354,5.39666191" id="path-7"></path>
        <filter x="-15.2%" y="-15.6%" width="130.4%" height="143.8%" filterUnits="objectBoundingBox" id="filter-8">
            <feOffset dx="0" dy="1" in="SourceAlpha" result="shadowOffsetOuter1"></feOffset>
            <feGaussianBlur stdDeviation="1" in="shadowOffsetOuter1" result="shadowBlurOuter1"></feGaussianBlur>
            <feColorMatrix values="0 0 0 0 0.168627451   0 0 0 0 0.219607843   0 0 0 0 0.37254902  0 0 0 0.172913024 0" type="matrix" in="shadowBlurOuter1"></feColorMatrix>
        </filter>
        <linearGradient x1="50%" y1="100%" x2="50%" y2="3.061617e-15%" id="linearGradient-9">
            <stop stop-color="#65C9D3" stop-opacity="0" offset="0%"></stop>
            <stop stop-color="#42D7E6" offset="100%"></stop>
        </linearGradient>
        <linearGradient x1="50%" y1="0%" x2="50%" y2="98.9862084%" id="linearGradient-10">
            <stop stop-color="#9494FF" offset="0%"></stop>
            <stop stop-color="#6FCBFF" stop-opacity="0" offset="100%"></stop>
        </linearGradient>
        <linearGradient x1="4.17372197%" y1="40.2928814%" x2="91.8452024%" y2="59.1524207%" id="linearGradient-11">
            <stop stop-color="#F7F9FF" offset="0%"></stop>
            <stop stop-color="#F7F8FF" offset="100%"></stop>
        </linearGradient>
        <linearGradient x1="33.5393711%" y1="0%" x2="66.0307676%" y2="98.6942745%" id="linearGradient-12">
            <stop stop-color="#275693" offset="0%"></stop>
            <stop stop-color="#05444F" offset="100%"></stop>
        </linearGradient>
        <rect id="path-13" x="0.365519514" y="0.266324573" width="70" height="122" rx="4"></rect>
        <linearGradient x1="79.8543647%" y1="100%" x2="20.4074722%" y2="0%" id="linearGradient-15">
            <stop stop-color="#866DFF" offset="0%"></stop>
            <stop stop-color="#4D6BFF" offset="100%"></stop>
        </linearGradient>
        <filter x="-130.4%" y="-104.2%" width="360.9%" height="308.3%" filterUnits="objectBoundingBox" id="filter-16">
            <feGaussianBlur stdDeviation="50" in="SourceGraphic"></feGaussianBlur>
        </filter>
        <linearGradient x1="100%" y1="50%" x2="0%" y2="50%" id="linearGradient-17">
            <stop stop-color="#F99C1F" offset="0%"></stop>
            <stop stop-color="#EE0F77" offset="100%"></stop>
        </linearGradient>
        <filter x="-789.5%" y="-428.6%" width="1678.9%" height="957.1%" filterUnits="objectBoundingBox" id="filter-18">
            <feGaussianBlur stdDeviation="50" in="SourceGraphic"></feGaussianBlur>
        </filter>
        <linearGradient x1="96.8098379%" y1="50.6910395%" x2="3.60070645%" y2="49.3089605%" id="linearGradient-19">
            <stop stop-color="#866DFF" offset="0%"></stop>
            <stop stop-color="#4D6BFF" offset="100%"></stop>
        </linearGradient>
        <linearGradient x1="96.8098379%" y1="58.4652606%" x2="3.60070645%" y2="41.5347394%" id="linearGradient-20">
            <stop stop-color="#866DFF" offset="0%"></stop>
            <stop stop-color="#4D6BFF" offset="100%"></stop>
        </linearGradient>
        <linearGradient x1="96.8098379%" y1="57.6363366%" x2="3.60070645%" y2="42.3636634%" id="linearGradient-21">
            <stop stop-color="#866DFF" offset="0%"></stop>
            <stop stop-color="#4D6BFF" offset="100%"></stop>
        </linearGradient>
        <linearGradient x1="96.8098379%" y1="50.0025474%" x2="3.60070645%" y2="49.9974526%" id="linearGradient-22">
            <stop stop-color="#866DFF" offset="0%"></stop>
            <stop stop-color="#4D6BFF" offset="100%"></stop>
        </linearGradient>
        <linearGradient x1="96.8098379%" y1="58.7665842%" x2="3.60070645%" y2="41.2334158%" id="linearGradient-23">
            <stop stop-color="#866DFF" offset="0%"></stop>
            <stop stop-color="#4D6BFF" offset="100%"></stop>
        </linearGradient>
        <linearGradient x1="96.8098379%" y1="54.9480694%" x2="3.60070645%" y2="45.0519306%" id="linearGradient-24">
            <stop stop-color="#866DFF" offset="0%"></stop>
            <stop stop-color="#4D6BFF" offset="100%"></stop>
        </linearGradient>
        <linearGradient x1="96.8098379%" y1="54.9480694%" x2="3.60070645%" y2="45.0519306%" id="linearGradient-25">
            <stop stop-color="#866DFF" offset="0%"></stop>
            <stop stop-color="#4D6BFF" offset="100%"></stop>
        </linearGradient>
        <linearGradient x1="96.8098379%" y1="58.8967906%" x2="3.60070645%" y2="41.1032094%" id="linearGradient-26">
            <stop stop-color="#866DFF" offset="0%"></stop>
            <stop stop-color="#4D6BFF" offset="100%"></stop>
        </linearGradient>
        <linearGradient x1="96.8098379%" y1="55.615121%" x2="3.60070645%" y2="44.384879%" id="linearGradient-27">
            <stop stop-color="#866DFF" offset="0%"></stop>
            <stop stop-color="#4D6BFF" offset="100%"></stop>
        </linearGradient>
        <linearGradient x1="96.8098379%" y1="57.7522776%" x2="3.60070645%" y2="42.2477224%" id="linearGradient-28">
            <stop stop-color="#866DFF" offset="0%"></stop>
            <stop stop-color="#4D6BFF" offset="100%"></stop>
        </linearGradient>
        <linearGradient x1="96.8098379%" y1="54.9398901%" x2="3.60070645%" y2="45.0601099%" id="linearGradient-29">
            <stop stop-color="#866DFF" offset="0%"></stop>
            <stop stop-color="#4D6BFF" offset="100%"></stop>
        </linearGradient>
        <linearGradient x1="96.8098379%" y1="50.0213221%" x2="3.60070645%" y2="49.9786779%" id="linearGradient-30">
            <stop stop-color="#A08CFF" offset="0%"></stop>
            <stop stop-color="#7990FF" offset="100%"></stop>
        </linearGradient>
        <linearGradient x1="93.9105486%" y1="100%" x2="6.47456764%" y2="0%" id="linearGradient-31">
            <stop stop-color="#A08CFF" offset="0%"></stop>
            <stop stop-color="#7990FF" offset="100%"></stop>
        </linearGradient>
        <linearGradient x1="96.8098379%" y1="56.1723886%" x2="100%" y2="43.8276114%" id="linearGradient-32">
            <stop stop-color="#866DFF" stop-opacity="0" offset="0%"></stop>
            <stop stop-color="#4D6BFF" offset="100%"></stop>
        </linearGradient>
        <rect id="path-33" x="13.2668037" y="30.119534" width="24.1777778" height="24.1777778" rx="2"></rect>
        <filter x="-14.5%" y="-10.3%" width="129.0%" height="129.0%" filterUnits="objectBoundingBox" id="filter-34">
            <feOffset dx="0" dy="1" in="SourceAlpha" result="shadowOffsetOuter1"></feOffset>
            <feGaussianBlur stdDeviation="1" in="shadowOffsetOuter1" result="shadowBlurOuter1"></feGaussianBlur>
            <feColorMatrix values="0 0 0 0 0.168627451   0 0 0 0 0.219607843   0 0 0 0 0.37254902  0 0 0 0.174934441 0" type="matrix" in="shadowBlurOuter1"></feColorMatrix>
        </filter>
        <linearGradient x1="52.0301684%" y1="0%" x2="48.0562783%" y2="97.7222783%" id="linearGradient-35">
            <stop stop-color="#5A64A9" offset="0%"></stop>
            <stop stop-color="#101B63" offset="100%"></stop>
        </linearGradient>
        <linearGradient x1="100%" y1="50%" x2="0%" y2="50%" id="linearGradient-36">
            <stop stop-color="#65C9D3" offset="0%"></stop>
            <stop stop-color="#42D7E6" offset="100%"></stop>
        </linearGradient>
        <linearGradient x1="100.754211%" y1="45.0989398%" x2="1.40695755%" y2="54.6777952%" id="linearGradient-37">
            <stop stop-color="#5A64A9" offset="0%"></stop>
            <stop stop-color="#101B63" offset="100%"></stop>
        </linearGradient>
        <linearGradient x1="99.6758481%" y1="0%" x2="2.43940213%" y2="97.7222783%" id="linearGradient-38">
            <stop stop-color="#5A64A9" offset="0%"></stop>
            <stop stop-color="#101B63" offset="100%"></stop>
        </linearGradient>
        <linearGradient x1="100.754211%" y1="42.9399789%" x2="1.40695755%" y2="56.7384058%" id="linearGradient-39">
            <stop stop-color="#5A64A9" offset="0%"></stop>
            <stop stop-color="#101B63" offset="100%"></stop>
        </linearGradient>
        <linearGradient x1="84.4849284%" y1="0%" x2="16.9834764%" y2="97.7222783%" id="linearGradient-40">
            <stop stop-color="#5A64A9" offset="0%"></stop>
            <stop stop-color="#101B63" offset="100%"></stop>
        </linearGradient>
        <rect id="path-41" x="13.2668037" y="66.3862007" width="24.1777778" height="24.1777778" rx="2"></rect>
        <filter x="-14.5%" y="-10.3%" width="129.0%" height="129.0%" filterUnits="objectBoundingBox" id="filter-42">
            <feOffset dx="0" dy="1" in="SourceAlpha" result="shadowOffsetOuter1"></feOffset>
            <feGaussianBlur stdDeviation="1" in="shadowOffsetOuter1" result="shadowBlurOuter1"></feGaussianBlur>
            <feColorMatrix values="0 0 0 0 0.168627451   0 0 0 0 0.219607843   0 0 0 0 0.37254902  0 0 0 0.174934441 0" type="matrix" in="shadowBlurOuter1"></feColorMatrix>
        </filter>
        <linearGradient x1="80.7031644%" y1="0%" x2="20.6042089%" y2="97.7222783%" id="linearGradient-43">
            <stop stop-color="#41476D" offset="0%"></stop>
            <stop stop-color="#0F1123" offset="100%"></stop>
        </linearGradient>
        <linearGradient x1="0%" y1="2.69314286%" x2="99.6995192%" y2="99.7076116%" id="linearGradient-44">
            <stop stop-color="#173361" offset="0%"></stop>
            <stop stop-color="#08233D" offset="100%"></stop>
        </linearGradient>
        <rect id="path-45" x="13.2668037" y="102.37812" width="24.1777778" height="24.1777778" rx="2"></rect>
        <filter x="-14.5%" y="-10.3%" width="129.0%" height="129.0%" filterUnits="objectBoundingBox" id="filter-46">
            <feOffset dx="0" dy="1" in="SourceAlpha" result="shadowOffsetOuter1"></feOffset>
            <feGaussianBlur stdDeviation="1" in="shadowOffsetOuter1" result="shadowBlurOuter1"></feGaussianBlur>
            <feColorMatrix values="0 0 0 0 0.168627451   0 0 0 0 0.219607843   0 0 0 0 0.37254902  0 0 0 0.174934441 0" type="matrix" in="shadowBlurOuter1"></feColorMatrix>
        </filter>
        <linearGradient x1="25.3313867%" y1="25.3313867%" x2="98.4408528%" y2="98.4408528%" id="linearGradient-47">
            <stop stop-color="#189BFE" offset="0%"></stop>
            <stop stop-color="#29E3F4" offset="100%"></stop>
        </linearGradient>
        <linearGradient x1="25.3313867%" y1="48.2457875%" x2="98.4408528%" y2="53.4446829%" id="linearGradient-48">
            <stop stop-color="#189BFE" offset="0%"></stop>
            <stop stop-color="#29E3F4" offset="100%"></stop>
        </linearGradient>
        <linearGradient x1="0%" y1="48.6859206%" x2="99.6995192%" y2="51.380767%" id="linearGradient-49">
            <stop stop-color="#173361" offset="0%"></stop>
            <stop stop-color="#08233D" offset="100%"></stop>
        </linearGradient>
        <linearGradient x1="0%" y1="44.7436825%" x2="99.6995192%" y2="55.523068%" id="linearGradient-50">
            <stop stop-color="#173361" offset="0%"></stop>
            <stop stop-color="#08233D" offset="100%"></stop>
        </linearGradient>
        <linearGradient x1="43.8328467%" y1="25.3313867%" x2="62.1102132%" y2="98.4408528%" id="linearGradient-51">
            <stop stop-color="#189BFE" offset="0%"></stop>
            <stop stop-color="#29E3F4" offset="100%"></stop>
        </linearGradient>
        <linearGradient x1="25.3313867%" y1="47.259043%" x2="98.4408528%" y2="55.382317%" id="linearGradient-52">
            <stop stop-color="#189BFE" offset="0%"></stop>
            <stop stop-color="#29E3F4" offset="100%"></stop>
        </linearGradient>
        <linearGradient x1="50%" y1="0%" x2="50%" y2="98.9862084%" id="linearGradient-53">
            <stop stop-color="#21C4C1" offset="0%"></stop>
            <stop stop-color="#00B173" stop-opacity="0" offset="100%"></stop>
        </linearGradient>
        <linearGradient x1="0%" y1="49.9912172%" x2="100%" y2="50.0087828%" id="linearGradient-54">
            <stop stop-color="#00B173" offset="0%"></stop>
            <stop stop-color="#47D8C4" offset="99.9098558%"></stop>
        </linearGradient>
        <path d="M19.2037849,5.65042535 C18.5315913,2.25010673 15.6580282,-0.349837043 12.1119842,-0.349837043 C9.33325815,-0.349837043 6.93646687,1.24881351 5.78721407,3.65023793 C2.81622746,4.05207468 0.61198416,6.5524589 0.61198416,9.65020044 C0.61198416,12.9515593 3.19844957,15.650163 6.36198416,15.650163 L18.8215628,15.650163 C21.5054518,15.650163 23.6119842,13.4520559 23.6119842,10.6514937 C23.6093977,8.05184977 21.5977024,5.85104385 19.2037849,5.65042535" id="path-55"></path>
        <filter x="-15.2%" y="-15.6%" width="130.4%" height="143.8%" filterUnits="objectBoundingBox" id="filter-56">
            <feOffset dx="0" dy="1" in="SourceAlpha" result="shadowOffsetOuter1"></feOffset>
            <feGaussianBlur stdDeviation="1" in="shadowOffsetOuter1" result="shadowBlurOuter1"></feGaussianBlur>
            <feColorMatrix values="0 0 0 0 0.168627451   0 0 0 0 0.219607843   0 0 0 0 0.37254902  0 0 0 0.172913024 0" type="matrix" in="shadowBlurOuter1"></feColorMatrix>
        </filter>
        <linearGradient x1="0%" y1="49.9400714%" x2="100%" y2="50.0599286%" id="linearGradient-57">
            <stop stop-color="#00B173" offset="0%"></stop>
            <stop stop-color="#47D8C4" offset="99.9098558%"></stop>
        </linearGradient>
        <path d="M18.5918008,6.00026239 C17.9196072,2.59994377 15.0460441,-8.00307921e-14 11.5,-8.00307921e-14 C8.72127399,-8.00307921e-14 6.32448271,1.59865055 5.17522991,4.00007497 C2.2042433,4.40191172 0,6.90229594 0,10.0000375 C0,13.3013963 2.58646541,16 5.75,16 L18.2095787,16 C20.8934676,16 23,13.801893 23,11.0013307 C22.9974135,8.40168681 20.9857182,6.20088089 18.5918008,6.00026239" id="path-58"></path>
        <filter x="-15.2%" y="-15.6%" width="130.4%" height="143.8%" filterUnits="objectBoundingBox" id="filter-59">
            <feOffset dx="0" dy="1" in="SourceAlpha" result="shadowOffsetOuter1"></feOffset>
            <feGaussianBlur stdDeviation="1" in="shadowOffsetOuter1" result="shadowBlurOuter1"></feGaussianBlur>
            <feColorMatrix values="0 0 0 0 0.168627451   0 0 0 0 0.219607843   0 0 0 0 0.37254902  0 0 0 0.172913024 0" type="matrix" in="shadowBlurOuter1"></feColorMatrix>
        </filter>
        <path d="M18.5918008,6.00026239 C17.9196072,2.59994377 15.0460441,-7.60292525e-14 11.5,-7.60292525e-14 C8.72127399,-7.60292525e-14 6.32448271,1.59865055 5.17522991,4.00007497 C2.2042433,4.40191172 0,6.90229594 0,10.0000375 C0,13.3013963 2.58646541,16 5.75,16 L18.2095787,16 C20.8934676,16 23,13.801893 23,11.0013307 C22.9974135,8.40168681 20.9857182,6.20088089 18.5918008,6.00026239" id="path-60"></path>
        <filter x="-15.2%" y="-15.6%" width="130.4%" height="143.8%" filterUnits="objectBoundingBox" id="filter-61">
            <feOffset dx="0" dy="1" in="SourceAlpha" result="shadowOffsetOuter1"></feOffset>
            <feGaussianBlur stdDeviation="1" in="shadowOffsetOuter1" result="shadowBlurOuter1"></feGaussianBlur>
            <feColorMatrix values="0 0 0 0 0.168627451   0 0 0 0 0.219607843   0 0 0 0 0.37254902  0 0 0 0.172913024 0" type="matrix" in="shadowBlurOuter1"></feColorMatrix>
        </filter>
        <linearGradient x1="0%" y1="49.8252983%" x2="100%" y2="50.1747017%" id="linearGradient-62">
            <stop stop-color="#00B173" offset="0%"></stop>
            <stop stop-color="#47D8C4" offset="99.9098558%"></stop>
        </linearGradient>
        <linearGradient x1="0%" y1="9.78096839%" x2="100%" y2="90.2190316%" id="linearGradient-63">
            <stop stop-color="#00B173" offset="0%"></stop>
            <stop stop-color="#47D8C4" offset="99.9098558%"></stop>
        </linearGradient>
        <linearGradient x1="0%" y1="10.4032%" x2="100%" y2="89.5968%" id="linearGradient-64">
            <stop stop-color="#00B173" offset="0%"></stop>
            <stop stop-color="#47D8C4" offset="99.9098558%"></stop>
        </linearGradient>
        <linearGradient x1="9.50879274%" y1="112.668729%" x2="90.8071297%" y2="-12.838685%" id="linearGradient-65">
            <stop stop-color="#1BCBA9" offset="0%"></stop>
            <stop stop-color="#2369FF" offset="45.5774694%"></stop>
            <stop stop-color="#876EFF" offset="100%"></stop>
        </linearGradient>
        <linearGradient x1="0%" y1="0%" x2="100%" y2="100%" id="linearGradient-66">
            <stop stop-color="#00B173" offset="0%"></stop>
            <stop stop-color="#47D8C4" offset="99.9098558%"></stop>
        </linearGradient>
        <path d="M18.5821115,10.194022 C18.5821115,14.6121662 15.000381,18.194249 10.5821115,18.194249 C6.16384195,18.194249 2.58211146,14.6121662 2.58211146,10.194022 C2.58211146,5.77587787 6.16384195,2.19424898 10.5821115,2.19424898 C15.000381,2.19424898 18.5821115,5.77587787 18.5821115,10.194022" id="path-67"></path>
        <filter x="-121.9%" y="-84.4%" width="343.8%" height="343.8%" filterUnits="objectBoundingBox" id="filter-68">
            <feMorphology radius="0.5" operator="erode" in="SourceAlpha" result="shadowSpreadOuter1"></feMorphology>
            <feOffset dx="0" dy="6" in="shadowSpreadOuter1" result="shadowOffsetOuter1"></feOffset>
            <feGaussianBlur stdDeviation="6" in="shadowOffsetOuter1" result="shadowBlurOuter1"></feGaussianBlur>
            <feColorMatrix values="0 0 0 0 0   0 0 0 0 0.694117647   0 0 0 0 0.450980392  0 0 0 0.318591565 0" type="matrix" in="shadowBlurOuter1"></feColorMatrix>
        </filter>
    </defs>
    <g id="页面-1" stroke="none" stroke-width="1" fill="none" fill-rule="evenodd">
        <g id="导航-定备份-6" transform="translate(-958.000000, -150.000000)">
            <g id="编组-17" transform="translate(958.000000, 150.000000)">
                <g id="编组-15" opacity="0.487554506" transform="translate(72.337511, 10.337716)" fill="url(#radialGradient-1)">
                    <circle id="椭圆形备份-3" opacity="0.652502725" filter="url(#filter-2)" cx="29.1624892" cy="29.1622842" r="29.5"></circle>
                </g>
                <g id="编组-67" transform="translate(145.227365, 85.111127)">
                    <line x1="-0.227365382" y1="8.88887263" x2="33.7726346" y2="8.88887263" id="路径-40备份-2" stroke="url(#linearGradient-3)" stroke-width="0.5"></line>
                    <g id="编组-13" transform="translate(34.772635, -0.111127)">
                        <g id="Fill-41备份-6">
                            <use fill="black" fill-opacity="1" filter="url(#filter-6)" xlink:href="#path-5"></use>
                            <use fill="url(#linearGradient-4)" fill-rule="evenodd" xlink:href="#path-5"></use>
                        </g>
                        <g id="腾讯云" transform="translate(7.160623, 4.786916)" fill-rule="nonzero">
                            <path d="M7.50181792,5.36881949 C7.38218913,5.49367575 7.10305528,5.74338829 6.58466386,5.74338829 L3.63382037,5.74338829 C4.55097443,4.82777566 5.26874717,4.0370193 5.34849969,3.99540055 C5.42825222,3.91216304 5.58775727,3.74568801 5.74726233,3.62083175 C6.06627243,3.24626295 6.34540628,3.20464419 6.62454012,3.20464419 C6.98342649,3.20464419 7.26256034,3.32950046 7.50181792,3.57921299 C7.98033308,4.0370193 7.98033308,4.91101317 7.50181792,5.36881949 Z M8.09996187,2.99655041 C7.7410755,2.62198161 7.22268407,2.33065032 6.70429265,2.33065032 C6.18590122,2.33065032 5.78713859,2.5387441 5.42825222,2.78845663 C5.30862343,2.9133129 5.06936585,3.07978792 4.9098608,3.32950046 C4.71047948,3.45435672 1.75963599,6.5757634 1.75963599,6.5757634 L6.1061487,6.5757634 C6.38528254,6.5757634 6.62454012,6.5757634 6.78404517,6.53414465 C7.22268407,6.49252589 7.70119923,6.28443211 8.0600856,5.95148207 C8.81773461,5.11910695 8.81773461,3.78730677 8.09996187,2.99655041 Z" id="形状" fill="#00A3FF"></path>
                            <path d="M3.19518147,2.78845663 C2.79641884,2.49712534 2.43753247,2.37226908 1.95901731,2.37226908 C1.40074962,2.37226908 0.882358194,2.62198161 0.563348087,3.03816917 C-0.194300917,3.87054428 -0.194300917,5.20234446 0.603224351,6.03471958 C0.922234458,6.36766962 1.28112083,6.53414465 1.67988346,6.53414465 L2.47740873,5.74338829 L2.03876983,5.74338829 C1.60013094,5.70176953 1.32099709,5.53529451 1.12161577,5.36881949 C0.643100614,4.86939442 0.643100614,4.07863806 1.12161577,3.53759424 C1.36087335,3.2878817 1.60013094,3.16302543 1.99889357,3.16302543 C2.23815115,3.16302543 2.47740873,3.20464419 2.79641884,3.53759424 C2.91604763,3.70406926 3.274934,3.95378179 3.39456279,4.12025682 L3.43443905,4.12025682 L3.91295421,3.53759424 C3.75344916,3.32950046 3.35468652,2.99655041 3.19518147,2.78845663" id="路径" fill="#00C8DC"></path>
                            <path d="M6.82392144,1.83122525 C6.46503507,0.749137603 5.42825222,-7.09725709e-16 4.31171685,-7.09725709e-16 C2.95592389,-7.09725709e-16 1.87926478,1.04046889 1.6400072,2.37226908 C1.71975973,2.37226908 1.83938852,2.33065032 1.95901731,2.33065032 C2.0786461,2.33065032 2.27802741,2.37226908 2.3976562,2.37226908 C2.59703752,1.45665645 3.35468652,0.832375114 4.23196432,0.832375114 C4.98961332,0.832375114 5.6675098,1.29018143 5.98651991,1.99770027 C5.98651991,1.99770027 6.02639617,2.03931903 6.02639617,1.99770027 C6.30553001,1.95608152 6.58466386,1.83122525 6.82392144,1.83122525 C6.82392144,1.91446276 6.82392144,1.91446276 6.82392144,1.83122525" id="路径" fill="#006EFF"></path>
                        </g>
                    </g>
                </g>
                <g id="编组-46" transform="translate(145.227365, 44.603600)">
                    <g id="Fill-41备份">
                        <use fill="black" fill-opacity="1" filter="url(#filter-8)" xlink:href="#path-7"></use>
                        <use fill="#FFFFFF" fill-rule="evenodd" xlink:href="#path-7"></use>
                    </g>
                    <line x1="-0.227365382" y1="10.3963995" x2="33.7726346" y2="10.3963995" id="路径-40备份-2" stroke="url(#linearGradient-3)" stroke-width="0.5"></line>
                    <g id="azure" transform="translate(41.772635, 4.396400)" fill="#1E88E5" fill-rule="nonzero">
                        <path d="M4.97269902,0.000431303431 L2.05216352,6.22926679 L0,6.20683919 L2.29055702,2.25569933 L4.97269902,0 M5.28768826,0.49168207 L9,7 L2.13349271,7 L6.31871862,6.2516944 L4.12713364,3.64017252 L5.28768826,0.49168207 Z" id="形状"></path>
                    </g>
                </g>
                <path d="M115.409866,28 C115.144659,27.1916168 115,26.3183633 115,25.4101796 C115,21.3183633 117.912463,18 121.5,18 C121.68941,18 121.876939,18.0092499 122.062257,18.0273753 C122.501334,14.6222292 125.216313,12 128.5,12 C130.820231,12 132.856522,13.3092113 134.006649,15.2790869 L134.003931,15.2457483 L134.003931,15.2457483 L134,15 C134,11.1340068 136.910149,8 140.5,8 C144.089851,8 147,11.1340068 147,15 C147,15.063454 146.999216,15.1267108 146.997658,15.1897598 C148.646413,15.6103074 150.053902,16.7145746 150.951895,18.2112993 C151.448333,18.0733266 151.966708,18 152.5,18 C156.087537,18 159,21.3183633 159,25.4101796 C159,26.3183633 158.855341,27.1916168 158.594955,28 L158.594955,28 Z" id="形状结合备份-2" fill="url(#linearGradient-9)" opacity="0.300000012"></path>
                <path d="M69.5,112 C73.0898509,112 76,115.134007 76,119 C76,119.063196 75.9992224,119.126197 75.9976769,119.188991 C77.960133,119.690875 79.5800047,121.158961 80.4066477,123.104738 C80.7619664,123.035806 81.1273411,123 81.5,123 C85.0875371,123 88,126.318363 88,130.41018 C88,131.318363 87.8553412,132.191617 87.5949555,133 L87.5949555,133 L75.4098665,133 C75.3037834,132.676647 75.2169881,132.342914 75.1510237,132.000719 L69.8500178,132.000719 C69.7847478,132.342914 69.6991098,132.676647 69.5949555,133 L69.5949555,133 L44.4098665,133 C44.1446588,132.191617 44,131.318363 44,130.41018 C44,126.318363 46.9124629,123 50.5,123 C50.6685055,123 50.8355217,123.007321 51.0008168,123.021699 L51,123 C51,119.134007 53.9101491,116 57.5,116 C59.8199876,116 61.8560939,117.308936 63.0062865,119.278466 L63.0039307,119.245748 L63.0039307,119.245748 L63,119 C63,115.134007 65.9101491,112 69.5,112 Z" id="形状结合备份-4" fill="url(#linearGradient-10)" fill-rule="nonzero" opacity="0.391692406"></path>
                <path d="M46.4098665,135 C46.1446588,134.191617 46,133.318363 46,132.41018 C46,128.318363 48.9124629,125 52.5,125 C53.0314471,125 53.5480799,125.07282 54.0426252,125.210187 C54.4047961,121.716475 57.1578242,119 60.5,119 C62.8199876,119 64.8560939,120.308936 66.0062865,122.278466 L66.0039307,122.245748 L66.0039307,122.245748 L66,122 C66,118.134007 68.9101491,115 72.5,115 C76.0898509,115 79,118.134007 79,122 C79,122.063454 78.999216,122.126711 78.9976579,122.18976 C80.647209,122.610736 82.0546711,123.715298 82.9525011,125.212309 C83.4483327,125.073327 83.9667077,125 84.5,125 C88.0875371,125 91,128.318363 91,132.41018 C91,133.318363 90.8553412,134.191617 90.5949555,135 L90.5949555,135 Z" id="形状结合备份-4" stroke="url(#linearGradient-11)" stroke-width="0.5" fill-rule="nonzero"></path>
                <g id="编组-18" transform="translate(75.634480, 14.733675)">
                    <mask id="mask-14" fill="white">
                        <use xlink:href="#path-13"></use>
                    </mask>
                    <use id="蒙版" fill="url(#linearGradient-12)" xlink:href="#path-13"></use>
                    <path d="M-47.6344805,21.8242117 C-32.2073692,15.0604538 -21.4145496,21.7106247 -15.2560216,41.7747244 C-6.0182296,71.8708739 -4.79305874,98.5387056 16.0129414,101.470002 C36.8189415,104.401298 64.3941962,100.464663 66.8472197,122.375022 C68.4825687,136.981927 66.2480053,150.612362 60.1435296,163.266325 L-45.9635148,143.673517 L-47.6344805,21.8242117 Z" id="路径-103" fill="url(#linearGradient-15)" opacity="0.13733194" filter="url(#filter-16)" mask="url(#mask-14)"></path>
                    <ellipse id="椭圆形备份-20" fill="url(#linearGradient-17)" opacity="0.258902616" filter="url(#filter-18)" mask="url(#mask-14)" cx="110.86552" cy="85.7663246" rx="9.5" ry="17.5"></ellipse>
                    <g opacity="0.491506177" mask="url(#mask-14)">
                        <g transform="translate(-21.634480, 2.266325)">
                            <polyline id="路径-16" stroke="url(#linearGradient-19)" stroke-width="0.5" fill="none" points="33.3970961 26.518007 39.3827042 20.5056012 60.4831263 20.5056012 66.8313346 26.8822306 87.6377277 26.8822306"></polyline>
                            <polyline id="路径-17" stroke="url(#linearGradient-20)" stroke-width="0.5" fill="none" opacity="0.5" points="47.0199603 80.3914811 55.140836 72.234248 77.8099693 72.234248 85.4183487 64.5918057"></polyline>
                            <path id="路径-18" d="M100.801533,59.7125743 C102.073569,60.9789403 102.078165,63.0367214 100.811799,64.3087569 C99.6048425,65.5211167 97.6789856,65.5821678 96.3996685,64.4888605 L71.6762878,89.3225595 L71.4991168,89.3961781 L11.419,89.396 L2.4636169,98.3932809 C3.56262805,99.6677014 3.51018036,101.593812 2.30322411,102.806172 C1.0368581,104.078207 -1.02092294,104.082803 -2.2929585,102.816437 C-3.56499405,101.550071 -3.56959013,99.4922902 -2.30322411,98.2202546 C-1.09618504,97.0078116 0.82985334,96.9468353 2.10916949,98.0403762 L11.1392003,88.9697967 L11.3163714,88.8961781 L71.394,88.896 L96.0449577,64.1357306 C94.9459466,62.8613101 94.9983943,60.9351997 96.2053505,59.7228399 C97.4717165,58.4508044 99.5294976,58.4462083 100.801533,59.7125743 Z M-1.94888194,98.5730175 C-3.02042241,99.6493552 -3.01653343,101.390555 -1.94019565,102.462095 C-0.863857876,103.533636 0.877341473,103.529747 1.94888194,102.453409 C3.02042241,101.377071 3.01653343,99.6358716 1.94019565,98.5643312 C0.863857876,97.4927907 -0.877341473,97.4966797 -1.94888194,98.5730175 Z M96.5596927,60.0756028 C95.4881522,61.1519405 95.4920412,62.8931399 96.568379,63.9646804 C97.6447168,65.0362208 99.3859161,65.0323318 100.457457,63.9559941 C101.528997,62.8796563 101.525108,61.1384569 100.44877,60.0669165 C99.3724325,58.995376 97.6312332,58.999265 96.5596927,60.0756028 Z" stroke="none" fill="url(#linearGradient-21)" fill-rule="nonzero"></path>
                            <line x1="16.360198" y1="13.9558153" x2="55.2018117" y2="13.9558153" id="路径-19" stroke="url(#linearGradient-22)" stroke-width="0.5" fill="none"></line>
                            <polyline id="路径-29" stroke="url(#linearGradient-23)" stroke-width="0.5" fill="none" opacity="0.5" points="18.1818474 19.9515375 30.5142146 32.3391168 58.526691 32.3391168 66.2191545 40.0660196"></polyline>
                            <polyline id="路径-30" stroke="url(#linearGradient-24)" stroke-width="0.5" fill="none" points="67.7378289 33.5990207 76.1912708 42.0903088 94.7301782 42.0903088"></polyline>
                            <polyline id="路径-30备份" stroke="url(#linearGradient-25)" stroke-width="0.5" fill="none" points="37.6528415 99.5832727 52.0053126 114 83.4811464 114"></polyline>
                            <polyline id="路径-31" stroke="url(#linearGradient-26)" stroke-width="0.5" fill="none" points="53.959598 7.74812143 73.4311802 7.74812143 103.393581 37.8446648 125.308113 37.8446648"></polyline>
                            <polyline id="路径-32" stroke="url(#linearGradient-27)" stroke-width="0.5" fill="none" points="42.2005009 -1.57595398e-14 75.074464 -1.57595398e-14 106.034409 31.0985536 135 31.0985536"></polyline>
                            <polyline id="路径-33" stroke="url(#linearGradient-28)" stroke-width="0.5" fill="none" points="62.031614 96.144528 75.074464 96.144528 98.5085746 72.6055023 121.812015 72.6055023"></polyline>
                            <path id="路径-34" d="M121.610315,42.3139347 C123.40524,42.3139347 124.860315,43.7690093 124.860315,45.5639347 C124.860315,47.3588602 123.40524,48.8139347 121.610315,48.8139347 C119.899389,48.8139347 118.497249,47.4918627 118.369761,45.8135845 L102.201,45.813 L95.6741628,52.3706514 C96.7731739,53.6450719 96.7207262,55.5711823 95.51377,56.7835421 C94.247404,58.0555777 92.1896229,58.0601737 90.9175874,56.7938077 C89.6455518,55.5274417 89.6409557,53.4696607 90.9073218,52.1976251 C92.1143608,50.9851821 94.0403992,50.9242058 95.3197154,52.0177467 L101.920237,45.3875533 L102.097408,45.3139347 L118.369837,45.3132843 C118.497806,43.6354812 119.899729,42.3139347 121.610315,42.3139347 Z M91.2616639,52.5503879 C90.1901235,53.6267257 90.1940124,55.3679251 91.2703502,56.4394655 C92.346688,57.511006 94.0878873,57.507117 95.1594278,56.4307793 C96.2309683,55.3544415 96.2270793,53.6132421 95.1507415,52.5417017 C94.0744038,51.4701612 92.3332044,51.4740502 91.2616639,52.5503879 Z M121.610315,42.8139347 C120.091532,42.8139347 118.860315,44.0451517 118.860315,45.5639347 C118.860315,47.0827178 120.091532,48.3139347 121.610315,48.3139347 C123.129098,48.3139347 124.360315,47.0827178 124.360315,45.5639347 C124.360315,44.0451517 123.129098,42.8139347 121.610315,42.8139347 Z" stroke="none" fill="url(#linearGradient-29)" fill-rule="nonzero" opacity="0.5"></path>
                            <polyline id="路径-34备份" stroke="url(#linearGradient-29)" stroke-width="0.5" fill="none" opacity="0.5" points="25.5883265 77.5018984 34.4751887 68.5752495 53.9880956 68.5752495"></polyline>
                        </g>
                    </g>
                    <g id="编组-42" mask="url(#mask-14)" stroke-dasharray="12,6" stroke-width="0.5">
                        <g transform="translate(5.365520, 13.266325)">
                            <line x1="25.6" y1="77.8620908" x2="38.9565217" y2="77.8620908" id="路径-6备份-2" stroke="url(#linearGradient-30)"></line>
                            <line x1="49.8091653" y1="0.0828116547" x2="59.5612554" y2="10.1517074" id="路径-6备份-9" stroke="url(#linearGradient-31)" transform="translate(54.685210, 5.117260) rotate(-1.000000) translate(-54.685210, -5.117260) "></line>
                            <line x1="50.6434783" y1="30.9729462" x2="64" y2="30.9729462" id="路径-6备份-5" stroke="url(#linearGradient-30)"></line>
                            <line x1="0" y1="3.11527793" x2="13.3565217" y2="3.11527793" id="路径-6备份-6" stroke="url(#linearGradient-30)"></line>
                        </g>
                    </g>
                </g>
                <g id="编组备份-2" transform="translate(84.151652, 58.693271)" fill="#00B173">
                    <path d="M3.59214558,23.6574657 L3.59214558,22.8233134 L0.842602289,22.8233134 L0.842602289,20.8411266 L3.17480418,20.8411266 L3.17480418,20.0026746 L0.842602289,20.0026746 L0.842602289,18.2354755 L3.5635045,18.2354755 L3.5635045,17.3970235 L-0.151652203,17.3970235 L-0.151652203,23.6574657 L3.59214558,23.6574657 Z M5.48245659,23.6574657 L5.48245659,19.0782274 L5.50700608,19.0696279 L7.17637165,23.6574657 L7.85966589,23.6574657 L9.50039038,19.155623 L9.52493987,19.1599227 L9.52493987,23.6574657 L10.5191944,23.6574657 L10.5191944,17.3970235 L9.25080386,17.3970235 L7.52824772,22.2127483 L7.50369823,22.2127483 L5.79341684,17.3970235 L4.48820209,17.3970235 L4.48820209,23.6574657 L5.48245659,23.6574657 Z M16.1737611,24.3067286 L16.8365974,23.6832642 L15.9569072,22.7631168 C16.1178428,22.5366631 16.2412722,22.2815443 16.3271954,21.9977606 C16.4131186,21.7139768 16.4560802,21.4115607 16.4560802,21.0905124 L16.4560802,21.0905124 L16.4560802,19.9639768 C16.4560802,19.201487 16.2269516,18.5679899 15.7686944,18.0634854 C15.3104372,17.5589809 14.7171578,17.3067286 13.9888561,17.3067286 C13.2741931,17.3067286 12.6938703,17.5589809 12.2478879,18.0634854 C11.8019054,18.5679899 11.5789142,19.201487 11.5789142,19.9639768 L11.5789142,19.9639768 L11.5789142,21.0905124 C11.5789142,21.8558687 11.8025873,22.4900824 12.2499337,22.9931537 C12.69728,23.4962249 13.2769208,23.7477606 13.9888561,23.7477606 C14.2316233,23.7477606 14.4621158,23.7176623 14.6803335,23.6574657 C14.8985513,23.5972692 15.1017665,23.5084076 15.2899793,23.3908809 L15.2899793,23.3908809 L16.1737611,24.3067286 Z M13.9888561,22.8921094 C13.5524207,22.8921094 13.2073639,22.7237024 12.9536858,22.3868883 C12.7000077,22.0500742 12.5731687,21.6179489 12.5731687,21.0905124 L12.5731687,21.0905124 L12.5731687,19.9553773 C12.5731687,19.4336737 12.6993258,19.0051316 12.95164,18.6697507 C13.2039543,18.3343699 13.549693,18.1666795 13.9888561,18.1666795 C14.4416579,18.1666795 14.8003533,18.3343699 15.0649423,18.6697507 C15.3295313,19.0051316 15.4618257,19.4336737 15.4618257,19.9553773 L15.4618257,19.9553773 L15.4618257,21.0905124 C15.4618257,21.6208154 15.3302132,22.0536574 15.0669881,22.3890382 C14.8037629,22.724419 14.4443856,22.8921094 13.9888561,22.8921094 Z M20.4862888,23.6574657 L21.7792288,21.3055001 L23.0721688,23.6574657 L24.2669108,23.6574657 L22.364325,20.5014461 L24.1973539,17.3970235 L23.0189782,17.3970235 L21.7628624,19.7102913 L20.5190214,17.3970235 L19.3488289,17.3970235 L21.1818578,20.5014461 L19.3079131,23.6574657 L20.4862888,23.6574657 Z M29.2872822,23.7477606 C29.9692126,23.7477606 30.5106653,23.553555 30.9116404,23.1651438 C31.3126155,22.7767327 31.5076476,22.2672118 31.4967367,21.6365812 L31.4967367,21.6365812 L31.4885535,21.6107827 L30.5311233,21.6107827 C30.5311233,22.0321586 30.425424,22.3546402 30.2140256,22.5782274 C30.0026272,22.8018146 29.6937127,22.9136082 29.2872822,22.9136082 C28.8726686,22.9136082 28.545342,22.7452012 28.3053025,22.4083871 C28.065263,22.071573 27.9452433,21.6437475 27.9452433,21.1249104 L27.9452433,21.1249104 L27.9452433,19.925279 C27.9452433,19.412175 28.0632172,18.9872159 28.2991651,18.6504018 C28.535113,18.3135877 28.8549384,18.1451807 29.2586412,18.1451807 C29.6759826,18.1451807 29.9923983,18.2562577 30.2078883,18.4784117 C30.4233783,18.7005656 30.5311233,19.0208973 30.5311233,19.4394067 L30.5311233,19.4394067 L31.4926451,19.4394067 L31.5008283,19.4136082 C31.5117391,18.7600456 31.3160251,18.2455083 30.9136862,17.8699964 C30.5113473,17.4944846 29.9596656,17.3067286 29.2586412,17.3067286 C28.5739831,17.3067286 28.0188917,17.5539645 27.5933672,18.0484362 C27.1678426,18.542908 26.9550803,19.1713887 26.9550803,19.9338785 L26.9550803,19.9338785 L26.9550803,21.1249104 C26.9550803,21.8902667 27.1705703,22.5187475 27.6015503,23.0103527 C28.0325303,23.5019579 28.594441,23.7477606 29.2872822,23.7477606 Z M36.2388805,23.6574657 L36.2388805,22.8233134 L33.4484214,22.8233134 L33.4484214,17.3970235 L32.4541669,17.3970235 L32.4541669,23.6574657 L36.2388805,23.6574657 Z M39.0924482,23.7477606 C39.8234776,23.7477606 40.4174389,23.4962249 40.8743323,22.9931537 C41.3312256,22.4900824 41.5596723,21.8558687 41.5596723,21.0905124 L41.5596723,21.0905124 L41.5596723,19.9639768 C41.5596723,19.201487 41.3305437,18.5679899 40.8722865,18.0634854 C40.4140293,17.5589809 39.8207498,17.3067286 39.0924482,17.3067286 C38.3777852,17.3067286 37.7974624,17.5589809 37.3514799,18.0634854 C36.9054975,18.5679899 36.6825062,19.201487 36.6825062,19.9639768 L36.6825062,19.9639768 L36.6825062,21.0905124 C36.6825062,21.8558687 36.9061794,22.4900824 37.3535257,22.9931537 C37.8008721,23.4962249 38.3805129,23.7477606 39.0924482,23.7477606 Z M39.0924482,22.8921094 C38.6560128,22.8921094 38.310956,22.7237024 38.0572779,22.3868883 C37.8035998,22.0500742 37.6767607,21.6179489 37.6767607,21.0905124 L37.6767607,21.0905124 L37.6767607,19.9553773 C37.6767607,19.4336737 37.8029179,19.0051316 38.0552321,18.6697507 C38.3075463,18.3343699 38.653285,18.1666795 39.0924482,18.1666795 C39.54525,18.1666795 39.9039453,18.3343699 40.1685343,18.6697507 C40.4331233,19.0051316 40.5654178,19.4336737 40.5654178,19.9553773 L40.5654178,19.9553773 L40.5654178,21.0905124 C40.5654178,21.6208154 40.4338053,22.0536574 40.1705801,22.3890382 C39.907355,22.724419 39.5479777,22.8921094 39.0924482,22.8921094 Z M44.8288465,23.7477606 C45.5162324,23.7477606 46.0774611,23.5506885 46.5125326,23.1565443 C46.9476042,22.7624002 47.16514,22.217048 47.16514,21.5204878 L47.16514,21.5204878 L47.16514,17.3970235 L46.1708855,17.3970235 L46.1708855,21.5204878 C46.1708855,21.9647958 46.0481381,22.3080595 45.8026431,22.550279 C45.5571482,22.7924985 45.2325493,22.9136082 44.8288465,22.9136082 C44.4387824,22.9136082 44.1250944,22.7924985 43.8877826,22.550279 C43.6504708,22.3080595 43.531815,21.9647958 43.531815,21.5204878 L43.531815,21.5204878 L43.531815,17.3970235 L42.5375605,17.3970235 L42.5375605,21.5204878 C42.5375605,22.217048 42.7503227,22.7624002 43.1758473,23.1565443 C43.6013719,23.5506885 44.1523716,23.7477606 44.8288465,23.7477606 Z M50.2952005,23.6574657 C51.0507793,23.6574657 51.6651986,23.4109465 52.1384583,22.917908 C52.611718,22.4248695 52.8483478,21.7870726 52.8483478,21.0045173 L52.8483478,21.0045173 L52.8483478,20.0542716 C52.8483478,19.2745828 52.611718,18.6367859 52.1384583,18.1408809 C51.6651986,17.644976 51.0507793,17.3970235 50.2952005,17.3970235 L50.2952005,17.3970235 L48.3271494,17.3970235 L48.3271494,23.6574657 L50.2952005,23.6574657 Z M50.2952005,22.8233134 L49.3214039,22.8233134 L49.3214039,18.2354755 L50.2952005,18.2354755 C50.7725517,18.2354755 51.151705,18.4053158 51.4326603,18.7449964 C51.7136156,19.084677 51.8540933,19.5182356 51.8540933,20.0456721 L51.8540933,20.0456721 L51.8540933,21.0045173 C51.8540933,21.5376868 51.7136156,21.9741119 51.4326603,22.3137925 C51.151705,22.6534731 50.7725517,22.8233134 50.2952005,22.8233134 L50.2952005,22.8233134 Z" id="EMQXCLOUD" fill-rule="nonzero"></path>
                    <g id="编组-58" transform="translate(17.848348, 0.306729)">
                        <path d="M13.4719032,10.4564884 C13.1469854,10.4564884 12.8834344,10.1970968 12.8834344,9.87759866 C12.8834344,9.55751696 13.1469854,9.29812532 13.4719032,9.29812532 C15.3197248,9.29812532 16.8230624,7.81851339 16.8230624,6.00014589 C16.8230624,4.18119484 15.3197248,2.7015829 13.4719032,2.7015829 C13.1469854,2.7015829 12.8834344,2.44219126 12.8834344,2.12269312 C12.8834344,1.80261142 13.1469854,1.54321978 13.4719032,1.54321978 C15.968671,1.54321978 18,3.54249033 18,6.00014589 C18,8.45721789 15.968671,10.4564884 13.4719032,10.4564884" id="Fill-2"></path>
                        <path d="M4.52809679,10.4564884 C2.031329,10.4564884 2.10645953e-15,8.45721789 2.10645953e-15,6.00014589 C2.10645953e-15,3.54249033 2.031329,1.54321978 4.52809679,1.54321978 C4.85331102,1.54321978 5.11656557,1.80261142 5.11656557,2.12269312 C5.11656557,2.44219126 4.85331102,2.7015829 4.52809679,2.7015829 C2.68027518,2.7015829 1.17693756,4.18119484 1.17693756,6.00014589 C1.17693756,7.81851339 2.68027518,9.29812532 4.52809679,9.29812532 C4.85331102,9.29812532 5.11656557,9.55751696 5.11656557,9.87759866 C5.11656557,10.1970968 4.85331102,10.4564884 4.52809679,10.4564884" id="Fill-3"></path>
                        <path d="M7.33979172,12 C7.01457749,12 6.75132294,11.7406084 6.75132294,11.4208184 C6.75132294,11.1007367 7.01457749,10.8413451 7.33979172,10.8413451 C10.0520843,10.8413451 12.2589164,8.66963309 12.2589164,6.00014589 C12.2589164,3.33007513 10.0520843,1.15836312 7.33979172,1.15836312 C7.01457749,1.15836312 6.75132294,0.898971479 6.75132294,0.57888978 C6.75132294,0.259391641 7.01457749,5.90866379e-14 7.33979172,5.90866379e-14 C10.7010305,5.90866379e-14 13.4358539,2.69166241 13.4358539,6.00014589 C13.4358539,9.30804581 10.7010305,12 7.33979172,12" id="Fill-4"></path>
                    </g>
                </g>
                <path d="M126.28125,143 C126.101902,142.599057 126,142.162736 126,141.706761 C126,139.658805 128.013587,138 130.5,138 C130.66927,138 130.836349,138.007688 131.00075,138.022663 L131,138 C131,135.790861 133.014719,134 135.5,134 C137.985281,134 140,135.790861 140,138 C140,138.007703 139.999976,138.015401 139.999927,138.023094 C140.236119,138.044015 140.467916,138.08074 140.692674,138.131452 C140.253746,137.515318 140,136.783999 140,136 C140,133.790861 142.014719,132 144.5,132 C146.985281,132 149,133.790861 149,136 C149,136.071778 148.997873,136.143115 148.993672,136.213963 C150.095081,136.540217 151.000681,137.218388 151.520782,138.08881 C151.835527,138.030395 152.163432,138 152.5,138 C154.986413,138 157,139.658805 157,141.706761 C157,142.162736 156.898098,142.599057 156.71875,143 L156.71875,143 Z" id="形状结合" fill="url(#linearGradient-32)" opacity="0.588163154"></path>
                <g id="矩形">
                    <use fill="black" fill-opacity="1" filter="url(#filter-34)" xlink:href="#path-33"></use>
                    <use fill="#FFFFFF" fill-rule="evenodd" xlink:href="#path-33"></use>
                </g>
                <g id="编组-12备份" transform="translate(18.761753, 37.812463)">
                    <g id="编组-3备份-2" transform="translate(1.238247, 4.187537) rotate(-90.000000) translate(-1.238247, -4.187537) translate(-1.761753, 3.187537)" stroke="url(#linearGradient-35)" stroke-linecap="round">
                        <line x1="0.2" y1="0" x2="0.2" y2="2" id="路径-4"></line>
                        <line x1="3" y1="0" x2="3" y2="2" id="路径-4备份"></line>
                        <line x1="5.8" y1="0" x2="5.8" y2="2" id="路径-4备份-2"></line>
                    </g>
                    <g id="编组-3备份-3" transform="translate(12.238247, 4.187537) rotate(-90.000000) translate(-12.238247, -4.187537) translate(9.238247, 3.187537)" stroke="url(#linearGradient-35)" stroke-linecap="round">
                        <line x1="0.2" y1="0" x2="0.2" y2="2" id="路径-4"></line>
                        <line x1="3" y1="0" x2="3" y2="2" id="路径-4备份"></line>
                        <line x1="5.8" y1="0" x2="5.8" y2="2" id="路径-4备份-2"></line>
                    </g>
                    <g id="编组-7" transform="translate(2.238247, 0.187537)">
                        <rect id="矩形" fill="url(#linearGradient-36)" x="0.0961237283" y="0" width="8.90387627" height="9" rx="2"></rect>
                        <polyline id="路径-5" stroke="url(#linearGradient-37)" points="0 3.79246035 3.89025469 3.79246035 5.61658398 2.03400125"></polyline>
                        <ellipse id="椭圆形" fill="url(#linearGradient-38)" cx="5.84654382" cy="1.6875" rx="1" ry="1"></ellipse>
                    </g>
                    <g id="编组-7" transform="translate(8.238247, 6.687537) rotate(-180.000000) translate(-8.238247, -6.687537) translate(5.238247, 5.187537)">
                        <polyline id="路径-5" stroke="url(#linearGradient-39)" points="-2.037874e-13 3 3.64538444 3 5.26305075 1.02232213"></polyline>
                        <ellipse id="椭圆形" fill="url(#linearGradient-40)" cx="5.47853588" cy="0.632624211" rx="1" ry="1"></ellipse>
                    </g>
                </g>
                <g id="矩形备份-4">
                    <use fill="black" fill-opacity="1" filter="url(#filter-42)" xlink:href="#path-41"></use>
                    <use fill="#FFFFFF" fill-rule="evenodd" xlink:href="#path-41"></use>
                </g>
                <g id="编组-12" transform="translate(20.959733, 72.155898)">
                    <rect id="矩形" fill="#5468FF" x="0.0402669886" y="-0.155897649" width="9" height="13" rx="1"></rect>
                    <rect id="矩形" fill="url(#linearGradient-43)" x="1.04026699" y="0.844102351" width="7" height="9"></rect>
                    <circle id="椭圆形" fill="url(#linearGradient-44)" cx="4.54026699" cy="11.3441024" r="1"></circle>
                </g>
                <g id="矩形备份-6">
                    <use fill="black" fill-opacity="1" filter="url(#filter-46)" xlink:href="#path-45"></use>
                    <use fill="#FFFFFF" fill-rule="evenodd" xlink:href="#path-45"></use>
                </g>
                <g id="汽车" transform="translate(17.662763, 110.620544)">
                    <path d="M2.83723669,4.37945589 C2.01018117,4.37945589 1.33723669,5.05230818 1.33723669,5.87930325 C1.33723669,6.70658751 2.01018119,7.37945589 2.83723669,7.37945589 C3.66429218,7.37945589 4.33723669,6.70658751 4.33723669,5.87930325 C4.33723669,5.05230818 3.6642922,4.37945589 2.83723669,4.37945589 Z" id="路径" fill="url(#linearGradient-44)"></path>
                    <path d="M15.3156525,5.29522828 L15.2254883,4.81898863 C15.176199,4.53888411 15.0528091,4.46183471 14.8902899,4.37945589 L13.3372367,4.37945589 C13.6571952,4.82311998 13.8490566,5.37471518 13.8490566,5.97452308 C13.8490566,6.11253034 13.8359742,6.24721185 13.8165959,6.37945589 L14.515766,6.37945589 C15.2209967,6.37947654 15.4069936,5.98935455 15.3156525,5.29522828 Z" id="路径" fill="url(#linearGradient-47)"></path>
                    <path d="M11.8372206,4.37945589 C11.0103507,4.37945589 10.3372367,5.05230818 10.3372367,5.87930325 C10.3372367,6.70658751 11.0103346,7.37945589 11.8372206,7.37945589 C12.6646046,7.37945589 13.3372367,6.70658751 13.3372367,5.87930325 C13.3372367,5.05230818 12.6645886,4.37945589 11.8372206,4.37945589 Z" id="路径" fill="url(#linearGradient-44)"></path>
                    <path d="M2.05613936,4.37945589 C2.33573019,4.20920999 2.66117805,4.09687333 3.01277675,4.05991647 L3.54122356,4.05991647 L3.54122356,4.06211556 C3.88311296,4.10171438 4.19986641,4.21347071 4.47275884,4.37945589 L6.57923868,4.37945589 L11.2735703,4.37945589 C11.6195193,4.16809928 12.0367827,4.04443125 12.4861003,4.04443125 C12.9354349,4.04443125 13.3528843,4.16808402 13.6989856,4.37945589 L15.3372367,4.37945589 L15.1564304,3.46975204 C15.0083381,2.91700261 14.6998562,2.76045517 13.8715373,2.66146577 C12.7610226,2.52837524 10.865052,2.27195266 10.865052,2.27195266 C9.96487745,1.66772324 9.20437145,1.02783502 7.83596809,0.917605841 L7.74690973,0.756202094 C7.7382999,0.740350347 7.58751809,0.379455886 7.09620009,0.379455886 L4.01087323,0.379455886 C3.5242069,0.379455886 3.3998804,0.627662452 3.34793392,0.728621876 C3.30518929,0.811759545 3.25635519,0.907557232 3.25635519,0.907557232 C1.8144216,1.03029372 0.336915396,2.33742127 0.337236738,2.93099124 L0.340941205,4.37945589 L2.05613936,4.37945589 L2.05613936,4.37945589 Z M13.883361,3.27606448 C13.9349692,3.27606448 14.4561593,3.27606448 14.7184121,3.27606448 C14.7649796,3.3439918 14.7939722,3.42528163 14.8209688,3.5248819 L14.9275682,4.06089383 L14.5082581,4.06089383 C14.1906758,4.06089383 14.0459496,3.98475048 13.910679,3.76699515 L13.7626036,3.49838595 C13.6723612,3.33209536 13.8138565,3.27606448 13.883361,3.27606448 Z M3.65880088,0.858963545 C3.70036146,0.778116591 3.74625231,0.688885624 4.01087321,0.688885624 L7.09621698,0.688885624 C7.3093312,0.688885624 7.39712093,0.805544082 7.43051147,0.875105452 L7.43920586,0.892484333 L7.44282571,0.899035771 C6.63921986,0.899035771 4.84756513,0.899325931 3.63956832,0.896577076 L3.65880088,0.858963545 Z M0.679802781,3.27606448 L1.27655304,3.27606448 C1.43981825,3.27606448 1.5725685,3.43442921 1.41772704,3.61319658 C1.34840868,3.69297454 1.01394503,4.05845042 1.01394503,4.05845042 L0.677789884,4.05845042 L0.679802781,3.27606448 Z" id="形状" fill="url(#linearGradient-48)"></path>
                    <path d="M10.3372367,2.37945589 L6.72069909,2.37945589 L6.355745,2.37945589 L6.355745,2.37632884 L4.33723669,2.37632884 L5.117292,1.37945589 L7.33703971,1.38028976 C8.7392759,1.38028976 9.3573121,1.76028781 10.3372367,2.37945589 Z" id="路径" fill="url(#linearGradient-49)"></path>
                    <path d="M3.47727714,1.37945589 L4.33723669,1.38028976 L3.57344668,2.37632884 L2.3319107,2.37632884 L2.3319107,2.37945589 L1.33723669,2.37945589 C1.62143644,2.03495323 2.577029,1.37945589 3.47727714,1.37945589 Z" id="路径" fill="url(#linearGradient-50)"></path>
                    <path d="M0.450059082,4.37947696 C0.389815268,4.53245892 0.341726831,4.69890954 0.33865837,5.00999537 L0.337236686,5.45722208 C0.337236686,6.06923427 0.60458418,6.16130166 1.0462774,6.37945589 C1.03682321,6.25756352 1.03021239,6.13356341 1.03021239,6.00703396 C1.03021239,5.39542225 1.1445631,4.83174123 1.33723669,4.37945589 L0.450059082,4.37945589 L0.450059082,4.37947696 Z" id="路径" fill="url(#linearGradient-51)"></path>
                    <path d="M4.33723669,4.37945589 C4.62387585,4.82279841 4.79491285,5.37492081 4.79491285,5.97485263 C4.79491285,6.1128884 4.78316088,6.24718453 4.76597274,6.37904267 L9.907621,6.37945589 C9.89023934,6.24718453 9.87850495,6.11288838 9.87850495,5.97485263 C9.87850495,5.37492081 10.0505975,4.82321164 10.3372367,4.37945589 L4.33723669,4.37945589 Z" id="路径" fill="url(#linearGradient-52)"></path>
                </g>
                <path d="M155.409866,142 C155.144659,141.191617 155,140.318363 155,139.41018 C155,135.318363 157.912463,132 161.5,132 C161.668506,132 161.835522,132.007321 162.000817,132.021699 L162,132 C162,128.134007 164.910149,125 168.5,125 C170.819988,125 172.856094,126.308936 174.006286,128.278466 L174.003931,128.245748 L174.003931,128.245748 L174,128 C174,124.134007 176.910149,121 180.5,121 C184.089851,121 187,124.134007 187,128 C187,128.39774 186.969197,128.787733 186.91002,129.167361 C188.597066,129.571634 190.038729,130.688716 190.952501,132.212309 C191.448427,132.073313 191.966756,132 192.5,132 C196.087537,132 199,135.318363 199,139.41018 C199,140.318363 198.855341,141.191617 198.594955,142 L198.594955,142 Z" id="形状结合备份" fill="url(#linearGradient-53)" fill-rule="nonzero"></path>
                <path d="M159.409866,144 C159.144659,143.191617 159,142.318363 159,141.41018 C159,137.318363 161.912463,134 165.5,134 C165.668166,134 165.834848,134.007291 165.999817,134.021612 L166,134 C166,130.134007 168.910149,127 172.5,127 C174.836439,127 176.884956,128.327565 178.030621,130.320463 C178.347174,126.773694 181.122808,124 184.5,124 C188.089851,124 191,127.134007 191,131 C191,131.063196 190.999222,131.126197 190.997677,131.188991 C192.646641,131.61029 194.05449,132.714995 194.952501,134.212309 C195.448427,134.073313 195.966756,134 196.5,134 C200.087537,134 203,137.318363 203,141.41018 C203,142.318363 202.855341,143.191617 202.594955,144 L202.594955,144 Z" id="形状结合备份" stroke="url(#linearGradient-11)" stroke-width="0.5" fill-rule="nonzero"></path>
                <line x1="75.5825024" y1="79.399061" x2="37.8567038" y2="79.5940293" id="路径-15" stroke="url(#linearGradient-54)" stroke-width="0.5"></line>
                <line x1="2.40299262" y1="136.66173" x2="217.816299" y2="136.58418" id="路径-6备份-7" stroke="#00B173" stroke-dasharray="6,2"></line>
                <g id="编组-66" transform="translate(153.388016, 24.349837)">
                    <g id="Fill-41">
                        <use fill="black" fill-opacity="1" filter="url(#filter-56)" xlink:href="#path-55"></use>
                        <use fill="url(#linearGradient-4)" fill-rule="evenodd" xlink:href="#path-55"></use>
                    </g>
                    <g id="aws" transform="translate(6.611984, 6.650163)" fill-rule="nonzero">
                        <path d="M2.53700221,1.81090077 C2.52687738,2.10550102 2.68606225,2.23595755 2.68999969,2.31880981 C2.68619613,2.35302633 2.66470901,2.38341917 2.63234439,2.4003614 L2.45234736,2.51690084 C2.42905364,2.53200468 2.40159425,2.54066618 2.37317679,2.54187357 C2.36713001,2.54161344 2.25800681,2.56567571 2.08518154,2.20877369 C1.87150174,2.45547748 1.54646222,2.59688982 1.20474294,2.59181905 C0.975809216,2.60339495 0.355381951,2.47163775 0.3873033,1.86071617 C0.364944294,1.36282224 0.866264149,1.0535245 1.38473997,1.07966783 C1.48458207,1.07992796 1.68848496,1.08448028 2.04552595,1.16121942 L2.04552595,0.958055807 C2.08335345,0.613900283 1.83881061,0.346874097 1.41539571,0.386934528 C1.38164627,0.387064594 1.14258772,0.380431211 0.770781349,0.518431593 C0.667283056,0.562394014 0.654064524,0.5551103 0.619611967,0.5551103 C0.515410561,0.5551103 0.558300479,0.275727811 0.578268899,0.240349768 C0.651533316,0.157107313 1.08254183,0.00167804232 1.50553485,0.00388917002 C1.78836195,-0.0192460827 2.06967256,0.0614889774 2.28866256,0.228643798 C2.46854757,0.414750919 2.55832274,0.660804038 2.53714284,0.90967113 L2.53700221,1.81090077 L2.53700221,1.81090077 Z M1.32174101,2.23218563 C1.77778036,2.22607251 1.9708553,1.97244316 2.0148702,1.8358735 C2.04946338,1.70515684 2.04369785,1.62243465 2.04369785,1.47949175 C1.90771572,1.44931636 1.71196895,1.41640957 1.48739453,1.41614944 C1.27435117,1.40132188 0.88524821,1.48937679 0.90043546,1.83574344 C0.882998248,2.05412482 1.05680788,2.24415173 1.32174101,2.23218563 L1.32174101,2.23218563 Z M3.72526386,2.53198853 C3.61473443,2.54135331 3.56326653,2.46877629 3.5469543,2.39710974 L2.84665335,0.255567529 C2.83301295,0.219409088 2.8240131,0.18208005 2.8196538,0.143970613 C2.81427479,0.111254625 2.83856824,0.080693403 2.87393415,0.0756857872 C2.8773091,0.0751655218 2.84398152,0.0756857872 3.18681962,0.0756857872 C3.31028633,0.0642399497 3.35050442,0.154115787 3.36330108,0.210564577 L3.8656053,2.04228878 L4.3319101,0.210564577 C4.33936311,0.168683217 4.37325317,0.0665811437 4.51190713,0.0773766495 L4.75321565,0.0773766495 C4.78373077,0.0750354555 4.90944745,0.0708733328 4.93152521,0.212255439 L5.40148621,2.06739158 L5.91996203,0.212255439 C5.92671192,0.183900978 5.9582114,0.064370016 6.09827159,0.0773766495 L6.37557952,0.0773766495 C6.38753244,0.0756857872 6.46206246,0.0668412764 6.44940642,0.188973565 C6.44335965,0.213035837 6.49735876,0.0503228518 5.70762178,2.3988006 C5.69145018,2.47046715 5.63984165,2.54304417 5.52931223,2.53367939 L5.26648844,2.53367939 C5.11264722,2.54863702 5.09056946,2.40803531 5.08817888,2.39385808 L4.62187407,0.610258426 L4.16091292,2.39203715 C4.15866296,2.40621439 4.1365852,2.54681609 3.98260337,2.53185847 L3.72526386,2.53185847 L3.72526386,2.53198853 Z M7.57101292,2.60521588 C7.48832678,2.60534594 7.09402079,2.60131389 6.76440123,2.44536435 C6.69725098,2.41906709 6.6538848,2.3578995 6.6545668,2.29045535 L6.6545668,2.15063404 C6.6545668,2.04072798 6.74176097,2.06088826 6.77874474,2.07402496 C6.91992991,2.1268319 7.01049092,2.16689233 7.18387868,2.19888865 C7.6992608,2.2968286 7.92594456,2.16897339 7.98149052,2.14061893 C8.16640935,2.03903712 8.18103411,1.80660858 8.05531743,1.68603709 C7.90794486,1.57170878 7.83763352,1.56741659 7.30818913,1.41289778 C7.24294021,1.39611922 6.69366802,1.2358775 6.69240241,0.731870449 C6.68382443,0.364563118 7.04466223,0.00115777698 7.67001129,0.00413095924 C7.84818022,0.00401923636 8.32292239,0.0578666992 8.45145152,0.207312919 C8.47043558,0.234496783 8.4798573,0.266493101 8.47845108,0.298879619 L8.47845108,0.430376684 C8.47845108,0.488126137 8.4556702,0.517000863 8.40996783,0.517000863 C8.30154774,0.505815158 8.10917592,0.371716767 7.71866673,0.377179553 C7.62177771,0.372497165 7.15772286,0.389015589 7.17853502,0.701955192 C7.17248824,0.948560964 7.55273197,1.04103813 7.59618438,1.05170357 C8.10889467,1.19438634 8.28031372,1.21805841 8.48379474,1.43643979 C8.72482201,1.72583738 8.59488665,2.06466019 8.5449656,2.15752755 C8.27665753,2.64514624 7.58282523,2.60547601 7.57101292,2.60521588 L7.57101292,2.60521588 Z" id="形状" fill="#000000"></path>
                        <path d="M8.13631609,3.96909147 C7.15153546,4.64179456 5.7219653,4.99986718 4.50136043,4.99986718 C2.85439497,5.00991297 1.26293376,4.44977916 0.0398246568,3.42957631 C-0.0520019534,3.35296724 0.0289967104,3.24800371 0.140651119,3.30640349 C1.49744243,4.02426026 3.03361521,4.40144493 4.59670261,4.40052151 C5.76397423,4.39473168 6.91851043,4.17571268 7.99400594,3.75604281 C8.15965946,3.69100965 8.30014152,3.85749456 8.13631609,3.96909147 L8.13631609,3.96909147 Z" id="路径" fill="#FF9900"></path>
                        <path d="M8.5467937,3.53610064 C8.42079578,3.38626422 7.71318245,3.46612495 7.39635955,3.5011128 C7.30087675,3.5111279 7.28470514,3.43451883 7.37118809,3.37793998 C7.93466317,3.01154311 8.86010103,3.11650664 8.96641178,3.23967946 C9.0725819,3.36285228 8.93758413,4.2205097 8.41010845,4.63021865 C8.32910979,4.69356096 8.25162669,4.66013391 8.2876261,4.57689146 C8.40631164,4.30050049 8.67279162,3.68606713 8.5467937,3.53610064 L8.5467937,3.53610064 Z" id="路径" fill="#FF9900"></path>
                    </g>
                </g>
                <g id="编组-68" transform="translate(145.227365, 105.364891)">
                    <line x1="-0.227365382" y1="9.63510919" x2="7.77263462" y2="9.63510919" id="路径-40备份-3" stroke="url(#linearGradient-57)" stroke-width="0.5"></line>
                    <g id="编组-64" transform="translate(8.772635, -0.364891)">
                        <g id="Fill-41备份-2">
                            <use fill="black" fill-opacity="1" filter="url(#filter-59)" xlink:href="#path-58"></use>
                            <use fill="url(#linearGradient-4)" fill-rule="evenodd" xlink:href="#path-58"></use>
                        </g>
                        <g id="华为" transform="translate(8.073061, 5.949583)" fill="#EA020A" fill-rule="nonzero">
                            <path d="M2.76360678,0.104333105 C2.91355412,0.0481537408 3.06734626,0.0120384352 3.2249832,0 C3.38646495,0.248794328 3.4402922,0.549755208 3.52487788,0.834664841 C3.58254993,1.14766416 3.62868757,1.46066347 3.63637718,1.7776756 C3.67482521,1.99838024 3.65175639,2.21908489 3.659446,2.44380235 C3.67098041,2.64444293 3.64406679,2.84508352 3.65175639,3.04973692 C3.659446,3.33063374 3.62099796,3.61153056 3.62484277,3.8964402 C3.58639473,4.07701672 3.61715316,4.26561888 3.56332591,4.44218259 C3.49796425,4.40606729 3.46720582,4.33383668 3.42491299,4.2736445 C3.12117351,3.80414553 2.84050285,3.32260812 2.57905622,2.82903227 C2.32914399,2.30736675 2.06385255,1.76563716 2.04078373,1.17174103 C2.02155971,0.702242054 2.3406784,0.252807139 2.76360678,0.104333105 Z M4.34382102,0.0240768704 C4.38226906,1.85615412e-16 4.4245619,0.0280896822 4.46685474,0.0321024939 C4.67447412,0.0802562347 4.89747273,0.112358729 5.07433369,0.252807139 C5.23966024,0.397268362 5.39345238,0.569819267 5.45496924,0.790523912 C5.54339972,1.05536949 5.50879648,1.34429193 5.45496924,1.61315032 C5.37807317,1.95423932 5.23197063,2.27526425 5.0858681,2.59227638 C5.03973046,2.68858386 4.9743688,2.77686572 4.93207596,2.87718602 C4.84749028,3.07381379 4.73599098,3.25840313 4.62833648,3.43897966 C4.45916513,3.74395335 4.27076976,4.0328758 4.08621919,4.32581105 C4.05930556,4.35791355 4.02470233,4.43816978 3.97856469,4.38600323 C3.94780626,4.06096548 3.92473744,3.73994054 3.91320303,3.41490279 C3.87091019,3.00158318 3.89397901,2.58425076 3.89013421,2.16691834 C3.91704783,1.89003433 3.92089264,1.61315032 3.95165107,1.34027912 C4.01316792,1.01524137 4.05546076,0.686190807 4.15158085,0.36917868 C4.22078731,0.260832763 4.23232172,0.100320293 4.34382102,0.0240768704 L4.34382102,0.0240768704 Z M1.1334101,1.06740792 C1.17570294,1.04734386 1.19492696,1.10352323 1.22184058,1.1276001 C1.96388766,2.12277741 2.60596984,3.19821095 3.13655272,4.32982386 C3.17884556,4.42211853 3.23267281,4.5144132 3.24036242,4.61874631 C3.14424233,4.59466944 3.06350146,4.54250289 2.97507098,4.49836196 C2.48293613,4.23752919 2.00233569,3.95261956 1.53711447,3.63962025 C1.36409831,3.51121027 1.18723735,3.38681311 1.03344521,3.23432626 C0.725860928,3.0096088 0.514396735,2.62839169 0.54131036,2.23112333 C0.572068788,1.77366279 0.845049836,1.38843286 1.1334101,1.06740792 Z M6.37772208,1.06339511 L6.43923893,1.06339511 C6.57765186,1.25199726 6.7391336,1.42856098 6.8390985,1.64525281 C6.94675299,1.84188059 7.00058024,2.06659804 7.01595946,2.2913155 C7.00442505,2.54010983 6.92752898,2.79692978 6.76989203,2.98954474 C6.66608234,3.08585223 6.58534146,3.20222377 6.47768697,3.28649281 C5.90481124,3.7600046 5.25888426,4.12918328 4.60911246,4.48231071 C4.51299238,4.53447726 4.42071709,4.60670787 4.3130626,4.61874631 C4.33228661,4.4782979 4.41302749,4.36593917 4.46685474,4.23752919 C4.90516233,3.31458249 5.4165212,2.43176391 6.00093133,1.60111188 C6.12012024,1.42053535 6.25853317,1.24798445 6.37772208,1.06339511 L6.37772208,1.06339511 Z M0.0261066904,3.17413408 C0.0414859045,3.14203159 0.037641101,3.08585223 0.0799339395,3.0778266 C0.15683001,3.09387785 0.222191669,3.1460444 0.291398132,3.18617252 C1.21030617,3.70783804 2.1253694,4.24154201 3.0058294,4.83142533 C3.03658783,4.84747658 3.05196705,4.87957907 3.06350146,4.91569438 C2.48293613,4.92372 1.9023708,4.92372 1.32565027,4.91970719 C0.975773155,4.92372 0.641275251,4.75518191 0.395207827,4.50237477 C0.183743634,4.26160606 0.0222618869,3.95663237 0.00303786943,3.623569 C0.00303786943,3.47509496 -0.0123413446,3.32260812 0.0261066904,3.17413408 L0.0261066904,3.17413408 Z M7.32738854,3.1460444 C7.38506059,3.1099291 7.44273265,3.07381379 7.51193911,3.08183941 C7.52347352,3.22228782 7.55038714,3.36273624 7.55423195,3.50318465 C7.53116313,3.67573555 7.53500793,3.85631208 7.46195666,4.01682455 C7.40043981,4.15727296 7.33892295,4.30173418 7.23126845,4.4100801 C7.11592435,4.52243883 7.01980426,4.65887443 6.87370173,4.73110504 C6.71221998,4.85951501 6.50460059,4.89964313 6.30467081,4.91168157 C5.69719186,4.91569438 5.0858681,4.91569438 4.47838915,4.91168157 C4.49376836,4.87957907 4.50914757,4.85148939 4.539906,4.83543814 C5.44343482,4.22950357 6.38541168,3.68376117 7.32738854,3.1460444 L7.32738854,3.1460444 Z M1.32565027,5.17652714 C1.65245857,5.14041183 1.98311167,5.17251433 2.30991997,5.13238621 C2.54445298,5.12436059 2.778986,5.11232215 3.00967421,5.13238621 C2.94815735,5.23671932 2.83665805,5.28487306 2.74822757,5.35309086 C2.50216015,5.5376802 2.24071351,5.69819267 1.96773246,5.83864108 C1.69859621,5.97908949 1.36025351,5.92692294 1.1295653,5.73029516 C0.941169924,5.59385956 0.810446605,5.39723179 0.687412893,5.20060401 C0.898877085,5.17251433 1.11418608,5.19257839 1.32565027,5.17652714 Z M4.5360612,5.13238621 C4.76674941,5.11633496 5.00128242,5.12436059 5.23581544,5.13639902 C5.55108932,5.17251433 5.87405282,5.14041183 6.1893267,5.17652714 C6.41232531,5.1965912 6.63532391,5.17652714 6.85832251,5.20461682 C6.78142644,5.37315492 6.66223753,5.51761614 6.53151422,5.64602611 C6.33158443,5.86271795 6.02400015,5.97106386 5.7433295,5.90685888 C5.49726207,5.82660264 5.28195308,5.66609017 5.06279928,5.53366738 C4.94361037,5.45742396 4.83211107,5.37315492 4.71292216,5.29289868 C4.6475605,5.24474494 4.57835404,5.20060401 4.5360612,5.13238621 L4.5360612,5.13238621 Z" id="形状"></path>
                        </g>
                    </g>
                </g>
                <g id="编组-6" transform="translate(145.227365, 64.857364)">
                    <g id="编组-59" transform="translate(8.772635, 0.142636)">
                        <g id="Fill-41备份">
                            <use fill="black" fill-opacity="1" filter="url(#filter-61)" xlink:href="#path-60"></use>
                            <use fill="url(#linearGradient-4)" fill-rule="evenodd" xlink:href="#path-60"></use>
                        </g>
                        <g id="编组" transform="translate(8.093815, 6.797060)" fill="#FF6A00">
                            <path d="M1.39714222,3.67732119 C1.24190419,3.64616724 1.11770381,3.49034749 1.11770381,3.33457774 L1.11770381,1.46469069 C1.11770381,1.27771698 1.24190419,1.15305118 1.39714222,1.12184722 L3.13579813,0.716795872 L3.32212361,5.00063394e-06 L1.30397948,5.00063394e-06 C0.589914457,5.00063394e-06 0,0.560976118 0,1.30887093 L0,3.55270539 C0,4.23829231 0.558876816,4.86157132 1.30397948,4.86157132 L3.32212361,4.86157132 L3.13579813,4.11367651 L1.39714222,3.67732119 Z" id="Fill-1"></path>
                            <path d="M6.25961622,0 L4.24056947,0 L4.42415487,0.747894814 L6.13724231,1.15309618 C6.29019742,1.15309618 6.41257133,1.30886593 6.41257133,1.49588964 L6.41257133,3.36572669 C6.41257133,3.55270039 6.29019742,3.67731619 6.13724231,3.70852015 L4.42415487,4.11367151 L4.24056947,4.86156632 L6.25961622,4.86156632 C6.93259908,4.86156632 7.54441953,4.30059521 7.54441953,3.55270039 L7.54441953,1.27771198 C7.51383832,0.560971117 6.96318028,0 6.25961622,0" id="Fill-3"></path>
                            <polygon id="Fill-5" points="2.9865618 2.52793214 4.3920003 2.52793214 4.3920003 2.34457557 2.9865618 2.34457557"></polygon>
                        </g>
                    </g>
                    <line x1="-0.227365382" y1="10.1426361" x2="7.77263462" y2="10.1426361" id="路径-40备份" stroke="url(#linearGradient-57)" stroke-width="0.5"></line>
                </g>
                <line x1="145.227365" y1="36.5823669" x2="153.686119" y2="36.5823669" id="路径-40" stroke="url(#linearGradient-62)" stroke-width="0.5"></line>
                <path d="M38.9786457,42.2084229 L53.5484571,42.2084229 C54.6530266,42.2084229 55.5484571,43.1038534 55.5484571,44.2084229 L55.5484571,73.0374226 C55.5484571,74.1419921 56.4438876,75.0374226 57.5484571,75.0374226 L75.5825024,75.0374226 L75.5825024,75.0374226" id="路径-14" stroke="url(#linearGradient-63)" stroke-width="0.5"></path>
                <path d="M39.0306237,115.959281 L53.6655262,115.959281 C54.7700957,115.959281 55.6655262,115.063851 55.6655262,113.959281 L55.6655262,85.8326653 C55.6655262,84.7280958 56.5609567,83.8326653 57.6655262,83.8326653 L75.1316824,83.8326653 L75.1316824,83.8326653" id="路径-6" stroke="url(#linearGradient-64)" stroke-width="0.5"></path>
                <g id="编组-23" transform="translate(45.417889, 68.805751)">
                    <path d="M20.5821115,10.1939653 C20.5821115,15.7166455 16.1049483,20.194249 10.5821115,20.194249 C5.05927458,20.194249 0.582111458,15.7166455 0.582111458,10.1939653 C0.582111458,4.67128509 5.05927458,0.194248978 10.5821115,0.194248978 C16.1049483,0.194248978 20.5821115,4.67128509 20.5821115,10.1939653" id="Fill-87" fill="url(#linearGradient-65)" opacity="0.0657022166"></path>
                    <g id="Fill-87">
                        <use fill="black" fill-opacity="1" filter="url(#filter-68)" xlink:href="#path-67"></use>
                        <use fill="url(#linearGradient-66)" fill-rule="evenodd" xlink:href="#path-67"></use>
                    </g>
                    <g id="编组-19" transform="translate(6.582111, 6.194249)">
                        <path d="M6.74123044,1.26778403 C5.37711819,1.11118219 4.35110631,0.73618219 3.69152725,0.153531218 L3.51775499,-1.23268092e-13 L3.33076093,0.135875128 C2.29643821,0.886258956 1.27382623,1.26586489 0.291635186,1.26586489 L-2.94664122e-13,1.26586489 L-2.94664122e-13,5.41504606 C-2.94664122e-13,6.68666837 1.10345386,7.84045548 3.37420399,8.94204197 L3.49357798,9 L3.61521856,8.94703173 C5.86141392,7.96635107 7,6.77840328 7,5.41504606 L7,1.29772262 L6.74123044,1.26778403 Z" id="Stroke-117" fill="#FFFFFF"></path>
                        <polyline id="Stroke-119" stroke="#00B173" stroke-width="0.5" stroke-linecap="round" stroke-linejoin="bevel" points="1.84429034 3.66106704 3.0614517 2.42437308 3.0614517 6.57547339"></polyline>
                        <polyline id="Stroke-121" stroke="#00B173" stroke-width="0.5" stroke-linecap="round" stroke-linejoin="bevel" points="5.15563411 5.33881781 3.93847275 6.57551177 3.93847275 2.42441146"></polyline>
                    </g>
                </g>
                <polygon id="三角形备份-5" fill="#00B173" transform="translate(73.958521, 74.920856) rotate(-270.000000) translate(-73.958521, -74.920856) " points="73.9585209 72.7378628 76.1415145 77.1038499 71.7755273 77.1038499"></polygon>
                <polygon id="三角形备份-7" fill="#00B173" transform="translate(73.958521, 79.286843) rotate(-270.000000) translate(-73.958521, -79.286843) " points="73.9585209 77.1038499 76.1415145 81.469837 71.7755273 81.469837"></polygon>
                <polygon id="三角形备份-9" fill="#00B173" transform="translate(73.958521, 83.652831) rotate(-270.000000) translate(-73.958521, -83.652831) " points="73.9585209 81.469837 76.1415145 85.8358242 71.7755273 85.8358242"></polygon>
                <polygon id="三角形备份-10" fill="#00B173" transform="translate(39.030624, 79.286843) rotate(-90.000000) translate(-39.030624, -79.286843) " points="39.0306237 77.1038499 41.2136173 81.469837 36.8476302 81.469837"></polygon>
                <polygon id="三角形备份-11" fill="#00B173" transform="translate(39.030624, 116.397734) rotate(-90.000000) translate(-39.030624, -116.397734) " points="39.0306237 114.214741 41.2136173 118.580728 36.8476302 118.580728"></polygon>
                <polygon id="三角形备份-12" fill="#00B173" transform="translate(39.030624, 42.175953) rotate(-90.000000) translate(-39.030624, -42.175953) " points="39.0306237 39.9929592 41.2136173 44.3589463 36.8476302 44.3589463"></polygon>
            </g>
        </g>
    </g>
</svg>